<?xml version="1.0" encoding="utf-8"?>
<!-- Generator: Adobe Illustrator 15.1.0, SVG Export Plug-In . SVG Version: 6.00 Build 0)  -->
<!DOCTYPE svg PUBLIC "-//W3C//DTD SVG 1.1//EN" "http://www.w3.org/Graphics/SVG/1.1/DTD/svg11.dtd">
<svg version="1.1" xmlns="http://www.w3.org/2000/svg" xmlns:xlink="http://www.w3.org/1999/xlink" x="0px" y="0px"
	 width="123.75px" height="125.1px" viewBox="0 0 123.75 125.1" enable-background="new 0 0 123.75 125.1" xml:space="preserve">
<g id="object">
	<circle id="Dot_23_" cx="82" cy="64.725" r="1.5"/>
	<circle id="Dot_22_" cx="82" cy="58.725" r="1.5"/>
	<circle id="Dot_21_" cx="1.5" cy="64.725" r="1.5"/>
	<circle id="Dot_20_" cx="1.5" cy="58.725" r="1.5"/>
	<circle id="Dot_19_" cx="41.75" cy="64.725" r="1.5"/>
	<circle id="Dot_18_" cx="41.75" cy="58.725" r="1.5"/>
	<circle id="Dot_17_" cx="18.625" cy="41.6" r="1.5"/>
	<circle id="Dot_16_" cx="24.625" cy="41.6" r="1.5"/>
	<circle id="Dot_15_" cx="18.625" cy="81.85" r="1.5"/>
	<circle id="Dot_14_" cx="24.625" cy="81.85" r="1.5"/>
	<circle id="Dot_13_" cx="99.125" cy="41.6" r="1.5"/>
	<circle id="Dot_12_" cx="105.125" cy="41.6" r="1.5"/>
	<circle id="Dot_11_" cx="99.125" cy="81.85" r="1.5"/>
	<circle id="Dot_10_" cx="105.125" cy="81.85" r="1.5"/>
	<circle id="Dot_9_" cx="122.25" cy="64.725" r="1.5"/>
	<circle id="Dot_8_" cx="122.25" cy="58.725" r="1.5"/>
	<circle id="Dot_7_" cx="41.75" cy="24.625" r="1.5"/>
	<circle id="Dot_6_" cx="41.75" cy="18.625" r="1.5"/>
	<circle id="Dot_5_" cx="58.875" cy="1.5" r="1.5"/>
	<circle id="Dot_4_" cx="64.875" cy="1.5" r="1.5"/>
	<circle id="Dot_3_" cx="58.875" cy="41.75" r="1.5"/>
	<circle id="Dot_2_" cx="64.875" cy="41.75" r="1.5"/>
	<circle id="Dot_1_" cx="82" cy="24.625" r="1.5"/>
	<circle id="Dot" cx="82" cy="18.625" r="1.5"/>
	<circle id="Dot_31_" cx="41.75" cy="106.475" r="1.5"/>
	<circle id="Dot_30_" cx="41.75" cy="100.475" r="1.5"/>
	<circle id="Dot_29_" cx="58.875" cy="83.35" r="1.5"/>
	<circle id="Dot_28_" cx="64.875" cy="83.35" r="1.5"/>
	<circle id="Dot_27_" cx="58.875" cy="123.6" r="1.5"/>
	<circle id="Dot_26_" cx="64.875" cy="123.6" r="1.5"/>
	<circle id="Dot_25_" cx="82" cy="106.475" r="1.5"/>
	<circle id="Dot_24_" cx="82" cy="100.475" r="1.5"/>
	<circle fill="#FF00FF" stroke="#000000" stroke-miterlimit="10" cx="61.875" cy="61.725" r="16"/>
	<circle fill="#00FF00" stroke="#000000" stroke-miterlimit="10" cx="102.125" cy="61.725" r="16.5"/>
	<circle fill="#00FF00" stroke="#000000" stroke-miterlimit="10" cx="21.625" cy="61.725" r="16.5"/>
	<circle fill="#00FF00" stroke="#000000" stroke-miterlimit="10" cx="61.875" cy="21.625" r="16.5"/>
	<circle fill="#00FF00" stroke="#000000" stroke-miterlimit="10" cx="61.875" cy="103.475" r="16.5"/>
</g>
<g id="circles">
	<circle id="Dot_63_" fill="none" cx="82" cy="64.725" r="1.5"/>
	<circle id="Dot_62_" fill="none" cx="82" cy="58.725" r="1.5"/>
	<circle id="Dot_61_" fill="none" cx="1.5" cy="64.725" r="1.5"/>
	<circle id="Dot_60_" fill="none" cx="1.5" cy="58.725" r="1.5"/>
	<circle id="Dot_59_" fill="none" cx="41.75" cy="64.725" r="1.5"/>
	<circle id="Dot_58_" fill="none" cx="41.75" cy="58.725" r="1.5"/>
	<circle id="Dot_57_" fill="none" cx="18.625" cy="41.6" r="1.5"/>
	<circle id="Dot_56_" fill="none" cx="24.625" cy="41.6" r="1.5"/>
	<circle id="Dot_55_" fill="none" cx="18.625" cy="81.85" r="1.5"/>
	<circle id="Dot_54_" fill="none" cx="24.625" cy="81.85" r="1.5"/>
	<circle id="Dot_53_" fill="none" cx="99.125" cy="41.6" r="1.5"/>
	<circle id="Dot_52_" fill="none" cx="105.125" cy="41.6" r="1.5"/>
	<circle id="Dot_51_" fill="none" cx="99.125" cy="81.85" r="1.5"/>
	<circle id="Dot_50_" fill="none" cx="105.125" cy="81.85" r="1.5"/>
	<circle id="Dot_49_" fill="none" cx="122.25" cy="64.725" r="1.5"/>
	<circle id="Dot_48_" fill="none" cx="122.25" cy="58.725" r="1.5"/>
	<circle id="Dot_47_" fill="none" cx="41.75" cy="24.625" r="1.5"/>
	<circle id="Dot_46_" fill="none" cx="41.75" cy="18.625" r="1.5"/>
	<circle id="Dot_45_" fill="none" cx="58.875" cy="1.5" r="1.5"/>
	<circle id="Dot_44_" fill="none" cx="64.875" cy="1.5" r="1.5"/>
	<circle id="Dot_43_" fill="none" cx="58.875" cy="41.75" r="1.5"/>
	<circle id="Dot_42_" fill="none" cx="64.875" cy="41.75" r="1.5"/>
	<circle id="Dot_41_" fill="none" cx="82" cy="24.625" r="1.5"/>
	<circle id="Dot_40_" fill="none" cx="82" cy="18.625" r="1.5"/>
	<circle id="Dot_39_" fill="none" cx="41.75" cy="106.475" r="1.5"/>
	<circle id="Dot_38_" fill="none" cx="41.75" cy="100.475" r="1.5"/>
	<circle id="Dot_37_" fill="none" cx="58.875" cy="83.35" r="1.5"/>
	<circle id="Dot_36_" fill="none" cx="64.875" cy="83.35" r="1.5"/>
	<circle id="Dot_35_" fill="none" cx="58.875" cy="123.6" r="1.5"/>
	<circle id="Dot_34_" fill="none" cx="64.875" cy="123.6" r="1.5"/>
	<circle id="Dot_33_" fill="none" cx="82" cy="106.475" r="1.5"/>
	<circle id="Dot_32_" fill="none" cx="82" cy="100.475" r="1.5"/>
	<circle id="Boron" fill="none" cx="61.875" cy="61.725" r="16"/>
	<circle id="Chlorine_3_" fill="none" cx="102.125" cy="61.725" r="16.5"/>
	<circle id="Chlorine_2_" fill="none" cx="21.625" cy="61.725" r="16.5"/>
	<circle id="Chlorine_1_" fill="none" cx="61.875" cy="21.625" r="16.5"/>
	<circle id="Chlorine" fill="none" cx="61.875" cy="103.475" r="16.5"/>
</g>
</svg>
