<?xml version="1.0" encoding="utf-8"?>
<!-- Generator: Adobe Illustrator 15.0.2, SVG Export Plug-In . SVG Version: 6.00 Build 0)  -->
<!DOCTYPE svg PUBLIC "-//W3C//DTD SVG 1.1//EN" "http://www.w3.org/Graphics/SVG/1.1/DTD/svg11.dtd">
<svg version="1.1" xmlns="http://www.w3.org/2000/svg" xmlns:xlink="http://www.w3.org/1999/xlink" x="0px" y="0px"
	 width="80.496px" height="76.84px" viewBox="0 0 80.496 76.84" enable-background="new 0 0 80.496 76.84" xml:space="preserve">
<g id="object">
	<path fill="#B1B1B1" d="M69.728,41.49c0.326-2.052,0.325-4.147-0.002-6.198c3.441-1.583,6.367-4.202,8.294-7.539
		c5.101-8.833,2.063-20.169-6.771-25.272C68.438,0.858,65.243,0,62.011,0c-6.594,0-12.737,3.545-16.033,9.252
		c-1.923,3.331-2.729,7.165-2.385,10.93c-3.712,1.398-6.929,3.916-9.227,7.312l-0.858,1.27V48.08l0.857,1.269
		c1.673,2.477,3.821,4.482,6.383,5.96c0.899,0.52,1.829,0.962,2.787,1.327c-0.32,3.768,0.502,7.612,2.433,10.956
		c3.295,5.704,9.438,9.248,16.032,9.249h0.001c3.233,0,6.429-0.858,9.24-2.482c4.28-2.471,7.341-6.461,8.618-11.235
		c1.277-4.773,0.62-9.758-1.852-14.037C76.073,45.735,73.151,43.097,69.728,41.49z"/>
	<circle fill="#FFFFFF" stroke="#000000" stroke-miterlimit="10" cx="12" cy="38.422" r="11.5"/>
	<path fill="#2F2F2F" stroke="#000000" stroke-miterlimit="10" d="M38.508,30.295c-2.606-3.846-7.013-6.374-12.01-6.375
		c-8.007,0.002-14.499,6.492-14.499,14.501c0,8.008,6.492,14.501,14.498,14.5c4.998,0.001,9.402-2.526,12.011-6.372V30.295z"/>
	<path fill="#FFFFFF" stroke="#000000" stroke-miterlimit="10" d="M13.854,31.56c2.637,0.521,12.244-5.03,13.106-7.583
		c1.026-3.024,0.802-6.455-0.919-9.439c-3.178-5.5-10.207-7.384-15.711-4.209c-5.498,3.174-7.383,10.208-4.207,15.708
		C7.849,29.027,10.718,30.938,13.854,31.56z"/>
	<path fill="#FFFFFF" stroke="#000000" stroke-miterlimit="10" d="M26.873,52.903c-0.866-2.545-10.476-8.088-13.118-7.56
		c-3.133,0.625-5.993,2.534-7.716,5.517c-3.176,5.501-1.291,12.534,4.21,15.71c5.498,3.175,12.533,1.291,15.709-4.21
		C27.684,59.372,27.904,55.932,26.873,52.903z"/>
	<path fill="#2F2F2F" stroke="#000000" stroke-miterlimit="10" d="M63.436,44.93c2.127-4.222,2.009-9.039,0.014-13.02l-13.788-7.959
		c-4.378,0.258-8.552,2.498-11.153,6.344v16.254c1.19,1.762,2.774,3.295,4.741,4.43c2.029,1.172,4.224,1.783,6.414,1.907
		L63.436,44.93z"/>
	<path fill="#FF0000" stroke="#000000" stroke-miterlimit="10" d="M63.449,31.911c4.132-0.451,8.003-2.783,10.24-6.658
		c3.729-6.457,1.515-14.713-4.94-18.441c-6.459-3.729-14.713-1.516-18.441,4.941c-2.238,3.876-2.322,8.395-0.646,12.199
		L63.449,31.911z"/>
	<path fill="#FF0000" stroke="#000000" stroke-miterlimit="10" d="M49.651,52.893c-1.675,3.805-1.59,8.322,0.646,12.197
		c3.729,6.457,11.986,8.666,18.443,4.938s8.666-11.984,4.937-18.441c-2.237-3.875-6.11-6.207-10.242-6.656L49.651,52.893z"/>
</g>
<g id="circles">
	<circle id="Oxygen-Ion_1_" fill="none" cx="61.983" cy="58.385" r="18.486"/>
	<circle id="Oxygen-Ion" fill="none" cx="61.983" cy="18.513" r="18.508"/>
	<circle id="Hydrogen_2_" fill="none" cx="15.995" cy="20.192" r="11.402"/>
	<circle id="Hydrogen_1_" fill="none" cx="15.995" cy="56.71" r="11.402"/>
	<circle id="Hydrogen" fill="none" cx="12.097" cy="38.419" r="11.402"/>
	<circle id="Carbon_1_" fill="none" cx="26.499" cy="38.42" r="14.5"/>
	<circle id="Carbon-Ion" fill="none" cx="50.468" cy="38.419" r="19.502"/>
</g>
</svg>
