<?xml version="1.0" encoding="utf-8"?>
<!-- Generator: Adobe Illustrator 15.0.2, SVG Export Plug-In . SVG Version: 6.00 Build 0)  -->
<!DOCTYPE svg PUBLIC "-//W3C//DTD SVG 1.1//EN" "http://www.w3.org/Graphics/SVG/1.1/DTD/svg11.dtd">
<svg version="1.1" xmlns="http://www.w3.org/2000/svg" xmlns:xlink="http://www.w3.org/1999/xlink" x="0px" y="0px"
	 width="93.999px" height="67.842px" viewBox="0 0 93.999 67.842" enable-background="new 0 0 93.999 67.842" xml:space="preserve">
<g id="object">
	<circle fill="#FFFFFF" stroke="#000000" stroke-miterlimit="10" cx="12" cy="33.923" r="11.5"/>
	<g>
		<path fill="#2F2F2F" stroke="#000000" stroke-miterlimit="10" d="M38.51,25.795c-2.606-3.846-7.012-6.374-12.009-6.374
			C18.493,19.422,12,25.913,12,33.922c0,8.007,6.493,14.5,14.5,14.5c4.997,0,9.401-2.527,12.009-6.373V25.795z"/>
		<path fill="#FFFFFF" stroke="#000000" stroke-miterlimit="10" d="M93.499,53.839C93.5,47.488,88.353,42.341,82,42.34
			c-3.51,0.001-6.647,1.577-8.757,4.056l0.003,14.891c2.109,2.479,5.245,4.055,8.753,4.055C88.353,65.341,93.5,60.19,93.499,53.839z
			"/>
		<path fill="#2F2F2F" stroke="#000000" stroke-miterlimit="10" d="M63.438,40.431c2.127-4.222,2.01-9.04,0.014-13.02l-13.788-7.96
			c-4.378,0.258-8.551,2.498-11.153,6.344v16.254c1.191,1.762,2.775,3.296,4.741,4.431c2.03,1.172,4.225,1.782,6.415,1.906
			L63.438,40.431z"/>
		<path fill="#FF0000" stroke="#000000" stroke-miterlimit="10" d="M73.243,46.396c-2.287-3.458-5.926-5.547-9.806-5.965
			l-13.772,7.955c-1.678,3.805-1.595,8.326,0.644,12.204c3.728,6.458,11.983,8.669,18.441,4.941
			c1.875-1.083,3.379-2.554,4.496-4.245L73.243,46.396z"/>
		<path fill="#FF0000" stroke="#000000" stroke-miterlimit="10" d="M63.451,27.411c4.132-0.451,8.003-2.783,10.241-6.658
			c3.729-6.458,1.515-14.714-4.941-18.441C62.293-1.417,54.038,0.795,50.31,7.253c-2.238,3.875-2.322,8.395-0.646,12.198
			L63.451,27.411z"/>
	</g>
	<path fill="#FFFFFF" stroke="#000000" stroke-miterlimit="10" d="M13.857,27.061c2.637,0.521,12.244-5.03,13.106-7.584
		c1.026-3.024,0.802-6.455-0.919-9.438c-3.177-5.501-10.207-7.385-15.71-4.21C4.835,9.003,2.951,16.036,6.126,21.536
		C7.852,24.526,10.72,26.438,13.857,27.061z"/>
	<path fill="#FFFFFF" stroke="#000000" stroke-miterlimit="10" d="M26.875,48.402c-0.867-2.545-10.477-8.087-13.119-7.56
		c-3.132,0.626-5.992,2.534-7.715,5.518c-3.176,5.501-1.292,12.534,4.209,15.71c5.499,3.175,12.533,1.291,15.709-4.21
		C27.686,54.872,27.907,51.433,26.875,48.402z"/>
</g>
<g id="circles">
	<circle id="Oxygen_1_" fill="none" cx="62.005" cy="13.955" r="13.457"/>
	<circle id="Oxygen" fill="none" cx="62.005" cy="53.886" r="13.457"/>
	<circle id="Hydrogen_3_" fill="none" cx="16.081" cy="15.69" r="11.367"/>
	<circle id="Hydrogen_2_" fill="none" cx="12.001" cy="33.954" r="11.367"/>
	<circle id="Hydrogen_1_" fill="none" cx="15.866" cy="52.21" r="11.367"/>
	<circle id="Carbon_1_" fill="none" cx="26.504" cy="33.953" r="14.504"/>
	<circle id="Carbon" fill="none" cx="50.486" cy="33.953" r="14.504"/>
	<circle id="Hydrogen" fill="none" cx="82.132" cy="53.887" r="11.367"/>
</g>
</svg>
