<?xml version="1.0" encoding="utf-8"?>
<!-- Generator: Adobe Illustrator 15.0.2, SVG Export Plug-In . SVG Version: 6.00 Build 0)  -->
<!DOCTYPE svg PUBLIC "-//W3C//DTD SVG 1.1//EN" "http://www.w3.org/Graphics/SVG/1.1/DTD/svg11.dtd">
<svg version="1.1" xmlns="http://www.w3.org/2000/svg" xmlns:xlink="http://www.w3.org/1999/xlink" x="0px" y="0px"
	 width="86.836px" height="79.758px" viewBox="0 0 86.836 79.758" enable-background="new 0 0 86.836 79.758" xml:space="preserve">
<g id="object">
	<g>
		<path fill="#55A9A9" stroke="#000000" stroke-miterlimit="10" d="M33.495,30.159c-2.975,1.698-5.561,4.165-7.396,7.345
			s-2.679,6.653-2.662,10.077l9.923,17.204c0.021,0.011,0.038,0.027,0.062,0.039c6.432,3.714,14.062,3.433,20.055-0.048
			l9.932-17.199c0.018-6.932-3.555-13.679-9.987-17.394c-0.021-0.012-0.043-0.021-0.065-0.032L33.495,30.159z"/>
		<path fill="#00FF00" stroke="#000000" stroke-miterlimit="10" d="M53.476,64.776c0.615,4.956,3.449,9.576,8.107,12.268
			c7.893,4.557,17.984,1.854,22.541-6.04c4.555-7.892,1.851-17.983-6.04-22.539c-4.66-2.69-10.078-2.833-14.677-0.888L53.476,64.776
			z"/>
		<path fill="#00FF00" stroke="#000000" stroke-miterlimit="10" d="M23.437,47.581c-4.601-1.948-10.022-1.806-14.685,0.885
			C0.86,53.022-1.843,63.112,2.714,71.005c4.556,7.892,14.646,10.596,22.539,6.039c4.656-2.688,7.488-7.307,8.106-12.259
			L23.437,47.581z"/>
		<path fill="#00FF00" stroke="#000000" stroke-miterlimit="10" d="M26.921,17c0,5.383,2.587,10.147,6.574,13.16l19.859-0.008
			c3.981-3.013,6.566-7.774,6.564-13.151C59.921,7.886,52.534,0.5,43.42,0.5C34.308,0.5,26.921,7.886,26.921,17z"/>
	</g>
</g>
<g id="circles">
	<circle id="Chlorine_2_" fill="none" cx="43.42" cy="16.999" r="16.499"/>
	<circle id="Chlorine_1_" fill="none" cx="69.906" cy="62.76" r="16.499"/>
	<circle id="Chlorine" fill="none" cx="16.93" cy="62.76" r="16.499"/>
	<circle id="Aluminum" fill="none" cx="43.418" cy="47.412" r="20.088"/>
</g>
</svg>
