<?xml version="1.0" encoding="utf-8"?>
<!-- Generator: Adobe Illustrator 15.0.2, SVG Export Plug-In . SVG Version: 6.00 Build 0)  -->
<!DOCTYPE svg PUBLIC "-//W3C//DTD SVG 1.1//EN" "http://www.w3.org/Graphics/SVG/1.1/DTD/svg11.dtd">
<svg version="1.1" xmlns="http://www.w3.org/2000/svg" xmlns:xlink="http://www.w3.org/1999/xlink" x="0px" y="0px"
	 width="124.004px" height="48.756px" viewBox="0 0 124.004 48.756" enable-background="new 0 0 124.004 48.756"
	 xml:space="preserve">
<g id="object">
	<g>
		<path fill="#FF0000" stroke="#000000" stroke-miterlimit="10" d="M75.293,11.713c-0.263-1.529-0.779-3.039-1.601-4.461
			c-3.729-6.458-11.983-8.669-18.44-4.941c-3.611,2.084-5.891,5.584-6.551,9.394l8.721,14.99c2.896,1.043,6.128,1.09,9.145,0.001
			L75.293,11.713z"/>
		<path fill="#FF0000" stroke="#000000" stroke-miterlimit="10" d="M121.693,7.252c-3.729-6.458-11.983-8.669-18.44-4.941
			c-3.427,1.978-5.643,5.234-6.426,8.816l9.62,15.896c3.354,0.916,7.057,0.547,10.306-1.329
			C123.209,21.966,125.421,13.709,121.693,7.252z"/>
		<path fill="#FF0000" stroke="#000000" stroke-miterlimit="10" d="M27.193,11.132c-0.29-1.33-0.783-2.638-1.5-3.88
			C21.965,0.794,13.71-1.417,7.253,2.312C0.795,6.04-1.417,14.294,2.312,20.752c3.132,5.426,9.46,7.838,15.234,6.264L27.193,11.132z
			"/>
		<path fill="#55A9A9" stroke="#000000" stroke-miterlimit="10" d="M48.702,11.705c-6.142-4.15-14.349-4.729-21.2-0.773
			c-0.107,0.062-0.203,0.136-0.309,0.2l-9.647,15.884c-0.239,3.794,0.593,7.697,2.636,11.236c5.523,9.566,17.755,12.844,27.32,7.32
			c6.892-3.979,10.496-11.439,9.921-18.877L48.702,11.705z"/>
		<path fill="#55A9A9" stroke="#000000" stroke-miterlimit="10" d="M96.827,11.127c-6.031-3.629-13.797-3.964-20.325-0.195
			c-0.42,0.243-0.812,0.514-1.208,0.781l-8.726,14.983c-0.308,3.894,0.513,7.917,2.613,11.556c5.523,9.566,17.755,12.844,27.32,7.32
			c6.791-3.92,10.391-11.221,9.945-18.55L96.827,11.127z"/>
	</g>
</g>
<g id="circles">
	<circle id="Oxygen_2_" fill="none" cx="13.994" cy="13.994" r="13.494"/>
	<circle id="Oxygen_1_" fill="none" cx="62.002" cy="13.994" r="13.494"/>
	<circle id="Oxygen" fill="none" cx="110.01" cy="13.994" r="13.494"/>
	<circle id="Aluminum_1_" fill="none" cx="86.495" cy="28.257" r="20"/>
	<circle id="Aluminum" fill="none" cx="37.494" cy="28.257" r="20"/>
</g>
</svg>
