<?xml version="1.0" encoding="utf-8"?>
<!-- Generator: Adobe Illustrator 15.0.2, SVG Export Plug-In . SVG Version: 6.00 Build 0)  -->
<!DOCTYPE svg PUBLIC "-//W3C//DTD SVG 1.1//EN" "http://www.w3.org/Graphics/SVG/1.1/DTD/svg11.dtd">
<svg version="1.1" xmlns="http://www.w3.org/2000/svg" xmlns:xlink="http://www.w3.org/1999/xlink" x="0px" y="0px"
	 width="127.995px" height="88.498px" viewBox="0 0 127.995 88.498" enable-background="new 0 0 127.995 88.498"
	 xml:space="preserve">
<g id="object">
	<path fill="#B1B1B1" d="M78.02,27.755c5.1-8.833,2.063-20.169-6.77-25.271c-2.813-1.624-6.007-2.481-9.239-2.481
		c-6.594,0-12.738,3.545-16.033,9.252c-1.924,3.332-2.721,7.167-2.377,10.933c-3.714,1.398-6.936,3.911-9.234,7.309l-0.858,1.27
		v1.532v16.253v1.531l0.857,1.269c1.673,2.476,3.822,4.481,6.386,5.961c0.917,0.529,1.867,0.974,2.842,1.343
		c-0.345,3.767,0.452,7.604,2.375,10.937c3.296,5.707,9.439,9.251,16.033,9.251c3.233,0,6.429-0.858,9.241-2.482
		c4.279-2.472,7.34-6.461,8.618-11.234c1.277-4.773,0.62-9.759-1.852-14.038c-1.925-3.335-4.852-5.944-8.291-7.527
		c0.337-2.076,0.339-4.196,0.005-6.272C73.164,33.704,76.093,31.092,78.02,27.755z"/>
	<path fill="#B1B1B1" d="M120.815,58.387c0.831-0.571,1.62-1.216,2.348-1.944c3.115-3.114,4.832-7.257,4.832-11.665
		c0-4.407-1.716-8.55-4.832-11.667c-3.119-3.117-7.263-4.833-11.669-4.833c-2.367,0-4.651,0.51-6.749,1.452
		c-1.312-0.328-2.655-0.5-4-0.5h0c-7.449,0-13.999,5.03-15.929,12.231c-0.607,2.269-0.71,4.588-0.354,6.84
		c-2.475,3.083-3.965,6.989-3.965,11.241c0,4.129,1.412,7.926,3.759,10.967c-0.049,1.6,0.135,3.216,0.561,4.806
		c1.93,7.202,8.48,12.231,15.929,12.231c1.345,0,2.688-0.172,4-0.5c2.097,0.941,4.381,1.451,6.748,1.451
		c4.407,0,8.551-1.717,11.669-4.833c3.117-3.117,4.833-7.26,4.833-11.667c0-4.408-1.716-8.551-4.834-11.667
		C122.434,59.602,121.646,58.958,120.815,58.387z"/>
	<circle fill="#FFFFFF" stroke="#000000" stroke-miterlimit="10" cx="100.754" cy="71.043" r="11.5"/>
	<circle fill="#FFFFFF" stroke="#000000" stroke-miterlimit="10" cx="100.754" cy="45.731" r="11.5"/>
	<circle fill="#FFFFFF" stroke="#000000" stroke-miterlimit="10" cx="12" cy="38.425" r="11.5"/>
	<path fill="#2F2F2F" stroke="#000000" stroke-miterlimit="10" d="M38.508,30.298c-2.606-3.846-7.013-6.374-12.01-6.375
		C18.492,23.925,12,30.415,12,38.424c0,8.008,6.492,14.5,14.498,14.5c4.998,0,9.402-2.527,12.011-6.373V30.298z"/>
	<path fill="#2F2F2F" stroke="#000000" stroke-miterlimit="10" d="M63.436,44.932c2.127-4.221,2.009-9.039,0.014-13.019
		l-13.788-7.959c-4.378,0.258-8.552,2.498-11.153,6.344v16.253c1.19,1.762,2.774,3.295,4.741,4.43
		c2.029,1.172,4.224,1.783,6.414,1.908L63.436,44.932z"/>
	<path fill="#FF0000" stroke="#000000" stroke-miterlimit="10" d="M63.45,31.913c4.132-0.451,8.003-2.783,10.24-6.658
		c3.729-6.457,1.515-14.713-4.94-18.441c-6.459-3.729-14.713-1.516-18.441,4.941c-2.238,3.876-2.322,8.395-0.646,12.199
		L63.45,31.913z"/>
	<path fill="#FF0000" stroke="#000000" stroke-miterlimit="10" d="M49.652,52.895c-1.675,3.805-1.59,8.322,0.646,12.197
		c3.729,6.457,11.986,8.666,18.443,4.938s8.666-11.984,4.937-18.441c-2.237-3.875-6.11-6.207-10.242-6.656L49.652,52.895z"/>
	<path fill="#FFFFFF" stroke="#000000" stroke-miterlimit="10" d="M13.855,31.562c2.637,0.521,12.244-5.03,13.106-7.583
		c1.026-3.024,0.802-6.455-0.919-9.439c-3.178-5.5-10.207-7.384-15.711-4.209c-5.498,3.174-7.383,10.208-4.207,15.708
		C7.849,29.029,10.718,30.94,13.855,31.562z"/>
	<path fill="#FFFFFF" stroke="#000000" stroke-miterlimit="10" d="M26.874,52.905c-0.866-2.545-10.476-8.088-13.118-7.559
		c-3.133,0.625-5.993,2.533-7.716,5.516c-3.176,5.502-1.291,12.535,4.21,15.711c5.498,3.174,12.533,1.291,15.709-4.211
		C27.684,59.374,27.905,55.934,26.874,52.905z"/>
	<circle fill="#0000FF" stroke="#000000" stroke-miterlimit="10" cx="98.496" cy="59.542" r="13"/>
	<path fill="#FFFFFF" stroke="#000000" stroke-miterlimit="10" d="M103.362,36.646c-2.502,2.503-3.606,5.873-3.319,9.142
		c0.228,2.6,7.845,10.215,10.442,10.443c3.27,0.285,6.639-0.818,9.141-3.322c4.492-4.49,4.491-11.771,0.001-16.262
		C115.134,32.155,107.854,32.155,103.362,36.646z"/>
	<path fill="#FFFFFF" stroke="#000000" stroke-miterlimit="10" d="M103.362,80.129c-2.502-2.504-3.606-5.873-3.319-9.143
		c0.228-2.6,7.845-10.215,10.442-10.443c3.27-0.285,6.639,0.818,9.141,3.322c4.492,4.49,4.491,11.771,0.001,16.262
		C115.134,84.62,107.854,84.62,103.362,80.129z"/>
</g>
<g id="circles">
	<circle id="Oxygen-Ion_1_" fill="none" cx="61.993" cy="58.387" r="18.455"/>
	<circle id="Oxygen-Ion" fill="none" cx="61.993" cy="18.457" r="18.456"/>
	<circle id="Carbon-Ion" fill="none" cx="50.589" cy="38.422" r="19.382"/>
	<circle id="Hydrogen_6_" fill="none" cx="16.079" cy="20.193" r="11.404"/>
	<circle id="Hydrogen_5_" fill="none" cx="16.079" cy="56.713" r="11.404"/>
	<circle id="Hydrogen_4_" fill="none" cx="11.999" cy="38.422" r="11.404"/>
	<circle id="Carbon" fill="none" cx="26.516" cy="38.421" r="14.517"/>
	<circle id="Hydrogen-Ion_3_" fill="none" cx="111.496" cy="44.776" r="16.498"/>
	<circle id="Hydrogen-Ion_2_" fill="none" cx="111.496" cy="71.999" r="16.498"/>
	<circle id="Hydrogen-Ion_1_" fill="none" cx="100.754" cy="71.043" r="16.502"/>
	<circle id="Hydrogen-Ion" fill="none" cx="100.754" cy="45.731" r="16.502"/>
	<circle id="Nitrogen-Ion" fill="none" cx="99.256" cy="59.542" r="18.759"/>
</g>
</svg>
