<?xml version="1.0" encoding="utf-8"?>
<!-- Generator: Adobe Illustrator 15.0.2, SVG Export Plug-In . SVG Version: 6.00 Build 0)  -->
<!DOCTYPE svg PUBLIC "-//W3C//DTD SVG 1.1//EN" "http://www.w3.org/Graphics/SVG/1.1/DTD/svg11.dtd">
<svg version="1.1" xmlns="http://www.w3.org/2000/svg" xmlns:xlink="http://www.w3.org/1999/xlink" x="0px" y="0px"
	 width="114.154px" height="66.796px" viewBox="0 0 114.154 66.796" enable-background="new 0 0 114.154 66.796"
	 xml:space="preserve">
<g id="object">
	<path fill="#B1B1B1" d="M107.243,25.097c-2.016-7.061-8.486-11.973-15.846-11.973c-1.439,0-2.879,0.19-4.277,0.565
		c-0.609,0.164-1.197,0.366-1.771,0.591c-0.285-2.096-0.951-4.146-2.039-6.028C80.371,3.162,74.892,0,69.01,0
		c-2.883,0-5.732,0.765-8.24,2.213c-3.817,2.204-6.547,5.762-7.688,10.019c-1.141,4.257-0.555,8.704,1.65,12.521
		c1.506,2.61,3.671,4.715,6.239,6.147c-0.236,1.645-0.248,3.325-0.019,4.996c-2.569,1.433-4.735,3.537-6.243,6.148
		c-2.204,3.816-2.79,8.263-1.649,12.521s3.871,7.815,7.688,10.019c2.506,1.448,5.356,2.213,8.24,2.213
		c5.882,0,11.361-3.162,14.299-8.252c1.506-2.609,2.246-5.534,2.203-8.471c0.094-0.038,0.191-0.066,0.285-0.106
		c2.047,2.103,4.635,3.646,7.54,4.423c1.396,0.375,2.838,0.565,4.277,0.565c7.449,0,13.998-5.029,15.93-12.23
		C115.339,35.936,112.62,28.996,107.243,25.097z"/>
	<path fill="#B1B1B1" d="M28,5.377c-15.439,0-28,12.561-28,28s12.561,28.001,28,28.001s28-12.562,28-28.001S43.439,5.377,28,5.377z"
		/>
	<circle fill="#FFFFFF" stroke="#000000" stroke-miterlimit="10" cx="91.388" cy="29.627" r="11.5"/>
	<path fill="#0000FF" stroke="#000000" stroke-miterlimit="10" d="M72.249,22.147c-5.911,3.412-8.117,10.764-5.237,16.823
		c0.001,0,0.001,0,0.001,0l12.785,7.38l0,0c1.863-0.148,3.724-0.689,5.451-1.687c6.219-3.59,8.348-11.541,4.758-17.759
		C86.417,20.688,78.467,18.558,72.249,22.147z"/>
	<path fill="#FFFFFF" stroke="#000000" stroke-miterlimit="10" d="M67.012,38.971c-3.233,0.569-6.202,2.507-7.973,5.573
		c-3.176,5.5-1.292,12.534,4.209,15.709c5.501,3.177,12.534,1.292,15.71-4.209c1.77-3.066,1.965-6.607,0.84-9.693L67.012,38.971z"/>
	<path fill="#FFFFFF" stroke="#000000" stroke-miterlimit="10" d="M63.27,6.543c-5.5,3.176-7.385,10.208-4.208,15.708
		c1.768,3.063,4.733,5.002,7.964,5.572c2.569,0.455,11.896-4.923,12.79-7.368c1.13-3.087,0.936-6.634-0.836-9.703
		C75.804,5.251,68.771,3.367,63.27,6.543z"/>
	<path fill="#FFFFFF" stroke="#000000" stroke-miterlimit="10" d="M100.562,27.343c-3.418-0.915-6.889-0.187-9.577,1.697
		c-2.137,1.496-4.924,11.901-3.822,14.265c1.387,2.975,4.027,5.34,7.446,6.255c6.135,1.646,12.439-1.996,14.084-8.13
		C110.337,35.292,106.696,28.988,100.562,27.343z"/>
	<circle fill="#00FF00" stroke="#000000" stroke-miterlimit="10" cx="28" cy="33.377" r="23"/>
</g>
<g id="circles">
	<circle id="Chlorine-Ion" fill="none" cx="28" cy="33.397" r="28"/>
	<circle id="Hydrogen-Ion_3_" fill="none" cx="68.998" cy="16.425" r="16.425"/>
	<circle id="Hydrogen-Ion_2_" fill="none" cx="68.998" cy="49.975" r="16.577"/>
	<circle id="Hydrogen-Ion_1_" fill="none" cx="97.577" cy="38.452" r="16.577"/>
	<circle id="Hydrogen-Ion" fill="none" cx="91.454" cy="29.627" r="16.577"/>
	<circle id="Nitrogen-Ion" fill="none" cx="78.818" cy="33.397" r="17.822"/>
</g>
</svg>
