<?xml version="1.0" encoding="utf-8"?>
<!-- Generator: Adobe Illustrator 15.1.0, SVG Export Plug-In . SVG Version: 6.00 Build 0)  -->
<!DOCTYPE svg PUBLIC "-//W3C//DTD SVG 1.1//EN" "http://www.w3.org/Graphics/SVG/1.1/DTD/svg11.dtd">
<svg version="1.1" xmlns="http://www.w3.org/2000/svg" xmlns:xlink="http://www.w3.org/1999/xlink" x="0px" y="0px" width="94.09px"
	 height="94px" viewBox="0 0 94.09 94" enable-background="new 0 0 94.09 94" xml:space="preserve">
<g id="object">
	<circle fill="#0000FF" stroke="#000000" stroke-miterlimit="10" cx="47.045" cy="47.001" r="13"/>
	<circle fill="#FFFFFF" stroke="#1D1D1B" stroke-miterlimit="10" cx="82.09" cy="47" r="11.5"/>
	<circle fill="#FFFFFF" stroke="#1D1D1B" stroke-miterlimit="10" cx="12" cy="47.001" r="11.5"/>
	<circle fill="#231F20" cx="28.5" cy="50.001" r="1.5"/>
	<circle fill="#231F20" cx="28.5" cy="44.001" r="1.5"/>
	<circle fill="#FFFFFF" stroke="#1D1D1B" stroke-miterlimit="10" cx="47.09" cy="12" r="11.5"/>
	<circle fill="#231F20" cx="44.09" cy="28.5" r="1.5"/>
	<circle fill="#231F20" cx="50.09" cy="28.5" r="1.5"/>
	<circle fill="#FFFFFF" stroke="#1D1D1B" stroke-miterlimit="10" cx="47.09" cy="82" r="11.5"/>
	<circle fill="#231F20" cx="50.09" cy="65.5" r="1.5"/>
	<circle fill="#231F20" cx="44.09" cy="65.5" r="1.5"/>
	<circle fill="#231F20" cx="65.59" cy="44" r="1.5"/>
	<circle fill="#231F20" cx="65.59" cy="50" r="1.5"/>
</g>
<g id="circles">
	<circle id="Nitrogen" fill="none" cx="47.045" cy="47.001" r="13"/>
	<circle id="Hydrogen_1_" fill="none" cx="82.09" cy="47" r="11.5"/>
	<circle id="Hydrogen_3_" fill="none" cx="12" cy="47.001" r="11.5"/>
	<circle id="Hydrogen_2_" fill="none" cx="47.09" cy="82" r="11.5"/>
	<circle id="Hydrogen" fill="none" cx="47.09" cy="12" r="11.5"/>
	<circle id="Dot_7_" fill="none" cx="28.5" cy="50.001" r="1.5"/>
	<circle id="Dot_6_" fill="none" cx="28.5" cy="44.001" r="1.5"/>
	<circle id="Dot_5_" fill="none" cx="44.09" cy="28.5" r="1.5"/>
	<circle id="Dot_4_" fill="none" cx="50.09" cy="28.5" r="1.5"/>
	<circle id="Dot_3_" fill="none" cx="50.09" cy="65.5" r="1.5"/>
	<circle id="Dot_2_" fill="none" cx="44.09" cy="65.5" r="1.5"/>
	<circle id="Dot_1_" fill="none" cx="65.59" cy="44" r="1.5"/>
	<circle id="Dot" fill="none" cx="65.59" cy="50" r="1.5"/>
</g>
</svg>
