<?xml version="1.0" encoding="utf-8"?>
<!-- Generator: Adobe Illustrator 15.0.2, SVG Export Plug-In . SVG Version: 6.00 Build 0)  -->
<!DOCTYPE svg PUBLIC "-//W3C//DTD SVG 1.1//EN" "http://www.w3.org/Graphics/SVG/1.1/DTD/svg11.dtd">
<svg version="1.1" xmlns="http://www.w3.org/2000/svg" xmlns:xlink="http://www.w3.org/1999/xlink" x="0px" y="0px"
	 width="116.621px" height="85.896px" viewBox="0 0 116.621 85.896" enable-background="new 0 0 116.621 85.896"
	 xml:space="preserve">
<g id="object">
	<path fill="#B1B1B1" d="M57.906,38.706c0.09-1.045,0.09-2.097-0.002-3.143c3.685-1.545,6.823-4.258,8.867-7.796
		C71.872,18.932,68.834,7.595,60,2.494c-2.811-1.623-6.005-2.48-9.237-2.48c-6.595,0-12.739,3.545-16.034,9.253
		c-2.044,3.538-2.824,7.613-2.319,11.578c-0.954,0.444-1.865,0.97-2.726,1.571c-3.181-2.417-7.097-3.778-11.181-3.778H18.5
		c-4.943,0-9.589,1.924-13.083,5.418C1.924,27.548,0,32.194,0,37.135c0,10.2,8.299,18.5,18.5,18.501
		c4.081-0.001,7.994-1.361,11.172-3.772c0.431,0.302,0.87,0.595,1.33,0.86c0.462,0.267,0.937,0.501,1.416,0.725
		c-0.498,3.957,0.282,8.022,2.321,11.556c3.295,5.708,9.438,9.253,16.033,9.253c3.232,0,6.427-0.857,9.238-2.48
		c4.279-2.471,7.341-6.46,8.62-11.232c1.279-4.773,0.622-9.759-1.849-14.039C64.736,42.965,61.595,40.251,57.906,38.706z"/>
	<path fill="#B1B1B1" d="M109.441,55.787c0.831-0.572,1.62-1.216,2.348-1.944c3.115-3.114,4.832-7.257,4.832-11.665
		c0-4.407-1.717-8.55-4.833-11.667c-3.117-3.117-7.262-4.833-11.669-4.833c-2.367,0-4.65,0.51-6.747,1.451
		c-1.313-0.328-2.656-0.5-4-0.5h-0.001c-7.448,0-13.999,5.03-15.929,12.231c-0.607,2.269-0.71,4.588-0.354,6.84
		c-2.475,3.083-3.965,6.989-3.965,11.241c0,4.128,1.412,7.926,3.759,10.966c-0.05,1.6,0.134,3.217,0.56,4.807
		c1.931,7.202,8.481,12.231,15.93,12.231c1.345,0,2.688-0.172,4-0.5c2.098,0.941,4.381,1.451,6.748,1.451
		c4.407,0,8.552-1.717,11.669-4.833c3.116-3.117,4.833-7.26,4.833-11.667c0-4.408-1.717-8.551-4.834-11.667
		C111.06,57.001,110.271,56.357,109.441,55.787z"/>
	<g>
		<path fill="#0000FF" stroke="#000000" stroke-miterlimit="10" d="M51.917,42.314c1.477-3.389,1.39-7.132-0.008-10.355
			l-13.381-7.726c-3.49,0.401-6.777,2.197-8.972,5.17l-0.002,15.468c1.029,1.393,2.35,2.603,3.945,3.523
			c1.594,0.921,3.303,1.461,5.023,1.655L51.917,42.314z"/>
		<path fill="#FF0000" stroke="#000000" stroke-miterlimit="10" d="M29.557,29.403c-2.441-3.484-6.48-5.768-11.057-5.767
			C11.043,23.635,5,29.679,5,37.135s6.043,13.5,13.5,13.501c4.576-0.002,8.613-2.283,11.055-5.766L29.557,29.403z"/>
		<path fill="#FF0000" stroke="#000000" stroke-miterlimit="10" d="M51.91,31.958c4.241-0.369,8.242-2.727,10.532-6.692
			c3.729-6.458,1.516-14.714-4.941-18.442c-6.457-3.728-14.712-1.516-18.441,4.942c-2.291,3.966-2.331,8.609-0.53,12.467
			L51.91,31.958z"/>
		<path fill="#FF0000" stroke="#000000" stroke-miterlimit="10" d="M38.538,50.04c-1.801,3.856-1.759,8.499,0.531,12.467
			c3.728,6.458,11.983,8.669,18.441,4.941c6.457-3.728,8.67-11.983,4.941-18.441c-2.29-3.967-6.291-6.323-10.533-6.692L38.538,50.04
			z"/>
	</g>
	<circle fill="#FFFFFF" stroke="#000000" stroke-miterlimit="10" cx="89.38" cy="68.443" r="11.5"/>
	<circle fill="#FFFFFF" stroke="#000000" stroke-miterlimit="10" cx="89.38" cy="43.13" r="11.5"/>
	<circle fill="#0000FF" stroke="#000000" stroke-miterlimit="10" cx="87.123" cy="56.941" r="13"/>
	<path fill="#FFFFFF" stroke="#000000" stroke-miterlimit="10" d="M91.988,34.044c-2.502,2.504-3.606,5.873-3.319,9.143
		c0.228,2.6,7.845,10.215,10.442,10.443c3.27,0.285,6.639-0.818,9.141-3.322c4.492-4.49,4.491-11.771,0.001-16.262
		C103.76,29.554,96.48,29.554,91.988,34.044z"/>
	<path fill="#FFFFFF" stroke="#000000" stroke-miterlimit="10" d="M91.988,77.529c-2.502-2.504-3.606-5.873-3.319-9.143
		c0.228-2.6,7.845-10.215,10.442-10.443c3.27-0.285,6.639,0.818,9.141,3.322c4.492,4.49,4.491,11.771,0.001,16.262
		C103.76,82.019,96.48,82.019,91.988,77.529z"/>
</g>
<g id="circles">
	<circle id="Oxygen-Ion_2_" fill="none" cx="50.751" cy="18.486" r="18.485"/>
	<circle id="Oxygen-Ion_1_" fill="none" cx="18.485" cy="37.141" r="18.485"/>
	<circle id="Oxygen-Ion" fill="none" cx="50.751" cy="55.787" r="18.485"/>
	<circle id="Nitrogen-Ion_1_" fill="none" cx="39.89" cy="37.137" r="18.081"/>
	<circle id="Hydrogen-Ion_3_" fill="none" cx="100.164" cy="42.176" r="16.499"/>
	<circle id="Hydrogen-Ion_2_" fill="none" cx="89.42" cy="43.13" r="16.499"/>
	<circle id="Hydrogen-Ion_1_" fill="none" cx="89.42" cy="68.443" r="16.499"/>
	<circle id="Hydrogen-Ion" fill="none" cx="100.164" cy="69.398" r="16.499"/>
	<circle id="Nitrogen-Ion" fill="none" cx="87.164" cy="56.941" r="18.081"/>
</g>
</svg>
