<?xml version="1.0" encoding="utf-8"?>
<!-- Generator: Adobe Illustrator 15.0.2, SVG Export Plug-In . SVG Version: 6.00 Build 0)  -->
<!DOCTYPE svg PUBLIC "-//W3C//DTD SVG 1.1//EN" "http://www.w3.org/Graphics/SVG/1.1/DTD/svg11.dtd">
<svg version="1.1" xmlns="http://www.w3.org/2000/svg" xmlns:xlink="http://www.w3.org/1999/xlink" x="0px" y="0px"
	 width="63.679px" height="66.292px" viewBox="0 0 63.679 66.292" enable-background="new 0 0 63.679 66.292" xml:space="preserve">
<g id="object">
	<path fill="#B1B1B1" d="M62.236,43.042c1.042-4.172,0.436-8.508-1.72-12.242c-2.204-3.816-5.762-6.547-10.019-7.688
		c-0.594-0.159-1.196-0.285-1.801-0.377c0.798-1.955,1.221-4.067,1.221-6.236c0-9.097-7.402-16.499-16.5-16.5
		c-4.407,0-8.551,1.717-11.667,4.833c-3.117,3.116-4.833,7.26-4.832,11.667c0,3.002,0.811,5.898,2.307,8.416
		c-1.04,1.323-1.886,2.784-2.515,4.341c-2.974-0.048-5.888,0.725-8.457,2.208c-3.817,2.204-6.547,5.762-7.688,10.019
		c-1.141,4.257-0.555,8.704,1.648,12.52c2.938,5.091,8.418,8.253,14.3,8.253c2.883,0,5.732-0.765,8.24-2.213
		c2.603-1.503,4.708-3.657,6.14-6.214c0.1,0.014,0.199,0.027,0.299,0.04c0.722,2.841,2.197,5.466,4.322,7.589
		c3.116,3.118,7.259,4.834,11.667,4.834c4.407,0,8.55-1.716,11.668-4.833C63.72,56.585,64.98,49.185,62.236,43.042z"/>
	<circle fill="#FFFFFF" stroke="#000000" stroke-miterlimit="10" cx="46.227" cy="39.051" r="11.5"/>
	<path fill="#0000FF" stroke="#000000" stroke-miterlimit="10" d="M33.391,23.003c-6.825,0-12.411,5.263-12.947,11.951c0,0,0,0,0,0
		l7.382,12.785l0,0c1.689,0.803,3.57,1.265,5.564,1.265c7.18,0,13-5.82,13-13S40.57,23.003,33.391,23.003z"/>
	<g>
		<path fill="#FFFFFF" stroke="#000000" stroke-miterlimit="10" d="M20.443,34.954c-3.084-1.124-6.625-0.93-9.691,0.84
			c-5.5,3.176-7.385,10.209-4.209,15.709c3.176,5.502,10.209,7.386,15.709,4.21c3.066-1.771,5.005-4.74,5.574-7.975L20.443,34.954z"
			/>
		<g>
			<path fill="#FFFFFF" stroke="#000000" stroke-miterlimit="10" d="M33.417,5c-6.352,0-11.5,5.148-11.499,11.5
				c0,3.537,1.599,6.698,4.111,8.808c1.999,1.679,12.765,1.685,14.761,0.015c2.521-2.109,4.127-5.277,4.127-8.822
				C44.917,10.148,39.769,5,33.417,5z"/>
		</g>
	</g>
	<path fill="#FFFFFF" stroke="#000000" stroke-miterlimit="10" d="M55.312,41.66c-2.503-2.502-5.873-3.606-9.143-3.319
		c-2.599,0.228-10.215,7.845-10.442,10.442c-0.286,3.27,0.818,6.639,3.321,9.141c4.49,4.492,11.771,4.491,16.263,0.001
		C59.803,53.431,59.803,46.152,55.312,41.66z"/>
</g>
<g id="circles">
	<circle id="Hydrogen-Ion_3_" fill="none" cx="16.413" cy="45.744" r="16.486"/>
	<circle id="Hydrogen-Ion_2_" fill="none" cx="33.417" cy="16.487" r="16.486"/>
	<circle id="Hydrogen-Ion_1_" fill="none" cx="46.227" cy="39.051" r="16.486"/>
	<circle id="Hydrogen-Ion" fill="none" cx="47.182" cy="49.794" r="16.486"/>
	<circle id="Nitrogen-Ion" fill="none" cx="33.417" cy="36.004" r="18.012"/>
</g>
</svg>
