<?xml version="1.0" encoding="UTF-8" standalone="no"?>
<!-- Created with Inkscape (http://www.inkscape.org/) -->

<svg
   xmlns:dc="http://purl.org/dc/elements/1.1/"
   xmlns:cc="http://creativecommons.org/ns#"
   xmlns:rdf="http://www.w3.org/1999/02/22-rdf-syntax-ns#"
   xmlns:svg="http://www.w3.org/2000/svg"
   xmlns="http://www.w3.org/2000/svg"
   version="1.1"
   width="80.808128"
   height="62.998001"
   id="svg2"
   xml:space="preserve"><metadata
     id="metadata8"><rdf:RDF><cc:Work
         rdf:about=""><dc:format>image/svg+xml</dc:format><dc:type
           rdf:resource="http://purl.org/dc/dcmitype/StillImage" /><dc:title></dc:title></cc:Work></rdf:RDF></metadata><defs
     id="defs6"><radialGradient
       cx="0"
       cy="0"
       r="1"
       fx="0"
       fy="0"
       id="radialGradient24"
       gradientUnits="userSpaceOnUse"
       gradientTransform="matrix(8.7762299,-8.7762299,-8.7762299,-8.7762299,41.011719,25.453613)"
       spreadMethod="pad"><stop
         id="stop26"
         style="stop-color:#ed1c24;stop-opacity:1"
         offset="0" /><stop
         id="stop28"
         style="stop-color:#550709;stop-opacity:1"
         offset="0.75460798" /><stop
         id="stop30"
         style="stop-color:#ed1c24;stop-opacity:1"
         offset="1" /></radialGradient><radialGradient
       cx="0"
       cy="0"
       r="1"
       fx="0"
       fy="0"
       id="radialGradient46"
       gradientUnits="userSpaceOnUse"
       gradientTransform="matrix(8.7707977,-8.7707977,-8.7707977,-8.7707977,41.014648,39.855469)"
       spreadMethod="pad"><stop
         id="stop48"
         style="stop-color:#00adef;stop-opacity:1"
         offset="0" /><stop
         id="stop50"
         style="stop-color:#17194a;stop-opacity:1"
         offset="0.78527802" /><stop
         id="stop52"
         style="stop-color:#2e3192;stop-opacity:1"
         offset="1" /></radialGradient><radialGradient
       cx="0"
       cy="0"
       r="1"
       fx="0"
       fy="0"
       id="radialGradient68"
       gradientUnits="userSpaceOnUse"
       gradientTransform="matrix(8.7762299,-8.7762299,-8.7762299,-8.7762299,28.41748,47.057129)"
       spreadMethod="pad"><stop
         id="stop70"
         style="stop-color:#ed1c24;stop-opacity:1"
         offset="0" /><stop
         id="stop72"
         style="stop-color:#550709;stop-opacity:1"
         offset="0.75460798" /><stop
         id="stop74"
         style="stop-color:#ed1c24;stop-opacity:1"
         offset="1" /></radialGradient><radialGradient
       cx="0"
       cy="0"
       r="1"
       fx="0"
       fy="0"
       id="radialGradient90"
       gradientUnits="userSpaceOnUse"
       gradientTransform="matrix(8.776413,-8.776413,-8.776413,-8.776413,28.416992,18.256348)"
       spreadMethod="pad"><stop
         id="stop92"
         style="stop-color:#ed1c24;stop-opacity:1"
         offset="0" /><stop
         id="stop94"
         style="stop-color:#550709;stop-opacity:1"
         offset="0.75460798" /><stop
         id="stop96"
         style="stop-color:#ed1c24;stop-opacity:1"
         offset="1" /></radialGradient><radialGradient
       cx="0"
       cy="0"
       r="1"
       fx="0"
       fy="0"
       id="radialGradient112"
       gradientUnits="userSpaceOnUse"
       gradientTransform="matrix(8.7709961,-8.7709961,-8.7709961,-8.7709961,28.416504,32.658203)"
       spreadMethod="pad"><stop
         id="stop114"
         style="stop-color:#00adef;stop-opacity:1"
         offset="0" /><stop
         id="stop116"
         style="stop-color:#17194a;stop-opacity:1"
         offset="0.78527802" /><stop
         id="stop118"
         style="stop-color:#2e3192;stop-opacity:1"
         offset="1" /></radialGradient><radialGradient
       cx="0"
       cy="0"
       r="1"
       fx="0"
       fy="0"
       id="radialGradient134"
       gradientUnits="userSpaceOnUse"
       gradientTransform="matrix(8.7707977,-8.7707977,-8.7707977,-8.7707977,53.610352,32.654297)"
       spreadMethod="pad"><stop
         id="stop136"
         style="stop-color:#00adef;stop-opacity:1"
         offset="0" /><stop
         id="stop138"
         style="stop-color:#17194a;stop-opacity:1"
         offset="0.78527802" /><stop
         id="stop140"
         style="stop-color:#2e3192;stop-opacity:1"
         offset="1" /></radialGradient><radialGradient
       cx="0"
       cy="0"
       r="1"
       fx="0"
       fy="0"
       id="radialGradient156"
       gradientUnits="userSpaceOnUse"
       gradientTransform="matrix(8.7707977,-8.7707977,-8.7707977,-8.7707977,3.3564453,32.65918)"
       spreadMethod="pad"><stop
         id="stop158"
         style="stop-color:#00adef;stop-opacity:1"
         offset="0" /><stop
         id="stop160"
         style="stop-color:#17194a;stop-opacity:1"
         offset="0.78527802" /><stop
         id="stop162"
         style="stop-color:#2e3192;stop-opacity:1"
         offset="1" /></radialGradient><radialGradient
       cx="0"
       cy="0"
       r="1"
       fx="0"
       fy="0"
       id="radialGradient178"
       gradientUnits="userSpaceOnUse"
       gradientTransform="matrix(8.7707977,-8.7707977,-8.7707977,-8.7707977,41.01709,11.055664)"
       spreadMethod="pad"><stop
         id="stop180"
         style="stop-color:#00adef;stop-opacity:1"
         offset="0" /><stop
         id="stop182"
         style="stop-color:#17194a;stop-opacity:1"
         offset="0.78527802" /><stop
         id="stop184"
         style="stop-color:#2e3192;stop-opacity:1"
         offset="1" /></radialGradient><radialGradient
       cx="0"
       cy="0"
       r="1"
       fx="0"
       fy="0"
       id="radialGradient200"
       gradientUnits="userSpaceOnUse"
       gradientTransform="matrix(8.7762299,-8.7762299,-8.7762299,-8.7762299,15.822754,25.452637)"
       spreadMethod="pad"><stop
         id="stop202"
         style="stop-color:#ed1c24;stop-opacity:1"
         offset="0" /><stop
         id="stop204"
         style="stop-color:#550709;stop-opacity:1"
         offset="0.75460798" /><stop
         id="stop206"
         style="stop-color:#ed1c24;stop-opacity:1"
         offset="1" /></radialGradient><radialGradient
       cx="0"
       cy="0"
       r="1"
       fx="0"
       fy="0"
       id="radialGradient222"
       gradientUnits="userSpaceOnUse"
       gradientTransform="matrix(8.7707977,-8.7707977,-8.7707977,-8.7707977,15.825684,39.854492)"
       spreadMethod="pad"><stop
         id="stop224"
         style="stop-color:#00adef;stop-opacity:1"
         offset="0" /><stop
         id="stop226"
         style="stop-color:#17194a;stop-opacity:1"
         offset="0.78527802" /><stop
         id="stop228"
         style="stop-color:#2e3192;stop-opacity:1"
         offset="1" /></radialGradient><radialGradient
       cx="0"
       cy="0"
       r="1"
       fx="0"
       fy="0"
       id="radialGradient244"
       gradientUnits="userSpaceOnUse"
       gradientTransform="matrix(8.7707977,-8.7707977,-8.7707977,-8.7707977,15.828125,11.054688)"
       spreadMethod="pad"><stop
         id="stop246"
         style="stop-color:#00adef;stop-opacity:1"
         offset="0" /><stop
         id="stop248"
         style="stop-color:#17194a;stop-opacity:1"
         offset="0.78527802" /><stop
         id="stop250"
         style="stop-color:#2e3192;stop-opacity:1"
         offset="1" /></radialGradient></defs><g
     transform="matrix(1.25,0,0,-1.25,0,62.998)"
     id="g10"><g
       id="g12"><g
         id="g14"><g
           id="g20"><g
             id="g22"><path
               d="m 37.653,21.594 c 0,-3.977 3.223,-7.202 7.2,-7.202 l 0,0 c 3.978,0 7.202,3.225 7.202,7.202 l 0,0 c 0,3.976 -3.224,7.201 -7.202,7.201 l 0,0 c -3.977,0 -7.2,-3.225 -7.2,-7.201"
               id="path32"
               style="fill:url(#radialGradient24);stroke:none" /></g></g></g></g><g
       id="g34"><g
         id="g36"><g
           id="g42"><g
             id="g44"><path
               d="m 37.658,35.997 c 0,-3.974 3.22,-7.196 7.195,-7.196 l 0,0 c 3.976,0 7.198,3.222 7.198,7.196 l 0,0 c 0,3.975 -3.222,7.198 -7.198,7.198 l 0,0 c -3.975,0 -7.195,-3.223 -7.195,-7.198"
               id="path54"
               style="fill:url(#radialGradient46);stroke:none" /></g></g></g></g><g
       id="g56"><g
         id="g58"><g
           id="g64"><g
             id="g66"><path
               d="m 32.259,50.398 c -3.977,0 -7.2,-3.224 -7.2,-7.202 l 0,0 c 0,-3.977 3.223,-7.201 7.2,-7.201 l 0,0 c 3.978,0 7.201,3.224 7.201,7.201 l 0,0 c 0,3.978 -3.223,7.202 -7.201,7.202 z"
               id="path76"
               style="fill:url(#radialGradient68);stroke:none" /></g></g></g></g><g
       id="g78"><g
         id="g80"><g
           id="g86"><g
             id="g88"><path
               d="m 25.059,14.396 c 0,-3.978 3.223,-7.201 7.2,-7.201 l 0,0 c 3.978,0 7.201,3.223 7.201,7.201 l 0,0 c 0,3.976 -3.223,7.201 -7.201,7.201 l 0,0 c -3.977,0 -7.2,-3.225 -7.2,-7.201"
               id="path98"
               style="fill:url(#radialGradient90);stroke:none" /></g></g></g></g><g
       id="g100"><g
         id="g102"><g
           id="g108"><g
             id="g110"><path
               d="m 25.061,28.799 c 0,-3.973 3.22,-7.196 7.194,-7.196 l 0,0 c 3.976,0 7.197,3.223 7.197,7.196 l 0,0 c 0,3.974 -3.221,7.198 -7.197,7.198 l 0,0 c -3.974,0 -7.194,-3.224 -7.194,-7.198"
               id="path120"
               style="fill:url(#radialGradient112);stroke:none" /></g></g></g></g><g
       id="g122"><g
         id="g124"><g
           id="g130"><g
             id="g132"><path
               d="m 50.254,28.796 c 0,-3.974 3.22,-7.196 7.195,-7.196 l 0,0 c 3.976,0 7.197,3.222 7.197,7.196 l 0,0 c 0,3.975 -3.221,7.198 -7.197,7.198 l 0,0 c -3.975,0 -7.195,-3.223 -7.195,-7.198"
               id="path142"
               style="fill:url(#radialGradient134);stroke:none" /></g></g></g></g><g
       id="g144"><g
         id="g146"><g
           id="g152"><g
             id="g154"><path
               d="m 0,28.801 c 0,-3.974 3.22,-7.196 7.195,-7.196 l 0,0 c 3.976,0 7.198,3.222 7.198,7.196 l 0,0 c 0,3.974 -3.222,7.197 -7.198,7.197 l 0,0 C 3.22,35.998 0,32.775 0,28.801"
               id="path164"
               style="fill:url(#radialGradient156);stroke:none" /></g></g></g></g><g
       id="g166"><g
         id="g168"><g
           id="g174"><g
             id="g176"><path
               d="m 37.661,7.197 c 0,-3.974 3.22,-7.196 7.195,-7.196 l 0,0 c 3.975,0 7.197,3.222 7.197,7.196 l 0,0 c 0,3.975 -3.222,7.198 -7.197,7.198 l 0,0 c -3.975,0 -7.195,-3.223 -7.195,-7.198"
               id="path186"
               style="fill:url(#radialGradient178);stroke:none" /></g></g></g></g><g
       id="g188"><g
         id="g190"><g
           id="g196"><g
             id="g198"><path
               d="m 12.464,21.592 c 0,-3.977 3.223,-7.201 7.2,-7.201 l 0,0 c 3.978,0 7.202,3.224 7.202,7.201 l 0,0 c 0,3.977 -3.224,7.202 -7.202,7.202 l 0,0 c -3.977,0 -7.2,-3.225 -7.2,-7.202"
               id="path208"
               style="fill:url(#radialGradient200);stroke:none" /></g></g></g></g><g
       id="g210"><g
         id="g212"><g
           id="g218"><g
             id="g220"><path
               d="m 12.469,35.996 c 0,-3.974 3.221,-7.196 7.196,-7.196 l 0,0 c 3.975,0 7.196,3.222 7.196,7.196 l 0,0 c 0,3.975 -3.221,7.198 -7.196,7.198 l 0,0 c -3.975,0 -7.196,-3.223 -7.196,-7.198"
               id="path230"
               style="fill:url(#radialGradient222);stroke:none" /></g></g></g></g><g
       id="g232"><g
         id="g234"><g
           id="g240"><g
             id="g242"><path
               d="M 12.471,7.196 C 12.471,3.222 15.691,0 19.667,0 l 0,0 c 3.976,0 7.197,3.222 7.197,7.196 l 0,0 c 0,3.975 -3.221,7.198 -7.197,7.198 l 0,0 c -3.976,0 -7.196,-3.223 -7.196,-7.198"
               id="path252"
               style="fill:url(#radialGradient244);stroke:none" /></g></g></g></g></g></svg>