<?xml version="1.0" encoding="utf-8"?>
<!-- Generator: Adobe Illustrator 15.1.0, SVG Export Plug-In . SVG Version: 6.00 Build 0)  -->
<!DOCTYPE svg PUBLIC "-//W3C//DTD SVG 1.1//EN" "http://www.w3.org/Graphics/SVG/1.1/DTD/svg11.dtd">
<svg version="1.1" xmlns="http://www.w3.org/2000/svg" xmlns:xlink="http://www.w3.org/1999/xlink" x="0px" y="0px"
	 width="50.37px" height="26.08px" viewBox="0 0 50.37 26.08" enable-background="new 0 0 50.37 26.08" xml:space="preserve">
<g id="object">
	<g>
		<g>
			<circle cx="3.6" cy="6.444" r="3.6"/>
		</g>
	</g>
	<g>
		<path d="M16.595,9.552v0.743c0,0.708,0.023,1.631,0.155,2.123h-1.379c-0.156-0.359-0.204-1.223-0.204-2.051V4.983
			c0-1.703,0.432-2.447,0.923-2.903c0.432-0.408,1.008-0.684,1.847-0.684c1.38,0,2.255,0.924,2.255,2.147
			c0,0.78-0.42,1.523-1.008,1.823v0.06c0.875,0.192,1.68,1.008,1.68,2.243c0,1.56-1.164,2.507-2.52,2.507
			c-0.719,0-1.283-0.204-1.727-0.624H16.595z M16.595,8.293c0.275,0.395,0.768,0.768,1.402,0.768c0.863,0,1.379-0.648,1.379-1.428
			c0-0.983-0.684-1.487-1.559-1.535c-0.096-0.012-0.191,0-0.287,0V5.15c0.071,0,0.131,0,0.203-0.024
			c0.732-0.084,1.127-0.684,1.127-1.355c0-0.731-0.419-1.224-1.031-1.224c-0.779,0-1.234,0.66-1.234,2.195V8.293z"/>
		<path d="M24.826,6.338v1.02h-3.059v-1.02H24.826z"/>
	</g>
</g>
<g id="circles">
	<g id="Shape">
		<g>
			<circle fill="none" cx="3.6" cy="6.444" r="3.6"/>
		</g>
		<g>
			<path fill="none" d="M16.595,9.552v0.743c0,0.708,0.023,1.631,0.155,2.123h-1.379c-0.156-0.359-0.204-1.223-0.204-2.051V4.983
				c0-1.703,0.432-2.447,0.923-2.903c0.432-0.408,1.008-0.684,1.847-0.684c1.38,0,2.255,0.924,2.255,2.147
				c0,0.78-0.42,1.523-1.008,1.823v0.06c0.875,0.192,1.68,1.008,1.68,2.243c0,1.56-1.164,2.507-2.52,2.507
				c-0.719,0-1.283-0.204-1.727-0.624H16.595z M16.595,8.293c0.275,0.395,0.768,0.768,1.402,0.768c0.863,0,1.379-0.648,1.379-1.428
				c0-0.983-0.684-1.487-1.559-1.535c-0.096-0.012-0.191,0-0.287,0V5.15c0.071,0,0.131,0,0.203-0.024
				c0.732-0.084,1.127-0.684,1.127-1.355c0-0.731-0.419-1.224-1.031-1.224c-0.779,0-1.234,0.66-1.234,2.195V8.293z"/>
			<path fill="none" d="M24.826,6.338v1.02h-3.059v-1.02H24.826z"/>
		</g>
	</g>
</g>
</svg>
