<?xml version="1.0" encoding="utf-8"?>
<!-- Generator: Adobe Illustrator 15.0.2, SVG Export Plug-In . SVG Version: 6.00 Build 0)  -->
<!DOCTYPE svg PUBLIC "-//W3C//DTD SVG 1.1//EN" "http://www.w3.org/Graphics/SVG/1.1/DTD/svg11.dtd">
<svg version="1.1" xmlns="http://www.w3.org/2000/svg" xmlns:xlink="http://www.w3.org/1999/xlink" x="0px" y="0px" width="75.01px"
	 height="76.881px" viewBox="0 0 75.01 76.881" enable-background="new 0 0 75.01 76.881" xml:space="preserve">
<g id="object">
	<g>
		<path fill="#B1B1B1" d="M28.713,49.169c2.274,3.455,5.595,6.06,9.394,7.501c-0.35,3.773,0.446,7.618,2.375,10.959
			c3.295,5.707,9.438,9.252,16.033,9.252c3.232,0,6.427-0.858,9.238-2.481c4.279-2.47,7.34-6.46,8.619-11.233
			c1.278-4.773,0.623-9.759-1.848-14.038c-1.924-3.333-4.848-5.94-8.281-7.525c0.169-1.032,0.26-2.081,0.26-3.144
			c0-1.062-0.091-2.11-0.26-3.143c3.434-1.584,6.357-4.192,8.281-7.525c2.471-4.279,3.126-9.265,1.849-14.037
			c-1.278-4.773-4.34-8.764-8.619-11.234c-2.811-1.623-6.005-2.48-9.237-2.481c-0.001,0-0.001,0-0.001,0
			c-6.595,0-12.739,3.545-16.034,9.252c-1.928,3.339-2.725,7.184-2.374,10.957c-3.799,1.441-7.12,4.047-9.395,7.502l-0.824,1.251
			v18.915L28.713,49.169z"/>
		<path fill="#2F2F2F" stroke="#000000" stroke-miterlimit="10" d="M32.889,46.419c2.449,3.719,6.562,6.23,11.281,6.499
			l13.775-7.949c0.987-1.959,1.557-4.166,1.557-6.51s-0.569-4.55-1.557-6.509l-13.775-7.949c-4.719,0.269-8.833,2.779-11.282,6.499
			V46.419z"/>
		<path fill="#FF0000" stroke="#000000" stroke-miterlimit="10" d="M44.17,52.918c-1.682,3.806-1.6,8.33,0.641,12.211
			c3.728,6.455,11.983,8.669,18.441,4.94c6.457-3.728,8.668-11.985,4.941-18.441c-2.239-3.878-6.113-6.21-10.248-6.659
			C57.946,44.969,44.447,52.934,44.17,52.918z"/>
		<path fill="#FF0000" stroke="#000000" stroke-miterlimit="10" d="M57.946,31.951c4.135-0.449,8.009-2.781,10.248-6.659
			c3.728-6.456,1.517-14.713-4.941-18.441c-6.456-3.729-14.713-1.516-18.441,4.941c-2.24,3.88-2.322,8.403-0.641,12.21
			L57.946,31.951z"/>
		<path fill="#FF0000" stroke="#000000" stroke-miterlimit="10" d="M22.827,51.918c4.134-0.25,7.758-2.354,10.062-5.499V30.5
			c-2.457-3.354-6.412-5.541-10.887-5.541c-7.457,0-13.5,6.045-13.5,13.5c0,2.165,0.522,4.203,1.427,6.016L22.827,51.918z"/>
		<path fill="#FFFFFF" stroke="#000000" stroke-miterlimit="10" d="M6.252,65.738c5.5,3.176,12.534,1.291,15.709-4.209
			c1.755-3.039,1.958-6.545,0.866-9.611L9.929,44.476c-3.2,0.588-6.132,2.516-7.886,5.554C-1.133,55.529,0.751,62.562,6.252,65.738z
			"/>
	</g>
</g>
<g id="circles">
	<circle id="Oxygen-Ion_2_" fill="none" cx="56.515" cy="58.385" r="18.495"/>
	<circle id="Oxygen-Ion_1_" fill="none" cx="56.515" cy="18.495" r="18.495"/>
	<circle id="Oxygen-Ion" fill="none" cx="22.002" cy="38.439" r="13.48"/>
	<circle id="Carbon-Ion" fill="none" cx="44.977" cy="38.439" r="19.526"/>
	<circle id="Hydrogen" fill="none" cx="11.999" cy="55.879" r="11.403"/>
</g>
</svg>
