<?xml version="1.0" encoding="utf-8"?>
<!-- Generator: Adobe Illustrator 15.0.2, SVG Export Plug-In . SVG Version: 6.00 Build 0)  -->
<!DOCTYPE svg PUBLIC "-//W3C//DTD SVG 1.1//EN" "http://www.w3.org/Graphics/SVG/1.1/DTD/svg11.dtd">
<svg version="1.1" xmlns="http://www.w3.org/2000/svg" xmlns:xlink="http://www.w3.org/1999/xlink" x="0px" y="0px"
	 width="86.258px" height="89.945px" viewBox="0 0 86.258 89.945" enable-background="new 0 0 86.258 89.945" xml:space="preserve">
<g id="object">
	<path fill="#B1B1B1" d="M82.78,56.737c0.357-1.56,0.538-3.145,0.538-4.737c0-10.856-8.088-19.859-18.556-21.299
		c1.337-2.821,2.056-5.949,2.056-9.201c0-11.855-9.645-21.5-21.5-21.5c-11.855,0-21.5,9.645-21.5,21.5
		c0,5.312,1.918,10.292,5.314,14.149c-1.481,1.801-2.656,3.838-3.471,6.022c-5.049-1.005-10.423-0.131-14.909,2.458
		C0.486,50.058-3.044,63.232,2.883,73.5c3.83,6.633,10.97,10.753,18.635,10.753c3.755,0,7.468-0.997,10.735-2.884
		c4.596-2.654,7.947-6.8,9.592-11.663c0.488,0.083,0.979,0.148,1.471,0.196c0.331,5.122,2.495,9.994,6.247,13.745
		c4.061,4.062,9.46,6.298,15.203,6.298c5.742,0,11.141-2.236,15.201-6.297C87.184,76.433,88.21,65.103,82.78,56.737z"/>
	<circle fill="#00FF00" stroke="#000000" stroke-miterlimit="10" cx="61.818" cy="52" r="16.5"/>
	<g>
		<g>
			<path fill="#FF00FF" stroke="#000000" stroke-miterlimit="10" d="M45.318,33c-8.585,0-15.572,6.768-15.962,15.257l0,0
				l8.625,14.951C40.18,64.346,42.671,65,45.318,65c8.836,0,16-7.164,16-16C61.318,40.164,54.154,33,45.318,33z"/>
			<path fill="#00FF00" stroke="#000000" stroke-miterlimit="10" d="M29.356,48.257c-4.874-2.635-10.953-2.771-16.103,0.203
				C5.36,53.017,2.657,63.107,7.213,71c4.557,7.892,14.647,10.596,22.54,6.039c5.146-2.972,8.068-8.298,8.228-13.831l0,0
				L29.356,48.257z"/>
		</g>
		<path fill="#00FF00" stroke="#000000" stroke-miterlimit="10" d="M76.432,56.777c-4.201-4.201-10.101-5.645-15.486-4.367
			c-2.874,0.682-11.533,9.342-12.215,12.217c-1.277,5.386,0.166,11.284,4.367,15.485c6.444,6.444,16.891,6.444,23.334,0.001
			C82.877,73.668,82.877,63.223,76.432,56.777z"/>
		<path fill="#00FF00" stroke="#000000" stroke-miterlimit="10" d="M45.318,5c-9.113,0-16.5,7.387-16.5,16.5
			c0,5.943,3.153,11.138,7.868,14.042c2.514,1.548,14.751,1.548,17.265,0c4.714-2.905,7.867-8.099,7.867-14.042
			C61.818,12.387,54.432,5,45.318,5z"/>
	</g>
</g>
<g id="circles">
	<circle id="Chlorine-Ion_3_" fill="none" cx="45.26" cy="21.545" r="21.545"/>
	<circle id="Chlorine-Ion_2_" fill="none" cx="61.819" cy="51.961" r="21.545"/>
	<circle id="Chlorine-Ion_1_" fill="none" cx="64.774" cy="68.453" r="21.545"/>
	<circle id="Chlorine-Ion" fill="none" cx="21.49" cy="62.754" r="21.545"/>
	<circle id="Boron-Ion" fill="none" cx="45.336" cy="49" r="20.984"/>
</g>
</svg>
