<?xml version="1.0" encoding="utf-8"?>
<!-- Generator: Adobe Illustrator 15.0.2, SVG Export Plug-In . SVG Version: 6.00 Build 0)  -->
<!DOCTYPE svg PUBLIC "-//W3C//DTD SVG 1.1//EN" "http://www.w3.org/Graphics/SVG/1.1/DTD/svg11.dtd">
<svg version="1.1" xmlns="http://www.w3.org/2000/svg" xmlns:xlink="http://www.w3.org/1999/xlink" x="0px" y="0px"
	 width="77.266px" height="52.946px" viewBox="0 0 77.266 52.946" enable-background="new 0 0 77.266 52.946" xml:space="preserve">
<g id="object">
	<circle fill="#00FF00" stroke="#000000" stroke-miterlimit="10" cx="57.318" cy="19.5" r="16.5"/>
	<g>
		<g>
			<path fill="#FF00FF" stroke="#000000" stroke-miterlimit="10" d="M40.818,0.5c-8.585,0-15.572,6.768-15.962,15.257l0,0
				l8.625,14.951c2.199,1.138,4.69,1.792,7.338,1.792c8.836,0,16-7.164,16-16C56.818,7.664,49.654,0.5,40.818,0.5z"/>
			<path fill="#00FF00" stroke="#000000" stroke-miterlimit="10" d="M24.856,15.757c-4.874-2.635-10.953-2.771-16.103,0.203
				C0.86,20.517-1.843,30.607,2.713,38.5c4.557,7.892,14.647,10.596,22.54,6.039c5.146-2.972,8.068-8.298,8.228-13.831l0,0
				L24.856,15.757z"/>
		</g>
		<path fill="#00FF00" stroke="#000000" stroke-miterlimit="10" d="M71.932,24.277c-4.201-4.201-10.101-5.645-15.486-4.367
			c-2.874,0.682-11.533,9.342-12.215,12.217c-1.277,5.386,0.166,11.284,4.367,15.485c6.444,6.444,16.891,6.444,23.334,0.001
			C78.377,41.168,78.377,30.723,71.932,24.277z"/>
	</g>
</g>
<g id="circles">
	<circle id="Chlorine_2_" fill="none" cx="16.999" cy="30.254" r="16.499"/>
	<circle id="Chlorine_1_" fill="none" cx="60.273" cy="36" r="16.499"/>
	<circle id="Chlorine" fill="none" cx="57.318" cy="19.501" r="16.499"/>
	<circle id="Boron" fill="none" cx="40.837" cy="16.5" r="16"/>
</g>
</svg>
