<?xml version="1.0" encoding="utf-8"?>
<!-- Generator: Adobe Illustrator 15.0.2, SVG Export Plug-In . SVG Version: 6.00 Build 0)  -->
<!DOCTYPE svg PUBLIC "-//W3C//DTD SVG 1.1//EN" "http://www.w3.org/Graphics/SVG/1.1/DTD/svg11.dtd">
<svg version="1.1" xmlns="http://www.w3.org/2000/svg" xmlns:xlink="http://www.w3.org/1999/xlink" x="0px" y="0px"
	 width="121.45px" height="78.42px" viewBox="0 0 121.45 78.42" enable-background="new 0 0 121.45 78.42" xml:space="preserve">
<g id="object">
	<circle fill="#FFFFFF" stroke="#000000" stroke-miterlimit="10" cx="104.509" cy="25.539" r="11.5"/>
	<circle fill="#FFFFFF" stroke="#000000" stroke-miterlimit="10" cx="16" cy="52.008" r="11.5"/>
	<path fill="#2F2F2F" stroke="#000000" stroke-miterlimit="10" d="M35.826,32.458c-4.178-2.02-9.251-2.005-13.573,0.491
		c-6.936,4.004-9.312,12.873-5.309,19.807c4.004,6.936,12.872,9.312,19.809,5.309c4.322-2.495,6.872-6.881,7.211-11.51
		L35.826,32.458z"/>
	<path fill="#2F2F2F" stroke="#000000" stroke-miterlimit="10" d="M64.737,32.484c-0.149-2.128-0.755-4.257-1.894-6.229
		c-4.003-6.933-12.872-9.31-19.807-5.306c-4.322,2.495-6.871,6.881-7.211,11.509l8.138,14.096c3.89,1.88,8.549,1.982,12.661-0.022
		L64.737,32.484z"/>
	<path fill="#2F2F2F" stroke="#000000" stroke-miterlimit="10" d="M77.397,32.46c-3.889-1.88-8.548-1.981-12.66,0.024l-8.112,14.048
		c0.148,2.127,0.754,4.254,1.892,6.226c4.005,6.936,12.873,9.312,19.809,5.309c4.322-2.495,6.872-6.881,7.211-11.51L77.397,32.46z"
		/>
	<path fill="#2F2F2F" stroke="#000000" stroke-miterlimit="10" d="M104.417,26.258c-4.004-6.934-12.873-9.311-19.807-5.307
		c-4.322,2.496-6.873,6.881-7.213,11.509l8.139,14.096c4.179,2.02,9.252,2.005,13.574-0.491
		C106.044,42.062,108.421,33.193,104.417,26.258z"/>
	<path fill="#FFFFFF" stroke="#000000" stroke-miterlimit="10" d="M37.071,57.854c-2.039-1.841-13.27-1.876-15.297-0.084
		c-2.385,2.107-3.897,5.18-3.897,8.612c0,6.352,5.148,11.501,11.5,11.501s11.5-5.149,11.5-11.501
		C40.876,62.994,39.402,59.958,37.071,57.854z"/>
	<path fill="#FFFFFF" stroke="#000000" stroke-miterlimit="10" d="M49.283,0.571c-6.351,0.123-11.398,5.371-11.274,11.721
		c0.067,3.476,1.676,6.555,4.156,8.616c2.049,1.704,13.05,1.485,15.033-0.303c2.39-2.156,3.874-5.29,3.807-8.76
		C60.88,5.495,55.633,0.447,49.283,0.571z"/>
	<path fill="#FFFFFF" stroke="#000000" stroke-miterlimit="10" d="M71.085,77.916c6.35-0.156,11.37-5.43,11.214-11.779
		c-0.085-3.477-1.711-6.547-4.2-8.594c-2.058-1.693-13.059-1.42-15.032,0.379c-2.379,2.17-3.847,5.311-3.761,8.781
		C59.462,73.053,64.736,78.072,71.085,77.916z"/>
	<path fill="#FFFFFF" stroke="#000000" stroke-miterlimit="10" d="M23.441,32.341C22.664,26.561,17.958,22.008,12,22.008
		c-6.352,0-11.5,5.149-11.5,11.5c0,6.352,5.148,11.501,11.5,11.501c1.052,0,2.065-0.154,3.034-0.418
		C17.258,43.985,23.841,35.319,23.441,32.341z"/>
	<path fill="#FFFFFF" stroke="#000000" stroke-miterlimit="10" d="M91.859,0.5c-6.352,0-11.5,5.149-11.5,11.501
		c0,3.611,1.668,6.831,4.272,8.939c1.976,1.599,12.472,1.602,14.446,0.006c2.609-2.108,4.281-5.33,4.281-8.946
		C103.359,5.649,98.211,0.5,91.859,0.5z"/>
	<path fill="#FFFFFF" stroke="#000000" stroke-miterlimit="10" d="M109.45,33.374c-1.079,0-2.12,0.151-3.108,0.437
		c-2.334,0.674-8.667,10.091-8.249,12.785c0.857,5.527,5.593,9.779,11.357,9.779c6.352,0,11.5-5.149,11.5-11.5
		C120.95,38.523,115.802,33.374,109.45,33.374z"/>
</g>
<g id="circles">
	<circle id="Hydrogen_6_" fill="none" cx="11.934" cy="33.575" r="11.434"/>
	<circle id="Hydrogen_5_" fill="none" cx="49.507" cy="12.002" r="11.434"/>
	<circle id="Hydrogen_7_" fill="none" cx="91.88" cy="12.002" r="11.434"/>
	<circle id="Hydrogen_4_" fill="none" cx="104.509" cy="25.538" r="11.434"/>
	<circle id="Hydrogen_3_" fill="none" cx="109.512" cy="44.875" r="11.434"/>
	<circle id="Hydrogen_2_" fill="none" cx="70.802" cy="66.449" r="11.434"/>
	<circle id="Hydrogen_1_" fill="none" cx="29.482" cy="66.449" r="11.434"/>
	<circle id="Hydrogen" fill="none" cx="16" cy="52.009" r="11.434"/>
	<circle id="Carbon_3_" fill="none" cx="70.802" cy="45.508" r="14.503"/>
	<circle id="Carbon_2_" fill="none" cx="91.88" cy="33.575" r="14.503"/>
	<circle id="Carbon_1_" fill="none" cx="29.482" cy="45.507" r="14.503"/>
	<circle id="Carbon" fill="none" cx="50.281" cy="33.374" r="14.503"/>
</g>
</svg>
