<?xml version="1.0" encoding="utf-8"?>
<!-- Generator: Adobe Illustrator 15.0.2, SVG Export Plug-In . SVG Version: 6.00 Build 0)  -->
<!DOCTYPE svg PUBLIC "-//W3C//DTD SVG 1.1//EN" "http://www.w3.org/Graphics/SVG/1.1/DTD/svg11.dtd">
<svg version="1.1" xmlns="http://www.w3.org/2000/svg" xmlns:xlink="http://www.w3.org/1999/xlink" x="0px" y="0px"
	 width="144.025px" height="58.008px" viewBox="0 0 144.025 58.008" enable-background="new 0 0 144.025 58.008"
	 xml:space="preserve">
<g id="object">
	<path fill="#B1B1B1" d="M141.142,18.254c-3.829-6.633-10.969-10.753-18.635-10.753c-3.756,0-7.469,0.997-10.735,2.883
		c-4.974,2.872-8.531,7.508-10.018,13.055c-1.486,5.547-0.723,11.341,2.148,16.314c3.829,6.633,10.97,10.753,18.634,10.753
		c3.756,0,7.468-0.997,10.735-2.884C143.538,41.695,147.069,28.521,141.142,18.254z"/>
	<path fill="#B1B1B1" d="M42.264,23.44c-1.486-5.548-5.044-10.184-10.018-13.056c-3.267-1.886-6.979-2.883-10.733-2.883h-0.002
		c-7.665,0-14.805,4.121-18.634,10.752c-5.928,10.267-2.397,23.443,7.869,29.37c3.268,1.887,6.979,2.884,10.735,2.884
		c7.665,0,14.805-4.12,18.634-10.753C42.987,34.781,43.75,28.987,42.264,23.44z"/>
	<path fill="#B1B1B1" d="M97.133,14.504C91.968,5.558,82.337,0,71.997,0h-0.001c-5.064,0-10.071,1.345-14.478,3.889
		C50.81,7.762,46.012,14.016,44.007,21.498c-2.005,7.482-0.976,15.298,2.897,22.006c5.165,8.946,14.797,14.504,25.138,14.504
		c5.063,0,10.069-1.345,14.477-3.889C100.366,46.124,105.128,28.353,97.133,14.504z"/>
	<circle fill="#00FF00" stroke="#000000" stroke-miterlimit="10" cx="122.522" cy="29.004" r="16.5"/>
	<circle fill="#00FF00" stroke="#000000" stroke-miterlimit="10" cx="21.496" cy="29.004" r="16.5"/>
	<circle fill="#FFFFA9" stroke="#000000" stroke-miterlimit="10" cx="72.019" cy="29.004" r="24"/>
</g>
<g id="circles">
	<circle id="Chloride-Ion_1_" fill="none" cx="21.503" cy="29.004" r="21.503"/>
	<circle id="Chloride-Ion" fill="none" cx="122.522" cy="29.004" r="21.503"/>
	<circle id="Calcium-Ion" fill="none" cx="72.019" cy="29.004" r="29.004"/>
</g>
</svg>
