<?xml version="1.0" encoding="utf-8"?>
<!-- Generator: Adobe Illustrator 15.0.2, SVG Export Plug-In . SVG Version: 6.00 Build 0)  -->
<!DOCTYPE svg PUBLIC "-//W3C//DTD SVG 1.1//EN" "http://www.w3.org/Graphics/SVG/1.1/DTD/svg11.dtd">
<svg version="1.1" xmlns="http://www.w3.org/2000/svg" xmlns:xlink="http://www.w3.org/1999/xlink" x="0px" y="0px"
	 width="71.509px" height="76.842px" viewBox="0 0 71.509 76.842" enable-background="new 0 0 71.509 76.842" xml:space="preserve">
<g id="object">
	<path fill="#B1B1B1" d="M53.003,19.913c-3.855,0.001-7.586,1.227-10.678,3.417c-1.627-1.323-3.458-2.378-5.418-3.123
		c0.349-3.772-0.455-7.616-2.383-10.955C31.229,3.545,25.086,0,18.491,0c-3.232,0-6.427,0.858-9.238,2.481
		c-4.279,2.47-7.34,6.46-8.62,11.234c-1.278,4.773-0.622,9.758,1.848,14.038c1.923,3.332,4.841,5.946,8.274,7.53
		c-0.168,1.03-0.253,2.078-0.253,3.138c0,1.06,0.084,2.107,0.253,3.137c-3.433,1.584-6.351,4.199-8.275,7.531
		c-2.471,4.279-3.127,9.265-1.849,14.037c1.279,4.773,4.34,8.764,8.62,11.234c2.811,1.623,6.005,2.48,9.237,2.481
		c0,0,0.001,0,0.001,0c6.595,0,12.739-3.546,16.034-9.253c1.928-3.339,2.732-7.182,2.382-10.954c1.964-0.747,3.8-1.805,5.43-3.132
		c3.092,2.188,6.823,3.411,10.68,3.411c10.2-0.005,18.497-8.308,18.494-18.508C71.506,28.209,63.207,19.913,53.003,19.913z"/>
	<g>
		<path fill="#2F2F2F" stroke="#000000" stroke-miterlimit="10" d="M42.116,30.461c-2.449-3.719-6.562-6.23-11.281-6.499
			l-13.776,7.949c-0.987,1.959-1.556,4.166-1.556,6.51s0.569,4.55,1.556,6.509l13.775,7.949c4.719-0.269,8.833-2.779,11.282-6.499
			V30.461z"/>
		<path fill="#FF0000" stroke="#000000" stroke-miterlimit="10" d="M30.835,23.962c1.682-3.806,1.6-8.33-0.641-12.21
			c-3.728-6.456-11.983-8.669-18.441-4.941c-6.457,3.728-8.668,11.985-4.941,18.441c2.239,3.878,6.113,6.21,10.248,6.659
			C17.059,31.911,30.558,23.947,30.835,23.962z"/>
		<path fill="#FF0000" stroke="#000000" stroke-miterlimit="10" d="M42.116,46.366c2.457,3.358,6.416,5.549,10.897,5.548
			c7.456-0.004,13.498-6.049,13.496-13.507c-0.002-7.454-6.05-13.497-13.505-13.494c-4.477,0.001-8.434,2.19-10.889,5.548
			C42.116,30.461,42.269,46.134,42.116,46.366z"/>
		<path fill="#FF0000" stroke="#000000" stroke-miterlimit="10" d="M17.059,44.93c-4.135,0.449-8.009,2.781-10.248,6.659
			c-3.728,6.456-1.517,14.713,4.941,18.441c6.457,3.729,14.714,1.516,18.441-4.941c2.24-3.88,2.322-8.403,0.641-12.21L17.059,44.93z
			"/>
	</g>
</g>
<g id="circles">
	<circle id="Oxygen-Ion_2_" fill="none" cx="18.454" cy="18.454" r="18.454"/>
	<circle id="Oxygen-Ion_1_" fill="none" cx="18.454" cy="58.385" r="18.454"/>
	<circle id="Oxygen-Ion" fill="none" cx="53.056" cy="38.42" r="18.454"/>
	<circle id="Carbon-Ion" fill="none" cx="29.907" cy="38.421" r="19.486"/>
</g>
</svg>
