<?xml version="1.0" encoding="utf-8"?>
<!-- Generator: Adobe Illustrator 15.0.2, SVG Export Plug-In . SVG Version: 6.00 Build 0)  -->
<!DOCTYPE svg PUBLIC "-//W3C//DTD SVG 1.1//EN" "http://www.w3.org/Graphics/SVG/1.1/DTD/svg11.dtd">
<svg version="1.1" xmlns="http://www.w3.org/2000/svg" xmlns:xlink="http://www.w3.org/1999/xlink" x="0px" y="0px"
	 width="98.476px" height="62.504px" viewBox="0 0 98.476 62.504" enable-background="new 0 0 98.476 62.504" xml:space="preserve">
<g id="object">
	<g>
		<path fill="#2F2F2F" stroke="#000000" stroke-miterlimit="10" d="M63.705,36.163c-0.261-4.445-2.568-8.677-6.52-11.269
			L41.28,24.891c-1.835,1.203-3.431,2.829-4.603,4.859c-1.172,2.029-1.782,4.225-1.906,6.414l7.955,13.772
			c4.221,2.127,9.039,2.01,13.02,0.013L63.705,36.163z"/>
		<path fill="#FF0000" stroke="#000000" stroke-miterlimit="10" d="M57.185,24.895c3.359-2.455,5.55-6.414,5.55-10.895
			c0-7.455-6.043-13.5-13.5-13.5c-7.456,0-13.5,6.045-13.5,13.5c0,4.478,2.188,8.435,5.545,10.891
			C41.28,24.891,56.952,24.742,57.185,24.895z"/>
		<path fill="#FF0000" stroke="#000000" stroke-miterlimit="10" d="M75.168,36.432c-3.706-1.85-7.896-1.841-11.464-0.269
			l-7.959,13.786c0.451,4.133,2.782,8.004,6.658,10.242c6.458,3.729,14.714,1.516,18.442-4.941c1.082-1.875,1.649-3.9,1.772-5.924
			L75.168,36.432z"/>
		<path fill="#FFFFFF" stroke="#000000" stroke-miterlimit="10" d="M96.433,32.75c-3.176-5.5-10.209-7.385-15.709-4.209
			c-3.04,1.755-4.968,4.689-5.555,7.891l7.449,12.895c3.065,1.09,6.568,0.887,9.606-0.867C97.724,45.284,99.608,38.251,96.433,32.75
			z"/>
		<path fill="#FF0000" stroke="#000000" stroke-miterlimit="10" d="M23.307,36.433c3.706-1.85,7.896-1.841,11.464-0.269L42.73,49.95
			c-0.451,4.133-2.782,8.004-6.658,10.242c-6.458,3.729-14.714,1.516-18.442-4.941c-1.082-1.875-1.649-3.9-1.772-5.924
			L23.307,36.433z"/>
		<path fill="#FFFFFF" stroke="#000000" stroke-miterlimit="10" d="M2.042,32.751c3.176-5.5,10.209-7.385,15.709-4.209
			c3.04,1.755,4.968,4.689,5.555,7.891l-7.449,12.895c-3.065,1.09-6.568,0.887-9.606-0.867C0.751,45.285-1.133,38.252,2.042,32.751z
			"/>
	</g>
</g>
<g id="circles">
	<circle id="Oxygen_2_" fill="none" cx="29.294" cy="48.508" r="13.5"/>
	<circle id="Oxygen_1_" fill="none" cx="69.181" cy="48.508" r="13.5"/>
	<circle id="Oxygen" fill="none" cx="49.234" cy="14" r="13.5"/>
	<circle id="Carbon" fill="none" cx="49.172" cy="37.145" r="14.345"/>
	<circle id="Hydrogen_1_" fill="none" cx="86.572" cy="38.499" r="11.499"/>
	<circle id="Hydrogen" fill="none" cx="11.903" cy="38.499" r="11.499"/>
</g>
</svg>
