<?xml version="1.0" encoding="utf-8"?>
<!-- Generator: Adobe Illustrator 15.0.2, SVG Export Plug-In . SVG Version: 6.00 Build 0)  -->
<!DOCTYPE svg PUBLIC "-//W3C//DTD SVG 1.1//EN" "http://www.w3.org/Graphics/SVG/1.1/DTD/svg11.dtd">
<svg version="1.1" xmlns="http://www.w3.org/2000/svg" xmlns:xlink="http://www.w3.org/1999/xlink" x="0px" y="0px" width="51px"
	 height="51px" viewBox="0 0 51 51" enable-background="new 0 0 51 51" xml:space="preserve">
<g id="object">
	<g>
		<circle fill="#009345" cx="25.5" cy="25.5" r="25"/>
	</g>
	<g>
		<g>
			<path fill="#FFFFFF" d="M25.5,0.5c-6.2,0-11.869,2.262-16.238,6h32.477C37.37,2.762,31.701,0.5,25.5,0.5z"/>
		</g>
		<g>
			<path fill="#FFFFFF" d="M3.048,36.5h44.904c1.067-2.175,1.828-4.526,2.226-7H0.822C1.221,31.974,1.98,34.325,3.048,36.5z"/>
		</g>
		<g>
			<path fill="#FFFFFF" d="M25.5,50.5c6.201,0,11.87-2.263,16.238-6H9.262C13.631,48.237,19.3,50.5,25.5,50.5z"/>
		</g>
		<g>
			<path fill="#FFFFFF" d="M3.048,14.5c-1.067,2.175-1.827,4.526-2.226,7h49.355c-0.398-2.474-1.158-4.825-2.226-7H3.048z"/>
		</g>
	</g>
	<circle fill="none" stroke="#231F20" stroke-miterlimit="10" cx="25.5" cy="25.5" r="25"/>
</g>
<g id="circles">
	<circle id="Catalyst" fill="none" cx="25.5" cy="25.5" r="25"/>
</g>
</svg>
