<?xml version="1.0" encoding="utf-8"?>
<!-- Generator: Adobe Illustrator 15.0.2, SVG Export Plug-In . SVG Version: 6.00 Build 0)  -->
<!DOCTYPE svg PUBLIC "-//W3C//DTD SVG 1.1//EN" "http://www.w3.org/Graphics/SVG/1.1/DTD/svg11.dtd">
<svg version="1.1" xmlns="http://www.w3.org/2000/svg" xmlns:xlink="http://www.w3.org/1999/xlink" x="0px" y="0px" width="59px"
	 height="34px" viewBox="0 0 59 34" enable-background="new 0 0 59 34" xml:space="preserve">
<g id="object">
	<g>
		<path fill="#00FF00" stroke="#000000" stroke-miterlimit="10" d="M29.5,6.249C26.475,2.734,22.002,0.5,17,0.5
			C7.887,0.5,0.5,7.887,0.5,17c0,9.113,7.387,16.5,16.5,16.5c5.002,0,9.475-2.234,12.5-5.748V6.249z"/>
		<path fill="#00FF00" stroke="#000000" stroke-miterlimit="10" d="M42,0.5c-5.002,0-9.475,2.234-12.5,5.749v21.503
			C32.525,31.266,36.998,33.5,42,33.5c9.113,0,16.5-7.387,16.5-16.5C58.5,7.887,51.113,0.5,42,0.5z"/>
	</g>
</g>
<g id="circles">
	<circle id="Chlorine_1_" fill="none" cx="17" cy="17" r="16.5"/>
	<circle id="Chlorine" fill="none" cx="42" cy="17" r="16.5"/>
</g>
</svg>
