<?xml version="1.0" encoding="utf-8"?>
<!-- Generator: Adobe Illustrator 15.0.2, SVG Export Plug-In . SVG Version: 6.00 Build 0)  -->
<!DOCTYPE svg PUBLIC "-//W3C//DTD SVG 1.1//EN" "http://www.w3.org/Graphics/SVG/1.1/DTD/svg11.dtd">
<svg version="1.1" xmlns="http://www.w3.org/2000/svg" xmlns:xlink="http://www.w3.org/1999/xlink" x="0px" y="0px"
	 width="148.418px" height="73.003px" viewBox="0 0 148.418 73.003" enable-background="new 0 0 148.418 73.003"
	 xml:space="preserve">
<g id="object">
	<path fill="#B1B1B1" d="M139.172,38.479c-2.811-1.623-6.005-2.48-9.235-2.48h-0.002c-6.596,0-12.739,3.546-16.034,9.252
		c-5.101,8.833-2.062,20.17,6.771,25.271c2.812,1.623,6.006,2.481,9.238,2.481c6.595,0,12.738-3.545,16.033-9.253
		C151.044,54.917,148.006,43.58,139.172,38.479z"/>
	<path fill="#B1B1B1" d="M74.196,35.998c-3.232,0-6.427,0.858-9.237,2.481c-8.834,5.101-11.872,16.437-6.771,25.271
		c3.295,5.707,9.438,9.252,16.033,9.252c3.232,0,6.427-0.858,9.238-2.481c4.279-2.471,7.341-6.46,8.62-11.233
		s0.622-9.758-1.849-14.038C86.936,39.543,80.792,35.998,74.196,35.998z"/>
	<path fill="#B1B1B1" d="M18.483,35.998c-3.232,0-6.427,0.858-9.237,2.481C0.412,43.579-2.626,54.916,2.475,63.75
		c3.295,5.707,9.438,9.252,16.033,9.252c3.232,0,6.427-0.858,9.238-2.481c4.279-2.471,7.341-6.46,8.62-11.233
		s0.622-9.758-1.849-14.038C31.223,39.543,25.079,35.998,18.483,35.998z"/>
	<path fill="#B1B1B1" d="M69.709,23.5c0-12.958-10.542-23.5-23.5-23.5s-23.5,10.542-23.5,23.5S33.251,47,46.209,47
		S69.709,36.458,69.709,23.5z"/>
	<circle fill="#FF0000" stroke="#000000" stroke-miterlimit="10" cx="129.922" cy="54.5" r="13.5"/>
	<circle fill="#FF0000" stroke="#000000" stroke-miterlimit="10" cx="74.209" cy="54.5" r="13.5"/>
	<circle fill="#FF0000" stroke="#000000" stroke-miterlimit="10" cx="18.496" cy="54.5" r="13.5"/>
	<circle fill="#A95555" stroke="#000000" stroke-miterlimit="10" cx="46.209" cy="23.5" r="18.5"/>
	<path fill="#B1B1B1" d="M125.709,23.5c0-12.958-10.542-23.5-23.5-23.5s-23.5,10.542-23.5,23.5S89.251,47,102.209,47
		S125.709,36.458,125.709,23.5z"/>
	<circle fill="#A95555" stroke="#000000" stroke-miterlimit="10" cx="102.209" cy="23.5" r="18.5"/>
</g>
<g id="circles">
	<circle id="Oxygen-Ion_2_" fill="none" cx="18.352" cy="54.651" r="18.352"/>
	<circle id="Oxygen-Ion_1_" fill="none" cx="74.209" cy="54.651" r="18.352"/>
	<circle id="Oxygen-Ion" fill="none" cx="129.921" cy="54.651" r="18.352"/>
	<circle id="Chromium-Ion_1_" fill="none" cx="102.209" cy="23.5" r="23.495"/>
	<circle id="Chromium-Ion" fill="none" cx="46.209" cy="23.5" r="23.495"/>
</g>
</svg>
