<?xml version="1.0" encoding="utf-8"?>
<!-- Generator: Adobe Illustrator 15.0.2, SVG Export Plug-In . SVG Version: 6.00 Build 0)  -->
<!DOCTYPE svg PUBLIC "-//W3C//DTD SVG 1.1//EN" "http://www.w3.org/Graphics/SVG/1.1/DTD/svg11.dtd">
<svg version="1.1" xmlns="http://www.w3.org/2000/svg" xmlns:xlink="http://www.w3.org/1999/xlink" x="0px" y="0px"
	 width="167.512px" height="74.362px" viewBox="0 0 167.512 74.362" enable-background="new 0 0 167.512 74.362"
	 xml:space="preserve">
<g id="object">
	<path fill="#B1B1B1" d="M57.92,38.815c0.046-0.523,0.08-1.049,0.08-1.58c0-0.534-0.034-1.063-0.081-1.59
		c3.676-1.547,6.808-4.256,8.849-7.789c5.101-8.834,2.062-20.171-6.771-25.272c-2.812-1.623-6.006-2.481-9.238-2.481
		c-6.595,0-12.738,3.546-16.033,9.253c-2.044,3.541-2.823,7.619-2.317,11.585c-0.951,0.445-1.861,0.971-2.722,1.575
		c-3.181-2.418-7.099-3.781-11.186-3.781c-10.201,0-18.5,8.299-18.5,18.5s8.299,18.5,18.5,18.5c4.086,0,8.004-1.362,11.186-3.781
		c0.861,0.604,1.772,1.131,2.724,1.576c-0.503,3.963,0.276,8.037,2.319,11.574c3.294,5.707,9.438,9.253,16.033,9.253
		c3.232,0,6.427-0.858,9.238-2.481c4.279-2.471,7.341-6.46,8.62-11.232c1.279-4.773,0.622-9.759-1.849-14.039
		C64.73,43.071,61.598,40.362,57.92,38.815z"/>
	<path fill="#B1B1B1" d="M149.012,18.73c-4.086,0-8.005,1.363-11.187,3.782c-0.861-0.604-1.772-1.131-2.724-1.576
		c0.504-3.964-0.276-8.038-2.318-11.576c-3.295-5.707-9.438-9.252-16.033-9.252c-3.232,0-6.427,0.858-9.238,2.481
		c-4.279,2.47-7.341,6.459-8.62,11.232c-1.279,4.773-0.622,9.759,1.849,14.039c2.041,3.533,5.174,6.242,8.852,7.789
		c-0.046,0.523-0.08,1.049-0.08,1.58c0,0.534,0.034,1.063,0.081,1.59c-3.676,1.547-6.808,4.256-8.849,7.788
		c-5.101,8.835-2.062,20.172,6.771,25.272c2.812,1.623,6.006,2.481,9.238,2.481c6.595,0,12.738-3.546,16.033-9.253
		c2.044-3.542,2.823-7.619,2.317-11.585c0.95-0.445,1.861-0.972,2.722-1.575c3.181,2.419,7.1,3.781,11.186,3.781
		c10.201,0,18.5-8.299,18.5-18.5S159.213,18.73,149.012,18.73z"/>
	<path fill="#B1B1B1" d="M83.753,17.735c-10.752,0-19.5,8.748-19.5,19.5c0,10.752,8.748,19.5,19.5,19.5s19.5-8.748,19.5-19.5
		C103.253,26.482,94.505,17.735,83.753,17.735z"/>
	<path fill="#0000FF" stroke="#000000" stroke-miterlimit="10" d="M38.526,24.325c-3.672,0.415-6.871,2.362-8.964,5.185v15.45
		c2.092,2.822,5.291,4.771,8.963,5.186l13.396-7.731C52.613,40.826,53,39.077,53,37.235s-0.387-3.591-1.078-5.178L38.526,24.325z"/>
	<path fill="#FF0000" stroke="#000000" stroke-miterlimit="10" d="M38.525,50.145c-1.797,3.856-1.755,8.495,0.534,12.459
		c3.728,6.458,11.984,8.67,18.441,4.941c6.457-3.728,8.67-11.983,4.941-18.441c-2.289-3.963-6.283-6.317-10.52-6.69L38.525,50.145z"
		/>
	<path fill="#FF0000" stroke="#000000" stroke-miterlimit="10" d="M29.562,29.509c-2.44-3.488-6.481-5.774-11.062-5.774
		c-7.458,0-13.5,6.044-13.5,13.5s6.043,13.5,13.5,13.5c4.58,0,8.621-2.287,11.062-5.775V29.509z"/>
	<path fill="#FF0000" stroke="#000000" stroke-miterlimit="10" d="M51.906,32.049c4.24-0.369,8.24-2.727,10.531-6.693
		c3.729-6.458,1.516-14.713-4.941-18.441s-14.713-1.517-18.441,4.941c-2.29,3.967-2.33,8.61-0.529,12.468L51.906,32.049z"/>
	<path fill="#0000FF" stroke="#000000" stroke-miterlimit="10" d="M128.986,50.14c3.672-0.415,6.871-2.362,8.963-5.185v-15.45
		c-2.092-2.822-5.291-4.771-8.963-5.186l-13.396,7.731c-0.691,1.588-1.078,3.337-1.078,5.179s0.387,3.591,1.078,5.178L128.986,50.14
		z"/>
	<path fill="#FF0000" stroke="#000000" stroke-miterlimit="10" d="M128.986,24.32c1.797-3.856,1.756-8.495-0.533-12.459
		c-3.729-6.458-11.984-8.67-18.441-4.941c-6.457,3.728-8.67,11.983-4.941,18.441c2.289,3.963,6.283,6.317,10.52,6.69L128.986,24.32z
		"/>
	<path fill="#FF0000" stroke="#000000" stroke-miterlimit="10" d="M137.949,44.956c2.441,3.488,6.482,5.774,11.062,5.774
		c7.457,0,13.5-6.044,13.5-13.5s-6.043-13.5-13.5-13.5c-4.58,0-8.621,2.287-11.062,5.775V44.956z"/>
	<path fill="#FF0000" stroke="#000000" stroke-miterlimit="10" d="M115.605,42.416c-4.24,0.369-8.24,2.727-10.531,6.693
		c-3.729,6.458-1.516,14.713,4.941,18.441s14.713,1.517,18.441-4.941c2.289-3.967,2.33-8.61,0.529-12.468L115.605,42.416z"/>
	<circle fill="#A95500" stroke="#000000" stroke-miterlimit="10" cx="83.753" cy="37.235" r="14.5"/>
</g>
<g id="circles">
	<circle id="Oxygen-Ion_5_" fill="none" cx="18.579" cy="37.156" r="18.579"/>
	<circle id="Oxygen-Ion_4_" fill="none" cx="148.922" cy="37.154" r="18.58"/>
	<circle id="Oxygen-Ion_3_" fill="none" cx="50.752" cy="18.58" r="18.58"/>
	<circle id="Nitrogen-Ion_1_" fill="none" cx="127.202" cy="37.228" r="17.69"/>
	<circle id="Oxygen-Ion_2_" fill="none" cx="116.842" cy="18.578" r="18.58"/>
	<circle id="Oxygen-Ion_1_" fill="none" cx="50.752" cy="55.736" r="18.58"/>
	<circle id="Oxygen-Ion" fill="none" cx="116.842" cy="55.734" r="18.58"/>
	<circle id="Nitrogen-Ion" fill="none" cx="40.351" cy="37.23" r="17.649"/>
	<circle id="Copper-Ion" fill="none" cx="83.487" cy="37.23" r="19.494"/>
</g>
</svg>
