<?xml version="1.0" encoding="utf-8"?>
<!-- Generator: Adobe Illustrator 15.0.2, SVG Export Plug-In . SVG Version: 6.00 Build 0)  -->
<!DOCTYPE svg PUBLIC "-//W3C//DTD SVG 1.1//EN" "http://www.w3.org/Graphics/SVG/1.1/DTD/svg11.dtd">
<svg version="1.1" xmlns="http://www.w3.org/2000/svg" xmlns:xlink="http://www.w3.org/1999/xlink" x="0px" y="0px"
	 width="105.612px" height="79.462px" viewBox="0 0 105.612 79.462" enable-background="new 0 0 105.612 79.462"
	 xml:space="preserve">
<g id="object">
	<path fill="#B1B1B1" d="M102.802,35.457c-1.645-2.635-3.874-4.767-6.497-6.266c-0.27-1.312-0.669-2.606-1.229-3.858
		c-2.969-6.66-9.603-10.965-16.9-10.965c-2.604,0-5.138,0.541-7.529,1.608c-0.438,0.195-0.853,0.42-1.268,0.644
		c-0.259-2.573-1.056-5.088-2.372-7.368C63.712,3.545,57.568,0,50.974,0c-3.232,0-6.427,0.858-9.238,2.481
		c-8.834,5.101-11.872,16.437-6.771,25.271c1.657,2.869,4.047,5.207,6.88,6.815c-0.799,3.332-0.814,6.85,0.028,10.291
		c-2.846,1.608-5.247,3.951-6.908,6.829c-5.101,8.834-2.062,20.171,6.771,25.271c2.812,1.623,6.006,2.481,9.238,2.481
		c6.595,0,12.738-3.545,16.033-9.252c1.657-2.872,2.487-6.115,2.461-9.376c1.66-0.49,3.264-1.17,4.768-2.039
		c0.056-0.032,0.105-0.071,0.161-0.104c2.367,2.247,5.304,3.854,8.535,4.603c1.375,0.319,2.785,0.48,4.188,0.48
		c8.649,0,16.055-5.893,18.008-14.33C106.243,44.611,105.417,39.65,102.802,35.457z"/>
	<path fill="#B1B1B1" d="M19.5,20.214c-10.752,0-19.5,8.748-19.5,19.5s8.748,19.5,19.5,19.5S39,50.466,39,39.714
		S30.252,20.214,19.5,20.214z"/>
	<path fill="#FF0000" stroke="#000000" stroke-miterlimit="10" d="M83.683,45.201c-6.807,3.037-14.789-0.02-17.828-6.83
		c-3.037-6.809,0.021-14.792,6.828-17.829c6.811-3.037,14.793,0.02,17.828,6.829C93.552,34.183,90.495,42.164,83.683,45.201z"/>
	<path fill="#FFFF00" stroke="#000000" stroke-miterlimit="10" d="M54.737,24.998c-7.971,4.602-10.787,14.678-6.475,22.733
		L63.79,56.71c2.709-0.086,5.436-0.818,7.945-2.267c8.133-4.695,10.918-15.091,6.223-23.223
		C73.267,23.089,62.866,20.304,54.737,24.998z"/>
	<path fill="#FF0000" stroke="#000000" stroke-miterlimit="10" d="M48.263,47.731c-3.643,0.752-6.963,2.982-8.969,6.457
		c-3.729,6.458-1.516,14.713,4.941,18.441s14.713,1.517,18.441-4.941c2.002-3.468,2.277-7.452,1.113-10.978L48.263,47.731z"/>
	<path fill="#FF0000" stroke="#000000" stroke-miterlimit="10" d="M90.151,32.097c-3.902-0.903-7.793-0.002-10.826,2.14
		c-2.613,1.845-5.588,14.669-4.057,17.472c1.783,3.264,4.885,5.788,8.791,6.693c7.264,1.684,14.516-2.84,16.197-10.105
		C101.94,41.032,97.415,33.78,90.151,32.097z"/>
	<path fill="#FF0000" stroke="#000000" stroke-miterlimit="10" d="M44.235,6.811c-6.457,3.728-8.67,11.983-4.941,18.441
		c2.006,3.473,5.324,5.704,8.967,6.457c3.127,0.646,14.521-5.932,15.525-8.964c1.168-3.53,0.896-7.52-1.109-10.993
		C58.948,5.294,50.692,3.083,44.235,6.811z"/>
	<circle fill="#A95500" stroke="#000000" stroke-miterlimit="10" cx="19.5" cy="39.714" r="14.5"/>
</g>
<g id="circles">
	<circle id="Oxygen-Ion_3_" fill="none" cx="50.924" cy="18.377" r="18.377"/>
	<circle id="Oxygen-Ion_2_" fill="none" cx="78.127" cy="32.872" r="18.377"/>
	<circle id="Oxygen-Ion_1_" fill="none" cx="87.178" cy="45.251" r="18.377"/>
	<circle id="Oxygen-Ion" fill="none" cx="50.924" cy="61.086" r="18.377"/>
	<circle id="Sulfur-Ion" fill="none" cx="63.186" cy="39.72" r="22.031"/>
	<circle id="Copper-Ion" fill="none" cx="19.5" cy="39.714" r="19.5"/>
</g>
</svg>
