<?xml version="1.0" encoding="utf-8"?>
<!-- Generator: Adobe Illustrator 15.1.0, SVG Export Plug-In . SVG Version: 6.00 Build 0)  -->
<!DOCTYPE svg PUBLIC "-//W3C//DTD SVG 1.1//EN" "http://www.w3.org/Graphics/SVG/1.1/DTD/svg11.dtd">
<svg version="1.1" xmlns="http://www.w3.org/2000/svg" xmlns:xlink="http://www.w3.org/1999/xlink" x="0px" y="0px" width="84px"
	 height="30px" viewBox="0 0 84 30" enable-background="new 0 0 84 30" xml:space="preserve">
<g id="object">
	<circle fill="#0000FF" stroke="#000000" stroke-miterlimit="10" cx="64.5" cy="15" r="13"/>
	<circle fill="#2F2F2F" stroke="#000000" stroke-miterlimit="10" cx="21" cy="15" r="14.5"/>
	<circle fill="#231F20" cx="40.5" cy="15" r="1.5"/>
	<circle fill="#231F20" cx="40.5" cy="21" r="1.5"/>
	<circle fill="#231F20" cx="46.5" cy="15" r="1.5"/>
	<circle fill="#231F20" cx="46.5" cy="21" r="1.5"/>
	<circle fill="#231F20" cx="40.5" cy="9" r="1.5"/>
	<circle fill="#231F20" cx="46.5" cy="9" r="1.5"/>
	<circle fill="#231F20" cx="1.5" cy="12" r="1.5"/>
	<circle fill="#231F20" cx="1.5" cy="18" r="1.5"/>
	<circle fill="#231F20" cx="82.5" cy="12" r="1.5"/>
	<circle fill="#231F20" cx="82.5" cy="18" r="1.5"/>
</g>
<g id="circles">
	<circle id="Nitrogen" fill="none" cx="64.5" cy="15" r="13"/>
	<circle id="Carbon" fill="none" cx="21" cy="15" r="14.5"/>
	<circle id="Dot_9_" fill="none" cx="40.5" cy="15" r="1.5"/>
	<circle id="Dot_8_" fill="none" cx="40.5" cy="21" r="1.5"/>
	<circle id="Dot_7_" fill="none" cx="46.5" cy="15" r="1.5"/>
	<circle id="Dot_6_" fill="none" cx="46.5" cy="21" r="1.5"/>
	<circle id="Dot_5_" fill="none" cx="40.5" cy="9" r="1.5"/>
	<circle id="Dot_4_" fill="none" cx="46.5" cy="9" r="1.5"/>
	<circle id="Dot_3_" fill="none" cx="1.5" cy="12" r="1.5"/>
	<circle id="Dot_2_" fill="none" cx="1.5" cy="18" r="1.5"/>
	<circle id="Dot_1_" fill="none" cx="82.5" cy="12" r="1.5"/>
	<circle id="Dot" fill="none" cx="82.5" cy="18" r="1.5"/>
</g>
</svg>
