<?xml version="1.0" encoding="utf-8"?>
<!-- Generator: Adobe Illustrator 15.0.2, SVG Export Plug-In . SVG Version: 6.00 Build 0)  -->
<!DOCTYPE svg PUBLIC "-//W3C//DTD SVG 1.1//EN" "http://www.w3.org/Graphics/SVG/1.1/DTD/svg11.dtd">
<svg version="1.1" xmlns="http://www.w3.org/2000/svg" xmlns:xlink="http://www.w3.org/1999/xlink" x="0px" y="0px"
	 width="75.287px" height="52.285px" viewBox="0 0 75.287 52.285" enable-background="new 0 0 75.287 52.285" xml:space="preserve">
<g id="object">
	<path fill="#FFFFFF" stroke="#000000" stroke-miterlimit="10" d="M23.497,11.895c-0.026-2.908-1.145-5.807-3.363-8.026
		C15.643-0.623,8.36-0.623,3.87,3.868c-4.491,4.492-4.491,11.773,0,16.265c2.219,2.219,5.118,3.337,8.026,3.363L23.497,11.895z"/>
	<path fill="#FFFFFF" stroke="#000000" stroke-miterlimit="10" d="M11.896,28.79c-2.908,0.027-5.809,1.146-8.028,3.365
		c-4.489,4.489-4.492,11.773-0.001,16.262c4.493,4.491,11.774,4.49,16.265-0.002c2.22-2.218,3.338-5.117,3.365-8.025L11.896,28.79z"
		/>
	<path fill="#2F2F2F" stroke="#000000" stroke-miterlimit="10" d="M37.644,17.334c-2.65-3.455-6.809-5.692-11.5-5.692
		c-0.905,0-1.787,0.094-2.646,0.252L11.896,23.496c-0.159,0.859-0.253,1.741-0.253,2.646s0.094,1.788,0.253,2.647l11.601,11.6
		c0.859,0.159,1.741,0.252,2.646,0.252c4.691,0,8.85-2.237,11.5-5.692V17.334z"/>
	<path fill="#FFFFFF" stroke="#000000" stroke-miterlimit="10" d="M63.391,28.789L51.79,40.39c0.026,2.907,1.145,5.807,3.363,8.025
		c4.491,4.492,11.773,4.492,16.264,0.001c4.491-4.492,4.491-11.773,0-16.264C69.198,29.933,66.299,28.815,63.391,28.789z"/>
	<path fill="#FFFFFF" stroke="#000000" stroke-miterlimit="10" d="M63.391,23.495c2.908-0.027,5.809-1.146,8.028-3.365
		c4.489-4.489,4.492-11.773,0.001-16.262c-4.493-4.491-11.774-4.49-16.265,0.002c-2.22,2.217-3.338,5.117-3.365,8.025L63.391,23.495
		z"/>
	<path fill="#2F2F2F" stroke="#000000" stroke-miterlimit="10" d="M63.391,28.789c0.159-0.859,0.253-1.741,0.253-2.646
		c0-0.906-0.094-1.788-0.253-2.647l-11.601-11.6c-0.859-0.159-1.741-0.252-2.646-0.252c-4.691,0-8.85,2.237-11.5,5.692V34.95
		c2.65,3.455,6.809,5.692,11.5,5.692c0.905,0,1.787-0.094,2.646-0.252L63.391,28.789z"/>
</g>
<g id="circles">
	<circle id="Hydrogen_4_" fill="none" cx="12" cy="11.998" r="11.498"/>
	<circle id="Hydrogen_3_" fill="none" cx="63.287" cy="11.998" r="11.498"/>
	<circle id="Hydrogen_2_" fill="none" cx="12" cy="40.286" r="11.498"/>
	<circle id="Hydrogen" fill="none" cx="63.287" cy="40.286" r="11.498"/>
	<circle id="Carbon" fill="none" cx="26.022" cy="26.068" r="14.379"/>
	<circle id="Carbon_1_" fill="none" cx="49.265" cy="26.068" r="14.379"/>
</g>
</svg>
