<?xml version="1.0" encoding="UTF-8" standalone="no"?>
<!-- Created with Inkscape (http://www.inkscape.org/) -->

<svg
   xmlns:dc="http://purl.org/dc/elements/1.1/"
   xmlns:cc="http://creativecommons.org/ns#"
   xmlns:rdf="http://www.w3.org/1999/02/22-rdf-syntax-ns#"
   xmlns:svg="http://www.w3.org/2000/svg"
   xmlns="http://www.w3.org/2000/svg"
   xmlns:sodipodi="http://sodipodi.sourceforge.net/DTD/sodipodi-0.dtd"
   xmlns:inkscape="http://www.inkscape.org/namespaces/inkscape"
   id="svg2"
   version="1.1"
   inkscape:version="0.48.2 r9819"
   width="112.10813"
   height="80.99675"
   xml:space="preserve"
   sodipodi:docname="L4A4-04.ai"><metadata
     id="metadata8"><rdf:RDF><cc:Work
         rdf:about=""><dc:format>image/svg+xml</dc:format><dc:type
           rdf:resource="http://purl.org/dc/dcmitype/StillImage" /><dc:title></dc:title></cc:Work></rdf:RDF></metadata><defs
     id="defs6"><radialGradient
       fx="0"
       fy="0"
       cx="0"
       cy="0"
       r="1"
       gradientUnits="userSpaceOnUse"
       gradientTransform="matrix(8.7709961,-8.7709961,-8.7709961,-8.7709961,3.3564453,32.65918)"
       spreadMethod="pad"
       id="radialGradient24"><stop
         style="stop-opacity:1;stop-color:#00adef"
         offset="0"
         id="stop26" /><stop
         style="stop-opacity:1;stop-color:#17194a"
         offset="0.785278"
         id="stop28" /><stop
         style="stop-opacity:1;stop-color:#2e3192"
         offset="1"
         id="stop30" /></radialGradient><radialGradient
       fx="0"
       fy="0"
       cx="0"
       cy="0"
       r="1"
       gradientUnits="userSpaceOnUse"
       gradientTransform="matrix(8.7766113,-8.7766113,-8.7766113,-8.7766113,66.057129,54.263184)"
       spreadMethod="pad"
       id="radialGradient46"><stop
         style="stop-opacity:1;stop-color:#ed1c24"
         offset="0"
         id="stop48" /><stop
         style="stop-opacity:1;stop-color:#550709"
         offset="0.754608"
         id="stop50" /><stop
         style="stop-opacity:1;stop-color:#ed1c24"
         offset="1"
         id="stop52" /></radialGradient><radialGradient
       fx="0"
       fy="0"
       cx="0"
       cy="0"
       r="1"
       gradientUnits="userSpaceOnUse"
       gradientTransform="matrix(8.7709961,-8.7709961,-8.7709961,-8.7709961,28.29834,32.65918)"
       spreadMethod="pad"
       id="radialGradient68"><stop
         style="stop-opacity:1;stop-color:#00adef"
         offset="0"
         id="stop70" /><stop
         style="stop-opacity:1;stop-color:#17194a"
         offset="0.785278"
         id="stop72" /><stop
         style="stop-opacity:1;stop-color:#2e3192"
         offset="1"
         id="stop74" /></radialGradient><radialGradient
       fx="0"
       fy="0"
       cx="0"
       cy="0"
       r="1"
       gradientUnits="userSpaceOnUse"
       gradientTransform="matrix(8.776413,-8.776413,-8.776413,-8.776413,28.291992,47.059082)"
       spreadMethod="pad"
       id="radialGradient90"><stop
         style="stop-opacity:1;stop-color:#ed1c24"
         offset="0"
         id="stop92" /><stop
         style="stop-opacity:1;stop-color:#550709"
         offset="0.754608"
         id="stop94" /><stop
         style="stop-opacity:1;stop-color:#ed1c24"
         offset="1"
         id="stop96" /></radialGradient><radialGradient
       fx="0"
       fy="0"
       cx="0"
       cy="0"
       r="1"
       gradientUnits="userSpaceOnUse"
       gradientTransform="matrix(8.7707977,-8.7707977,-8.7707977,-8.7707977,53.474609,32.65918)"
       spreadMethod="pad"
       id="radialGradient112"><stop
         style="stop-opacity:1;stop-color:#00adef"
         offset="0"
         id="stop114" /><stop
         style="stop-opacity:1;stop-color:#17194a"
         offset="0.785278"
         id="stop116" /><stop
         style="stop-opacity:1;stop-color:#2e3192"
         offset="1"
         id="stop118" /></radialGradient><radialGradient
       fx="0"
       fy="0"
       cx="0"
       cy="0"
       r="1"
       gradientUnits="userSpaceOnUse"
       gradientTransform="matrix(8.7768097,-8.7768097,-8.7768097,-8.7768097,53.467285,47.059082)"
       spreadMethod="pad"
       id="radialGradient134"><stop
         style="stop-opacity:1;stop-color:#ed1c24"
         offset="0"
         id="stop136" /><stop
         style="stop-opacity:1;stop-color:#550709"
         offset="0.754608"
         id="stop138" /><stop
         style="stop-opacity:1;stop-color:#ed1c24"
         offset="1"
         id="stop140" /></radialGradient><radialGradient
       fx="0"
       fy="0"
       cx="0"
       cy="0"
       r="1"
       gradientUnits="userSpaceOnUse"
       gradientTransform="matrix(8.7707977,-8.7707977,-8.7707977,-8.7707977,40.887695,11.064453)"
       spreadMethod="pad"
       id="radialGradient156"><stop
         style="stop-opacity:1;stop-color:#00adef"
         offset="0"
         id="stop158" /><stop
         style="stop-opacity:1;stop-color:#17194a"
         offset="0.785278"
         id="stop160" /><stop
         style="stop-opacity:1;stop-color:#2e3192"
         offset="1"
         id="stop162" /></radialGradient><radialGradient
       fx="0"
       fy="0"
       cx="0"
       cy="0"
       r="1"
       gradientUnits="userSpaceOnUse"
       gradientTransform="matrix(8.7762299,-8.7762299,-8.7762299,-8.7762299,40.881348,25.464355)"
       spreadMethod="pad"
       id="radialGradient178"><stop
         style="stop-opacity:1;stop-color:#ed1c24"
         offset="0"
         id="stop180" /><stop
         style="stop-opacity:1;stop-color:#550709"
         offset="0.754608"
         id="stop182" /><stop
         style="stop-opacity:1;stop-color:#ed1c24"
         offset="1"
         id="stop184" /></radialGradient><radialGradient
       fx="0"
       fy="0"
       cx="0"
       cy="0"
       r="1"
       gradientUnits="userSpaceOnUse"
       gradientTransform="matrix(8.7707977,-8.7707977,-8.7707977,-8.7707977,40.887695,39.860352)"
       spreadMethod="pad"
       id="radialGradient200"><stop
         style="stop-opacity:1;stop-color:#00adef"
         offset="0"
         id="stop202" /><stop
         style="stop-opacity:1;stop-color:#17194a"
         offset="0.785278"
         id="stop204" /><stop
         style="stop-opacity:1;stop-color:#2e3192"
         offset="1"
         id="stop206" /></radialGradient><radialGradient
       fx="0"
       fy="0"
       cx="0"
       cy="0"
       r="1"
       gradientUnits="userSpaceOnUse"
       gradientTransform="matrix(8.7762299,-8.7762299,-8.7762299,-8.7762299,40.881348,54.260254)"
       spreadMethod="pad"
       id="radialGradient222"><stop
         style="stop-opacity:1;stop-color:#ed1c24"
         offset="0"
         id="stop224" /><stop
         style="stop-opacity:1;stop-color:#550709"
         offset="0.754608"
         id="stop226" /><stop
         style="stop-opacity:1;stop-color:#ed1c24"
         offset="1"
         id="stop228" /></radialGradient><radialGradient
       fx="0"
       fy="0"
       cx="0"
       cy="0"
       r="1"
       gradientUnits="userSpaceOnUse"
       gradientTransform="matrix(8.7707977,-8.7707977,-8.7707977,-8.7707977,15.829102,11.064453)"
       spreadMethod="pad"
       id="radialGradient244"><stop
         style="stop-opacity:1;stop-color:#00adef"
         offset="0"
         id="stop246" /><stop
         style="stop-opacity:1;stop-color:#17194a"
         offset="0.785278"
         id="stop248" /><stop
         style="stop-opacity:1;stop-color:#2e3192"
         offset="1"
         id="stop250" /></radialGradient><radialGradient
       fx="0"
       fy="0"
       cx="0"
       cy="0"
       r="1"
       gradientUnits="userSpaceOnUse"
       gradientTransform="matrix(8.7762299,-8.7762299,-8.7762299,-8.7762299,15.822754,25.464355)"
       spreadMethod="pad"
       id="radialGradient266"><stop
         style="stop-opacity:1;stop-color:#ed1c24"
         offset="0"
         id="stop268" /><stop
         style="stop-opacity:1;stop-color:#550709"
         offset="0.754608"
         id="stop270" /><stop
         style="stop-opacity:1;stop-color:#ed1c24"
         offset="1"
         id="stop272" /></radialGradient><radialGradient
       fx="0"
       fy="0"
       cx="0"
       cy="0"
       r="1"
       gradientUnits="userSpaceOnUse"
       gradientTransform="matrix(8.7762299,-8.7762299,-8.7762299,-8.7762299,28.291992,18.26123)"
       spreadMethod="pad"
       id="radialGradient288"><stop
         style="stop-opacity:1;stop-color:#ed1c24"
         offset="0"
         id="stop290" /><stop
         style="stop-opacity:1;stop-color:#550709"
         offset="0.754608"
         id="stop292" /><stop
         style="stop-opacity:1;stop-color:#ed1c24"
         offset="1"
         id="stop294" /></radialGradient><radialGradient
       fx="0"
       fy="0"
       cx="0"
       cy="0"
       r="1"
       gradientUnits="userSpaceOnUse"
       gradientTransform="matrix(8.7768097,-8.7768097,-8.7768097,-8.7768097,53.467285,18.26123)"
       spreadMethod="pad"
       id="radialGradient310"><stop
         style="stop-opacity:1;stop-color:#ed1c24"
         offset="0"
         id="stop312" /><stop
         style="stop-opacity:1;stop-color:#550709"
         offset="0.754608"
         id="stop314" /><stop
         style="stop-opacity:1;stop-color:#ed1c24"
         offset="1"
         id="stop316" /></radialGradient><radialGradient
       fx="0"
       fy="0"
       cx="0"
       cy="0"
       r="1"
       gradientUnits="userSpaceOnUse"
       gradientTransform="matrix(8.7758331,-8.7758331,-8.7758331,-8.7758331,66.058105,25.460449)"
       spreadMethod="pad"
       id="radialGradient332"><stop
         style="stop-opacity:1;stop-color:#ed1c24"
         offset="0"
         id="stop334" /><stop
         style="stop-opacity:1;stop-color:#550709"
         offset="0.754608"
         id="stop336" /><stop
         style="stop-opacity:1;stop-color:#ed1c24"
         offset="1"
         id="stop338" /></radialGradient><radialGradient
       fx="0"
       fy="0"
       cx="0"
       cy="0"
       r="1"
       gradientUnits="userSpaceOnUse"
       gradientTransform="matrix(8.7707977,-8.7707977,-8.7707977,-8.7707977,15.829102,39.860352)"
       spreadMethod="pad"
       id="radialGradient354"><stop
         style="stop-opacity:1;stop-color:#00adef"
         offset="0"
         id="stop356" /><stop
         style="stop-opacity:1;stop-color:#17194a"
         offset="0.785278"
         id="stop358" /><stop
         style="stop-opacity:1;stop-color:#2e3192"
         offset="1"
         id="stop360" /></radialGradient><radialGradient
       fx="0"
       fy="0"
       cx="0"
       cy="0"
       r="1"
       gradientUnits="userSpaceOnUse"
       gradientTransform="matrix(8.7707977,-8.7707977,-8.7707977,-8.7707977,28.301758,61.458008)"
       spreadMethod="pad"
       id="radialGradient376"><stop
         style="stop-opacity:1;stop-color:#00adef"
         offset="0"
         id="stop378" /><stop
         style="stop-opacity:1;stop-color:#17194a"
         offset="0.785278"
         id="stop380" /><stop
         style="stop-opacity:1;stop-color:#2e3192"
         offset="1"
         id="stop382" /></radialGradient><radialGradient
       fx="0"
       fy="0"
       cx="0"
       cy="0"
       r="1"
       gradientUnits="userSpaceOnUse"
       gradientTransform="matrix(8.7711792,-8.7711792,-8.7711792,-8.7711792,53.473144,61.458008)"
       spreadMethod="pad"
       id="radialGradient398"><stop
         style="stop-opacity:1;stop-color:#00adef"
         offset="0"
         id="stop400" /><stop
         style="stop-opacity:1;stop-color:#17194a"
         offset="0.785278"
         id="stop402" /><stop
         style="stop-opacity:1;stop-color:#2e3192"
         offset="1"
         id="stop404" /></radialGradient><radialGradient
       fx="0"
       fy="0"
       cx="0"
       cy="0"
       r="1"
       gradientUnits="userSpaceOnUse"
       gradientTransform="matrix(8.7707977,-8.7707977,-8.7707977,-8.7707977,66.056152,39.861328)"
       spreadMethod="pad"
       id="radialGradient420"><stop
         style="stop-opacity:1;stop-color:#00adef"
         offset="0"
         id="stop422" /><stop
         style="stop-opacity:1;stop-color:#17194a"
         offset="0.785278"
         id="stop424" /><stop
         style="stop-opacity:1;stop-color:#2e3192"
         offset="1"
         id="stop426" /></radialGradient><radialGradient
       fx="0"
       fy="0"
       cx="0"
       cy="0"
       r="1"
       gradientUnits="userSpaceOnUse"
       gradientTransform="matrix(8.7707977,-8.7707977,-8.7707977,-8.7707977,78.650391,32.657227)"
       spreadMethod="pad"
       id="radialGradient442"><stop
         style="stop-opacity:1;stop-color:#00adef"
         offset="0"
         id="stop444" /><stop
         style="stop-opacity:1;stop-color:#17194a"
         offset="0.785278"
         id="stop446" /><stop
         style="stop-opacity:1;stop-color:#2e3192"
         offset="1"
         id="stop448" /></radialGradient><radialGradient
       fx="0"
       fy="0"
       cx="0"
       cy="0"
       r="1"
       gradientUnits="userSpaceOnUse"
       gradientTransform="matrix(8.7707977,-8.7707977,-8.7707977,-8.7707977,66.054199,11.054688)"
       spreadMethod="pad"
       id="radialGradient464"><stop
         style="stop-opacity:1;stop-color:#00adef"
         offset="0"
         id="stop466" /><stop
         style="stop-opacity:1;stop-color:#17194a"
         offset="0.785278"
         id="stop468" /><stop
         style="stop-opacity:1;stop-color:#2e3192"
         offset="1"
         id="stop470" /></radialGradient><radialGradient
       fx="0"
       fy="0"
       cx="0"
       cy="0"
       r="1"
       gradientUnits="userSpaceOnUse"
       gradientTransform="matrix(8.7762299,-8.7762299,-8.7762299,-8.7762299,15.822754,54.260254)"
       spreadMethod="pad"
       id="radialGradient486"><stop
         style="stop-opacity:1;stop-color:#ed1c24"
         offset="0"
         id="stop488" /><stop
         style="stop-opacity:1;stop-color:#550709"
         offset="0.754608"
         id="stop490" /><stop
         style="stop-opacity:1;stop-color:#ed1c24"
         offset="1"
         id="stop492" /></radialGradient></defs><sodipodi:namedview
     pagecolor="#ffffff"
     bordercolor="#666666"
     borderopacity="1"
     objecttolerance="10"
     gridtolerance="10"
     guidetolerance="10"
     inkscape:pageopacity="0"
     inkscape:pageshadow="2"
     inkscape:window-width="640"
     inkscape:window-height="480"
     id="namedview4"
     showgrid="false"
     inkscape:zoom="2.8989869"
     inkscape:cx="56.054066"
     inkscape:cy="40.498375"
     inkscape:window-x="0"
     inkscape:window-y="22"
     inkscape:window-maximized="0"
     inkscape:current-layer="g10" /><g
     id="g10"
     inkscape:groupmode="layer"
     inkscape:label="L4A4-04"
     transform="matrix(1.25,0,0,-1.25,0,80.99675)"><g
       id="g12"><g
         id="g14"><g
           id="g20"><g
             id="g22"><path
               d="m 0,28.8 c 0,-3.973 3.22,-7.196 7.195,-7.196 l 0,0 c 3.976,0 7.198,3.223 7.198,7.196 l 0,0 c 0,3.975 -3.222,7.198 -7.198,7.198 l 0,0 C 3.22,35.998 0,32.775 0,28.8"
               style="fill:url(#radialGradient24);stroke:none"
               id="path32" /></g></g></g></g><g
       id="g34"><g
         id="g36"><g
           id="g42"><g
             id="g44"><path
               d="m 62.699,50.403 c 0,-3.977 3.223,-7.201 7.199,-7.201 l 0,0 c 3.979,0 7.202,3.224 7.202,7.201 l 0,0 c 0,3.977 -3.223,7.202 -7.202,7.202 l 0,0 c -3.976,0 -7.199,-3.225 -7.199,-7.202"
               style="fill:url(#radialGradient46);stroke:none"
               id="path54" /></g></g></g></g><g
       id="g56"><g
         id="g58"><g
           id="g64"><g
             id="g66"><path
               d="m 24.942,28.8 c 0,-3.973 3.22,-7.196 7.195,-7.196 l 0,0 c 3.976,0 7.198,3.223 7.198,7.196 l 0,0 c 0,3.975 -3.222,7.198 -7.198,7.198 l 0,0 c -3.975,0 -7.195,-3.223 -7.195,-7.198"
               style="fill:url(#radialGradient68);stroke:none"
               id="path76" /></g></g></g></g><g
       id="g78"><g
         id="g80"><g
           id="g86"><g
             id="g88"><path
               d="m 24.934,43.198 c 0,-3.977 3.222,-7.201 7.2,-7.201 l 0,0 c 3.978,0 7.201,3.224 7.201,7.201 l 0,0 c 0,3.976 -3.223,7.202 -7.201,7.202 l 0,0 c -3.978,0 -7.2,-3.226 -7.2,-7.202"
               style="fill:url(#radialGradient90);stroke:none"
               id="path98" /></g></g></g></g><g
       id="g100"><g
         id="g102"><g
           id="g108"><g
             id="g110"><path
               d="m 50.118,28.8 c 0,-3.973 3.221,-7.196 7.196,-7.196 l 0,0 c 3.975,0 7.196,3.223 7.196,7.196 l 0,0 c 0,3.975 -3.221,7.198 -7.196,7.198 l 0,0 c -3.975,0 -7.196,-3.223 -7.196,-7.198"
               style="fill:url(#radialGradient112);stroke:none"
               id="path120" /></g></g></g></g><g
       id="g122"><g
         id="g124"><g
           id="g130"><g
             id="g132"><path
               d="m 50.11,43.198 c 0,-3.977 3.222,-7.201 7.199,-7.201 l 0,0 c 3.978,0 7.202,3.224 7.202,7.201 l 0,0 c 0,3.976 -3.224,7.202 -7.202,7.202 l 0,0 c -3.977,0 -7.199,-3.226 -7.199,-7.202"
               style="fill:url(#radialGradient134);stroke:none"
               id="path142" /></g></g></g></g><g
       id="g144"><g
         id="g146"><g
           id="g152"><g
             id="g154"><path
               d="m 37.531,7.206 c 0,-3.974 3.22,-7.196 7.195,-7.196 l 0,0 c 3.976,0 7.198,3.222 7.198,7.196 l 0,0 c 0,3.975 -3.222,7.198 -7.198,7.198 l 0,0 c -3.975,0 -7.195,-3.223 -7.195,-7.198"
               style="fill:url(#radialGradient156);stroke:none"
               id="path164" /></g></g></g></g><g
       id="g166"><g
         id="g168"><g
           id="g174"><g
             id="g176"><path
               d="m 37.523,21.604 c 0,-3.977 3.223,-7.201 7.2,-7.201 l 0,0 c 3.978,0 7.202,3.224 7.202,7.201 l 0,0 c 0,3.977 -3.224,7.201 -7.202,7.201 l 0,0 c -3.977,0 -7.2,-3.224 -7.2,-7.201"
               style="fill:url(#radialGradient178);stroke:none"
               id="path186" /></g></g></g></g><g
       id="g188"><g
         id="g190"><g
           id="g196"><g
             id="g198"><path
               d="m 37.531,36.002 c 0,-3.975 3.22,-7.197 7.195,-7.197 l 0,0 c 3.976,0 7.198,3.222 7.198,7.197 l 0,0 c 0,3.974 -3.222,7.198 -7.198,7.198 l 0,0 c -3.975,0 -7.195,-3.224 -7.195,-7.198"
               style="fill:url(#radialGradient200);stroke:none"
               id="path208" /></g></g></g></g><g
       id="g210"><g
         id="g212"><g
           id="g218"><g
             id="g220"><path
               d="m 37.523,50.4 c 0,-3.977 3.223,-7.201 7.2,-7.201 l 0,0 c 3.978,0 7.202,3.224 7.202,7.201 l 0,0 c 0,3.976 -3.224,7.202 -7.202,7.202 l 0,0 c -3.977,0 -7.2,-3.226 -7.2,-7.202"
               style="fill:url(#radialGradient222);stroke:none"
               id="path230" /></g></g></g></g><g
       id="g232"><g
         id="g234"><g
           id="g240"><g
             id="g242"><path
               d="m 12.473,7.206 c 0,-3.974 3.22,-7.196 7.195,-7.196 l 0,0 c 3.976,0 7.197,3.222 7.197,7.196 l 0,0 c 0,3.975 -3.221,7.198 -7.197,7.198 l 0,0 c -3.975,0 -7.195,-3.223 -7.195,-7.198"
               style="fill:url(#radialGradient244);stroke:none"
               id="path252" /></g></g></g></g><g
       id="g254"><g
         id="g256"><g
           id="g262"><g
             id="g264"><path
               d="m 12.464,21.604 c 0,-3.977 3.223,-7.201 7.2,-7.201 l 0,0 c 3.978,0 7.202,3.224 7.202,7.201 l 0,0 c 0,3.977 -3.224,7.201 -7.202,7.201 l 0,0 c -3.977,0 -7.2,-3.224 -7.2,-7.201"
               style="fill:url(#radialGradient266);stroke:none"
               id="path274" /></g></g></g></g><g
       id="g276"><g
         id="g278"><g
           id="g284"><g
             id="g286"><path
               d="m 24.934,14.401 c 0,-3.977 3.222,-7.201 7.2,-7.201 l 0,0 c 3.978,0 7.201,3.224 7.201,7.201 l 0,0 c 0,3.976 -3.223,7.202 -7.201,7.202 l 0,0 c -3.978,0 -7.2,-3.226 -7.2,-7.202"
               style="fill:url(#radialGradient288);stroke:none"
               id="path296" /></g></g></g></g><g
       id="g298"><g
         id="g300"><g
           id="g306"><g
             id="g308"><path
               d="m 50.11,14.4 c 0,-3.977 3.222,-7.201 7.199,-7.201 l 0,0 c 3.978,0 7.202,3.224 7.202,7.201 l 0,0 c 0,3.977 -3.224,7.202 -7.202,7.202 l 0,0 c -3.977,0 -7.199,-3.225 -7.199,-7.202"
               style="fill:url(#radialGradient310);stroke:none"
               id="path318" /></g></g></g></g><g
       id="g320"><g
         id="g322"><g
           id="g328"><g
             id="g330"><path
               d="m 62.699,21.6 c 0,-3.977 3.223,-7.201 7.199,-7.201 l 0,0 c 3.979,0 7.202,3.224 7.202,7.201 l 0,0 c 0,3.977 -3.223,7.202 -7.202,7.202 l 0,0 c -3.976,0 -7.199,-3.225 -7.199,-7.202"
               style="fill:url(#radialGradient332);stroke:none"
               id="path340" /></g></g></g></g><g
       id="g342"><g
         id="g344"><g
           id="g350"><g
             id="g352"><path
               d="m 12.473,36.002 c 0,-3.975 3.22,-7.197 7.195,-7.197 l 0,0 c 3.976,0 7.197,3.222 7.197,7.197 l 0,0 c 0,3.974 -3.221,7.198 -7.197,7.198 l 0,0 c -3.975,0 -7.195,-3.224 -7.195,-7.198"
               style="fill:url(#radialGradient354);stroke:none"
               id="path362" /></g></g></g></g><g
       id="g364"><g
         id="g366"><g
           id="g372"><g
             id="g374"><path
               d="m 32.141,64.797 c -3.976,0 -7.196,-3.223 -7.196,-7.197 l 0,0 c 0,-3.974 3.22,-7.196 7.196,-7.196 l 0,0 c 3.975,0 7.197,3.222 7.197,7.196 l 0,0 c 0,3.974 -3.222,7.197 -7.197,7.197 z"
               style="fill:url(#radialGradient376);stroke:none"
               id="path384" /></g></g></g></g><g
       id="g386"><g
         id="g388"><g
           id="g394"><g
             id="g396"><path
               d="m 57.313,64.797 c -3.975,0 -7.196,-3.223 -7.196,-7.197 l 0,0 c 0,-3.974 3.221,-7.196 7.196,-7.196 l 0,0 c 3.974,0 7.197,3.222 7.197,7.196 l 0,0 c 0,3.974 -3.223,7.197 -7.197,7.197 z"
               style="fill:url(#radialGradient398);stroke:none"
               id="path406" /></g></g></g></g><g
       id="g408"><g
         id="g410"><g
           id="g416"><g
             id="g418"><path
               d="m 62.699,36.003 c 0,-3.974 3.222,-7.197 7.196,-7.197 l 0,0 c 3.975,0 7.197,3.223 7.197,7.197 l 0,0 c 0,3.974 -3.222,7.198 -7.197,7.198 l 0,0 c -3.974,0 -7.196,-3.224 -7.196,-7.198"
               style="fill:url(#radialGradient420);stroke:none"
               id="path428" /></g></g></g></g><g
       id="g430"><g
         id="g432"><g
           id="g438"><g
             id="g440"><path
               d="m 75.294,28.799 c 0,-3.974 3.22,-7.196 7.196,-7.196 l 0,0 c 3.974,0 7.197,3.222 7.197,7.196 l 0,0 c 0,3.974 -3.223,7.197 -7.197,7.197 l 0,0 c -3.976,0 -7.196,-3.223 -7.196,-7.197"
               style="fill:url(#radialGradient442);stroke:none"
               id="path450" /></g></g></g></g><g
       id="g452"><g
         id="g454"><g
           id="g460"><g
             id="g462"><path
               d="M 62.698,7.196 C 62.698,3.222 65.919,0 69.893,0 l 0,0 c 3.975,0 7.197,3.222 7.197,7.196 l 0,0 c 0,3.975 -3.222,7.198 -7.197,7.198 l 0,0 c -3.974,0 -7.195,-3.223 -7.195,-7.198"
               style="fill:url(#radialGradient464);stroke:none"
               id="path472" /></g></g></g></g><g
       id="g474"><g
         id="g476"><g
           id="g482"><g
             id="g484"><path
               d="m 12.464,50.4 c 0,-3.977 3.223,-7.201 7.2,-7.201 l 0,0 c 3.978,0 7.202,3.224 7.202,7.201 l 0,0 c 0,3.976 -3.224,7.202 -7.202,7.202 l 0,0 c -3.977,0 -7.2,-3.226 -7.2,-7.202"
               style="fill:url(#radialGradient486);stroke:none"
               id="path494" /></g></g></g></g></g></svg>