<?xml version="1.0" encoding="utf-8"?>
<!-- Generator: Adobe Illustrator 15.0.2, SVG Export Plug-In . SVG Version: 6.00 Build 0)  -->
<!DOCTYPE svg PUBLIC "-//W3C//DTD SVG 1.1//EN" "http://www.w3.org/Graphics/SVG/1.1/DTD/svg11.dtd">
<svg version="1.1" xmlns="http://www.w3.org/2000/svg" xmlns:xlink="http://www.w3.org/1999/xlink" x="0px" y="0px" width="51px"
	 height="51px" viewBox="0 0 51 51" enable-background="new 0 0 51 51" xml:space="preserve">
<g id="object">
	<circle fill="#929497" stroke="#000000" stroke-miterlimit="10" cx="25.5" cy="25.5" r="25"/>
	<g>
		<path d="M10.576,25.561h1.643v2.41c-0.24,0.12-0.708,0.216-1.391,0.216c-1.883,0-3.118-1.211-3.118-3.263
			c0-2.026,1.283-3.25,3.25-3.25c0.816,0,1.355,0.156,1.787,0.347l0.252-0.851c-0.348-0.168-1.08-0.372-2.015-0.372
			c-2.711,0-4.366,1.764-4.378,4.174c0,1.26,0.432,2.338,1.127,3.01c0.792,0.756,1.799,1.068,3.022,1.068
			c1.091,0,2.015-0.276,2.482-0.444v-3.886h-2.663V25.561z"/>
		<path d="M17.165,23.029c-1.691,0-2.723,1.379-2.723,3.131c0,1.75,1.067,2.938,2.854,2.938c0.924,0,1.559-0.203,1.931-0.371
			l-0.18-0.756c-0.396,0.168-0.852,0.3-1.607,0.3c-1.056,0-1.967-0.587-1.991-2.015h4.078c0.012-0.107,0.036-0.275,0.036-0.492
			C19.563,24.697,19.06,23.029,17.165,23.029z M15.461,25.5c0.084-0.731,0.552-1.715,1.619-1.715c1.188,0,1.475,1.043,1.463,1.715
			H15.461z"/>
		<path d="M23.764,23.029c-0.959,0-1.631,0.54-1.919,1.092h-0.024l-0.06-0.959h-0.936c0.036,0.479,0.048,0.971,0.048,1.57v4.234
			h1.056v-3.49c0-0.18,0.024-0.36,0.072-0.492c0.18-0.588,0.72-1.079,1.415-1.079c0.996,0,1.343,0.779,1.343,1.715v3.347h1.056V25.5
			C25.815,23.51,24.567,23.029,23.764,23.029z"/>
		<path d="M29.836,23.029c-1.69,0-2.723,1.379-2.723,3.131c0,1.75,1.068,2.938,2.855,2.938c0.924,0,1.559-0.203,1.931-0.371
			l-0.181-0.756c-0.395,0.168-0.852,0.3-1.606,0.3c-1.056,0-1.967-0.587-1.991-2.015h4.078c0.012-0.107,0.036-0.275,0.036-0.492
			C32.235,24.697,31.731,23.029,29.836,23.029z M28.133,25.5c0.084-0.731,0.553-1.715,1.619-1.715c1.188,0,1.476,1.043,1.464,1.715
			H28.133z"/>
		<path d="M34.505,24.301h-0.048l-0.036-1.139h-0.923c0.035,0.539,0.047,1.127,0.047,1.811v3.994h1.044v-3.095
			c0-0.181,0.024-0.348,0.048-0.491c0.145-0.792,0.672-1.355,1.416-1.355c0.143,0,0.251,0.012,0.359,0.035v-0.995
			c-0.096-0.024-0.18-0.036-0.301-0.036C35.404,23.029,34.769,23.521,34.505,24.301z"/>
		<rect x="37.518" y="23.162" width="1.055" height="5.805"/>
		<path d="M38.045,20.871c-0.384,0-0.66,0.288-0.66,0.66c0,0.36,0.264,0.647,0.637,0.647c0.419,0,0.684-0.287,0.671-0.647
			C38.692,21.159,38.44,20.871,38.045,20.871z"/>
		<path d="M42.988,28.246c-1.152,0-2.016-0.827-2.016-2.17c0-1.211,0.72-2.195,2.051-2.195c0.576,0,0.972,0.133,1.224,0.275
			l0.239-0.814c-0.287-0.145-0.839-0.301-1.463-0.301c-1.895,0-3.118,1.296-3.118,3.083c0,1.774,1.14,2.974,2.891,2.974
			c0.779,0,1.392-0.203,1.667-0.348l-0.18-0.791C43.983,28.091,43.588,28.246,42.988,28.246z"/>
	</g>
</g>
<g id="circles">
	<circle id="Generic" fill="none" cx="25.5" cy="25.5" r="25"/>
</g>
</svg>
