<?xml version="1.0" encoding="utf-8"?>
<!-- Generator: Adobe Illustrator 15.0.2, SVG Export Plug-In . SVG Version: 6.00 Build 0)  -->
<!DOCTYPE svg PUBLIC "-//W3C//DTD SVG 1.1//EN" "http://www.w3.org/Graphics/SVG/1.1/DTD/svg11.dtd">
<svg version="1.1" xmlns="http://www.w3.org/2000/svg" xmlns:xlink="http://www.w3.org/1999/xlink" x="0px" y="0px"
	 width="140.047px" height="84.64px" viewBox="0 0 140.047 84.64" enable-background="new 0 0 140.047 84.64" xml:space="preserve">
<g id="object">
	<circle fill="#FFFFFF" stroke="#000000" stroke-miterlimit="10" cx="77.526" cy="23.003" r="11.5"/>
	<circle fill="#FFFFFF" stroke="#000000" stroke-miterlimit="10" cx="82.679" cy="72.64" r="11.499"/>
	<g>
		<path fill="#FFFFFF" stroke="#000000" stroke-miterlimit="10" d="M133.795,42.463c-3.037-1.753-6.541-1.957-9.605-0.867
			l-7.451,12.885c0.586,3.205,2.516,6.144,5.557,7.901c5.502,3.174,12.535,1.289,15.71-4.211S139.296,45.638,133.795,42.463z"/>
		<g>
			<path fill="#2F2F2F" stroke="#000000" stroke-miterlimit="10" d="M97.318,40.97c-4.158-2.095-8.902-2.002-12.848-0.089
				l-8.127,14.076c0.335,4.634,2.886,9.025,7.214,11.523c2.039,1.177,4.244,1.788,6.444,1.909c5.284,0.289,10.536-2.32,13.363-7.216
				c0.008-0.014,0.014-0.029,0.021-0.043c1.156-2.019,1.762-4.199,1.885-6.375L97.318,40.97z"/>
			<path fill="#FF0000" stroke="#000000" stroke-miterlimit="10" d="M122.418,35.673c-3.729-6.458-11.986-8.669-18.441-4.941
				c-3.875,2.237-6.207,6.107-6.658,10.238l7.953,13.786c3.568,1.574,7.76,1.575,11.467-0.274l7.451-12.885
				C124.066,39.573,123.5,37.547,122.418,35.673z"/>
		</g>
	</g>
	<path fill="#FFFFFF" stroke="#000000" stroke-miterlimit="10" d="M108.932,64.194c-1.582-1.583-3.514-2.596-5.545-3.063
		c-3.733-0.859-12.827,5.728-13.385,7.259c-1.479,4.068-0.601,8.801,2.662,12.064c4.489,4.492,11.77,4.495,16.262,0.005
		C113.419,75.969,113.422,68.687,108.932,64.194z"/>
	<circle fill="#FFFFFF" stroke="#000000" stroke-miterlimit="10" cx="57.368" cy="72.639" r="11.499"/>
	<g>
		<path fill="#FFFFFF" stroke="#000000" stroke-miterlimit="10" d="M6.252,42.462c3.037-1.753,6.541-1.957,9.605-0.867l7.451,12.885
			c-0.586,3.205-2.516,6.144-5.557,7.901C12.25,65.555,5.217,63.67,2.042,58.17S0.751,45.637,6.252,42.462z"/>
		<g>
			<path fill="#2F2F2F" stroke="#000000" stroke-miterlimit="10" d="M42.729,40.969c4.158-2.095,8.902-2.002,12.848-0.089
				l8.127,14.076c-0.335,4.634-2.886,9.025-7.214,11.523c-2.039,1.177-4.244,1.788-6.444,1.909
				c-5.284,0.289-10.536-2.32-13.363-7.216c-0.008-0.014-0.014-0.029-0.021-0.043c-1.156-2.019-1.762-4.199-1.885-6.375
				L42.729,40.969z"/>
			<path fill="#FF0000" stroke="#000000" stroke-miterlimit="10" d="M17.629,35.672c3.729-6.458,11.986-8.669,18.441-4.941
				c3.875,2.237,6.207,6.107,6.658,10.238l-7.953,13.786c-3.568,1.574-7.76,1.575-11.467-0.274l-7.451-12.885
				C15.98,39.572,16.547,37.546,17.629,35.672z"/>
		</g>
	</g>
	<path fill="#FFFFFF" stroke="#000000" stroke-miterlimit="10" d="M31.115,64.193c1.582-1.583,3.514-2.596,5.545-3.063
		c3.733-0.859,12.827,5.728,13.385,7.259c1.479,4.068,0.601,8.801-2.662,12.064c-4.489,4.492-11.77,4.495-16.262,0.005
		C26.628,75.968,26.625,68.686,31.115,64.193z"/>
	<g>
		<path fill="#2F2F2F" stroke="#000000" stroke-miterlimit="10" d="M70.856,27.461c-0.277-0.016-0.552-0.04-0.833-0.04
			c-5.666,0-10.555,3.255-12.937,7.991c-0.837,1.666-1.371,3.51-1.511,5.467l8.126,14.077c1.913,0.929,4.051,1.465,6.321,1.465
			s4.408-0.536,6.32-1.465l8.127-14.076C83.955,33.636,78.127,27.876,70.856,27.461z"/>
		<g>
			<path fill="#FFFFFF" stroke="#000000" stroke-miterlimit="10" d="M52.507,9.937c-0.587-3.203-2.516-6.139-5.557-7.894
				c-5.5-3.177-12.533-1.292-15.709,4.208c-3.176,5.501-1.291,12.534,4.209,15.711c3.039,1.754,6.544,1.957,9.61,0.865L52.507,9.937
				z"/>
			<path fill="#FF0000" stroke="#000000" stroke-miterlimit="10" d="M70.216,15.253c-3.59-6.218-11.372-8.482-17.708-5.316
				l-7.447,12.891c0.123,2.023,0.689,4.05,1.772,5.926c2.24,3.879,6.117,6.212,10.254,6.659c2.748,0.297,12.652-5.422,13.769-7.951
				C72.537,23.656,72.455,19.132,70.216,15.253z"/>
		</g>
	</g>
</g>
<g id="circles">
	<circle id="Hydrogen_8_" fill="none" cx="41.199" cy="12" r="11.5"/>
	<circle id="Hydrogen_7_" fill="none" cx="11.904" cy="52.423" r="11.5"/>
	<circle id="Hydrogen_6_" fill="none" cx="100.803" cy="72.438" r="11.5"/>
	<circle id="Hydrogen_5_" fill="none" cx="82.679" cy="72.64" r="11.5"/>
	<circle id="Hydrogen_4_" fill="none" cx="57.368" cy="72.64" r="11.5"/>
	<circle id="Hydrogen_3_" fill="none" cx="39.245" cy="72.438" r="11.5"/>
	<circle id="Hydrogen_2_" fill="none" cx="41.199" cy="12" r="11.5"/>
	<circle id="Hydrogen_1_" fill="none" cx="77.527" cy="23.003" r="11.5"/>
	<circle id="Hydrogen" fill="none" cx="128.143" cy="52.424" r="11.5"/>
	<circle id="Oxygen_2_" fill="none" cx="29.349" cy="42.412" r="13.492"/>
	<circle id="Oxygen_1_" fill="none" cx="58.54" cy="21.993" r="13.479"/>
	<circle id="Oxygen" fill="none" cx="110.754" cy="42.412" r="13.479"/>
	<circle id="Carbon_2_" fill="none" cx="49.239" cy="53.917" r="14.495"/>
	<circle id="Carbon_1_" fill="none" cx="90.808" cy="53.917" r="14.495"/>
	<circle id="Carbon" fill="none" cx="70.023" cy="41.922" r="14.495"/>
</g>
</svg>
