<?xml version="1.0" encoding="utf-8"?>
<!-- Generator: Adobe Illustrator 15.0.2, SVG Export Plug-In . SVG Version: 6.00 Build 0)  -->
<!DOCTYPE svg PUBLIC "-//W3C//DTD SVG 1.1//EN" "http://www.w3.org/Graphics/SVG/1.1/DTD/svg11.dtd">
<svg version="1.1" xmlns="http://www.w3.org/2000/svg" xmlns:xlink="http://www.w3.org/1999/xlink" x="0px" y="0px" width="47px"
	 height="29px" viewBox="0 0 47 29" enable-background="new 0 0 47 29" xml:space="preserve">
<g id="object">
	<g>
		<path fill="#A9FFFF" stroke="#000000" stroke-miterlimit="10" d="M32.5,0.5c-4.966,0-9.317,2.593-11.803,6.491V22.01
			c2.485,3.897,6.837,6.49,11.803,6.49c7.732,0,14-6.268,14-14S40.232,0.5,32.5,0.5z"/>
		<path fill="#FFFFFF" stroke="#000000" stroke-miterlimit="10" d="M20.697,6.991C18.589,4.551,15.479,3,12,3
			C5.649,3,0.5,8.149,0.5,14.5C0.5,20.852,5.649,26,12,26c3.479,0,6.589-1.551,8.697-3.99V6.991z"/>
	</g>
</g>
<g id="circles">
	<circle id="Chlorine" fill="none" cx="32.5" cy="14.5" r="14"/>
	<circle id="Hydrogen" fill="none" cx="12" cy="14.5" r="11.5"/>
</g>
</svg>
