<?xml version="1.0" encoding="utf-8"?>
<!-- Generator: Adobe Illustrator 15.0.2, SVG Export Plug-In . SVG Version: 6.00 Build 0)  -->
<!DOCTYPE svg PUBLIC "-//W3C//DTD SVG 1.1//EN" "http://www.w3.org/Graphics/SVG/1.1/DTD/svg11.dtd">
<svg version="1.1" xmlns="http://www.w3.org/2000/svg" xmlns:xlink="http://www.w3.org/1999/xlink" x="0px" y="0px" width="42px"
	 height="24px" viewBox="0 0 42 24" enable-background="new 0 0 42 24" xml:space="preserve">
<g id="object">
	<g>
		<path fill="#FFFFFF" stroke="#000000" stroke-miterlimit="10" d="M21,4.854C18.893,2.204,15.648,0.5,12,0.5
			C5.649,0.5,0.5,5.649,0.5,12c0,6.352,5.149,11.5,11.5,11.5c3.648,0,6.893-1.704,9-4.354V4.854z"/>
		<path fill="#FFFFFF" stroke="#000000" stroke-miterlimit="10" d="M30,0.5c-3.648,0-6.893,1.704-9,4.354v14.293
			c2.107,2.649,5.352,4.354,9,4.354c6.352,0,11.5-5.148,11.5-11.5C41.5,5.649,36.352,0.5,30,0.5z"/>
	</g>
</g>
<g id="circles">
	<circle id="Hydrogen_1_" fill="none" cx="12" cy="12" r="11.5"/>
	<circle id="Hydrogen" fill="none" cx="30" cy="12" r="11.5"/>
</g>
</svg>
