<?xml version="1.0" encoding="utf-8"?>
<!-- Generator: Adobe Illustrator 15.0.2, SVG Export Plug-In . SVG Version: 6.00 Build 0)  -->
<!DOCTYPE svg PUBLIC "-//W3C//DTD SVG 1.1//EN" "http://www.w3.org/Graphics/SVG/1.1/DTD/svg11.dtd">
<svg version="1.1" xmlns="http://www.w3.org/2000/svg" xmlns:xlink="http://www.w3.org/1999/xlink" x="0px" y="0px"
	 width="57.839px" height="45.811px" viewBox="0 0 57.839 45.811" enable-background="new 0 0 57.839 45.811" xml:space="preserve">
<g id="object">
	<g>
		<path fill="#FFFFFF" stroke="#000000" stroke-miterlimit="10" d="M53.82,25.531c-2.396-2.31-5.534-3.36-8.613-3.191L34.353,33.599
			c-0.056,3.083,1.109,6.181,3.504,8.49c4.572,4.408,11.852,4.275,16.262-0.298C58.525,37.218,58.393,29.938,53.82,25.531z"/>
		<path fill="#FFFFFF" stroke="#000000" stroke-miterlimit="10" d="M12.633,22.34c-3.08-0.169-6.218,0.881-8.614,3.191
			c-4.573,4.408-4.706,11.688-0.298,16.261s11.688,4.706,16.261,0.298c2.398-2.312,3.562-5.412,3.504-8.498L12.633,22.34z"/>
		<path fill="#FFFF00" stroke="#000000" stroke-miterlimit="10" d="M45.207,22.34c1.744-5.89,0.238-12.521-4.489-17.078
			c-6.758-6.518-17.521-6.319-24.037,0.439c-4.404,4.567-5.729,10.96-4.048,16.639l10.854,11.252
			c3.525,1.188,7.35,1.191,10.866,0.007L45.207,22.34z"/>
	</g>
</g>
<g id="circles">
	<circle id="Hydrogen_1_" fill="none" cx="45.839" cy="33.81" r="11.501"/>
	<circle id="Hydrogen" fill="none" cx="12" cy="33.81" r="11.5"/>
	<circle id="Sulfur" fill="none" cx="28.92" cy="17.5" r="17"/>
</g>
</svg>
