<?xml version="1.0" encoding="utf-8"?>
<!-- Generator: Adobe Illustrator 15.1.0, SVG Export Plug-In . SVG Version: 6.00 Build 0)  -->
<!DOCTYPE svg PUBLIC "-//W3C//DTD SVG 1.1//EN" "http://www.w3.org/Graphics/SVG/1.1/DTD/svg11.dtd">
<svg version="1.1" xmlns="http://www.w3.org/2000/svg" xmlns:xlink="http://www.w3.org/1999/xlink" x="0px" y="0px" width="87px"
	 height="60.5px" viewBox="0 0 87 60.5" enable-background="new 0 0 87 60.5" xml:space="preserve">
<g id="object">
	<circle fill="#FFFFFF" stroke="#1D1D1B" stroke-miterlimit="10" cx="12" cy="30.25" r="11.5"/>
	<circle fill="#231F20" cx="28" cy="27.249" r="1.5"/>
	<circle fill="#231F20" cx="28" cy="33.249" r="1.5"/>
	<circle fill="#005555" stroke="#000000" stroke-miterlimit="10" cx="56.75" cy="30.25" r="24"/>
	<circle fill="#231F20" cx="85.5" cy="33.251" r="1.5"/>
	<circle fill="#231F20" cx="85.5" cy="27.251" r="1.5"/>
	<circle fill="#231F20" cx="59.751" cy="1.5" r="1.5"/>
	<circle fill="#231F20" cx="53.751" cy="1.5" r="1.5"/>
	<circle fill="#231F20" cx="53.749" cy="59" r="1.5"/>
	<circle fill="#231F20" cx="59.749" cy="59" r="1.5"/>
</g>
<g id="circles">
	<circle id="Dot_1_" fill="none" cx="12" cy="30.25" r="11.5"/>
	<circle id="Dot" fill="none" cx="28" cy="27.249" r="1.5"/>
	<circle id="Dot_8_" fill="none" cx="28" cy="33.249" r="1.5"/>
	<circle id="Dot_2_" fill="none" cx="85.5" cy="27.249" r="1.5"/>
	<circle id="Dot_7_" fill="none" cx="85.5" cy="33.249" r="1.5"/>
	<circle id="Dot_6_" fill="none" cx="59.751" cy="1.5" r="1.5"/>
	<circle id="Dot_5_" fill="none" cx="53.751" cy="1.5" r="1.5"/>
	<circle id="Dot_4_" fill="none" cx="53.749" cy="59" r="1.5"/>
	<circle id="Dot_3_" fill="none" cx="59.749" cy="59" r="1.5"/>
	<circle id="Bromine" fill="none" cx="56.75" cy="30.25" r="24"/>
</g>
</svg>
