<?xml version="1.0" encoding="utf-8"?>
<!-- Generator: Adobe Illustrator 15.0.2, SVG Export Plug-In . SVG Version: 6.00 Build 0)  -->
<!DOCTYPE svg PUBLIC "-//W3C//DTD SVG 1.1//EN" "http://www.w3.org/Graphics/SVG/1.1/DTD/svg11.dtd">
<svg version="1.1" xmlns="http://www.w3.org/2000/svg" xmlns:xlink="http://www.w3.org/1999/xlink" x="0px" y="0px" width="67px"
	 height="49px" viewBox="0 0 67 49" enable-background="new 0 0 67 49" xml:space="preserve">
<g id="object">
	<g>
		<path fill="#FFFFFF" stroke="#000000" stroke-miterlimit="10" d="M19.968,16.219C17.9,14.229,15.096,13,12,13
			C5.648,13,0.5,18.148,0.5,24.5S5.648,36,12,36c3.096,0,5.9-1.229,7.968-3.219V16.219z"/>
		<path fill="#005555" stroke="#000000" stroke-miterlimit="10" d="M42.5,0.5c-10.344,0-19.16,6.544-22.532,15.719v16.562
			C23.341,41.955,32.156,48.5,42.5,48.5c13.254,0,24-10.746,24-24C66.5,11.244,55.754,0.5,42.5,0.5z"/>
	</g>
</g>
<g id="circles">
	<circle id="Bromine" fill="none" cx="42.5" cy="24.5" r="24"/>
	<circle id="Hydrogen" fill="none" cx="12" cy="24.5" r="11.5"/>
</g>
</svg>
