<?xml version="1.0" encoding="utf-8"?>
<!-- Generator: Adobe Illustrator 15.0.2, SVG Export Plug-In . SVG Version: 6.00 Build 0)  -->
<!DOCTYPE svg PUBLIC "-//W3C//DTD SVG 1.1//EN" "http://www.w3.org/Graphics/SVG/1.1/DTD/svg11.dtd">
<svg version="1.1" xmlns="http://www.w3.org/2000/svg" xmlns:xlink="http://www.w3.org/1999/xlink" x="0px" y="0px" width="55px"
	 height="37px" viewBox="0 0 55 37" enable-background="new 0 0 55 37" xml:space="preserve">
<g id="object">
	<path fill="#B1B1B1" d="M38.5,2c-2.931,0-5.768,0.778-8.247,2.213C26.985,1.52,22.854,0,18.5,0C8.299,0,0,8.299,0,18.5
		S8.299,37,18.5,37c4.353,0,8.484-1.52,11.752-4.213C32.732,34.222,35.569,35,38.5,35C47.598,35,55,27.598,55,18.5S47.598,2,38.5,2z
		"/>
	<g>
		<path fill="#FFFFFF" stroke="#000000" stroke-miterlimit="10" d="M38.5,7c-3.505,0-6.639,1.573-8.748,4.047v14.906
			C31.861,28.427,34.995,30,38.5,30C44.851,30,50,24.852,50,18.5S44.851,7,38.5,7z"/>
		<path fill="#FF0000" stroke="#000000" stroke-miterlimit="10" d="M29.752,11.047C27.335,7.404,23.2,5,18.5,5
			C11.044,5,5,11.043,5,18.5C5,25.956,11.044,32,18.5,32c4.699,0,8.834-2.404,11.252-6.047V11.047z"/>
	</g>
</g>
<g id="circles">
	<circle id="Oxygen-Ion" fill="none" cx="18.5" cy="18.5" r="18.5"/>
	<circle id="Hydrogen-Ion" fill="none" cx="38.5" cy="18.49" r="16.49"/>
</g>
</svg>
