<?xml version="1.0" encoding="utf-8"?>
<!-- Generator: Adobe Illustrator 15.0.2, SVG Export Plug-In . SVG Version: 6.00 Build 0)  -->
<!DOCTYPE svg PUBLIC "-//W3C//DTD SVG 1.1//EN" "http://www.w3.org/Graphics/SVG/1.1/DTD/svg11.dtd">
<svg version="1.1" xmlns="http://www.w3.org/2000/svg" xmlns:xlink="http://www.w3.org/1999/xlink" x="0px" y="0px"
	 width="66.127px" height="47.505px" viewBox="0 0 66.127 47.505" enable-background="new 0 0 66.127 47.505" xml:space="preserve">
<g id="object">
	<path fill="#B1B1B1" d="M63.695,22.401c1.732-7.01-1.303-14.443-7.789-18.187c-3.521-2.033-7.767-2.682-11.689-1.841
		C41.452,0.82,38.327,0,35.167,0c-6.596,0-12.74,3.546-16.033,9.252c-0.436,0.753-0.814,1.529-1.135,2.324
		c-3.374-0.315-6.804,0.439-9.747,2.139c-7.879,4.549-10.589,14.66-6.04,22.54c2.939,5.09,8.418,8.252,14.3,8.252
		c2.883,0,5.732-0.766,8.239-2.213c2.482-1.433,4.506-3.45,5.929-5.844c1.167,0.29,2.363,0.466,3.569,0.523
		c2.412,6.216,8.442,10.531,15.377,10.531c9.098,0,16.5-7.402,16.5-16.5C66.127,27.945,65.277,24.978,63.695,22.401z"/>
	<g>
		<circle fill="#FFFFFF" stroke="#000000" stroke-miterlimit="10" cx="47.657" cy="18.504" r="11.499"/>
		<path fill="#FFFFFF" stroke="#000000" stroke-miterlimit="10" d="M21.687,17.745c-3.347-1.688-7.448-1.714-10.935,0.3
			c-5.501,3.176-7.385,10.21-4.21,15.71c3.176,5.5,10.209,7.385,15.709,4.209c3.114-1.798,5.066-4.834,5.601-8.127L21.687,17.745z"
			/>
		<path fill="#FF0000" stroke="#000000" stroke-miterlimit="10" d="M41.905,6.812c-6.457-3.729-14.714-1.517-18.442,4.941
			c-1.095,1.896-1.663,3.946-1.776,5.992l6.165,12.092c0.185,0.119,0.36,0.246,0.553,0.357c6.458,3.727,14.714,1.516,18.442-4.941
			C50.574,18.795,48.362,10.538,41.905,6.812z"/>
		<path fill="#FFFFFF" stroke="#000000" stroke-miterlimit="10" d="M49.627,19.505c-0.392,0-0.778,0.021-1.16,0.059
			c-4.247,0.426-10.718,8.884-10.255,12.785c0.678,5.717,5.52,10.156,11.415,10.156c6.351,0,11.5-5.148,11.5-11.5
			S55.978,19.505,49.627,19.505z"/>
	</g>
</g>
<g id="circles">
	<circle id="Hydrogen-Ion_2_" fill="none" cx="16.426" cy="28.001" r="16.489"/>
	<circle id="Hydrogen-Ion_1_" fill="none" cx="49.657" cy="31.005" r="16.489"/>
	<circle id="Hydrogen-Ion" fill="none" cx="47.657" cy="18.505" r="16.489"/>
	<circle id="Oxygen-Ion" fill="none" cx="35.172" cy="18.528" r="18.512"/>
</g>
</svg>
