<?xml version="1.0" encoding="utf-8"?>
<!-- Generator: Adobe Illustrator 15.0.2, SVG Export Plug-In . SVG Version: 6.00 Build 0)  -->
<!DOCTYPE svg PUBLIC "-//W3C//DTD SVG 1.1//EN" "http://www.w3.org/Graphics/SVG/1.1/DTD/svg11.dtd">
<svg version="1.1" xmlns="http://www.w3.org/2000/svg" xmlns:xlink="http://www.w3.org/1999/xlink" x="0px" y="0px" width="93.5px"
	 height="52px" viewBox="0 0 93.5 52" enable-background="new 0 0 93.5 52" xml:space="preserve">
<g id="object">
	<g>
		<path fill="#5500A9" stroke="#000000" stroke-miterlimit="10" d="M46.75,11.188C42.125,4.72,34.558,0.5,26,0.5
			C11.918,0.5,0.5,11.917,0.5,26c0,14.083,11.418,25.5,25.5,25.5c8.558,0,16.125-4.22,20.75-10.688V11.188z"/>
		<path fill="#5500A9" stroke="#000000" stroke-miterlimit="10" d="M67.5,0.5c-8.557,0-16.124,4.22-20.75,10.688v29.625
			C51.376,47.281,58.943,51.5,67.5,51.5C81.584,51.5,93,40.083,93,26C93,11.917,81.584,0.5,67.5,0.5z"/>
	</g>
</g>
<g id="circles">
	<circle id="Iodine_1_" fill="none" cx="26" cy="26" r="25.5"/>
	<circle id="Iodine" fill="none" cx="67.5" cy="26" r="25.5"/>
</g>
</svg>
