<?xml version="1.0" encoding="utf-8"?>
<!-- Generator: Adobe Illustrator 15.0.2, SVG Export Plug-In . SVG Version: 6.00 Build 0)  -->
<!DOCTYPE svg PUBLIC "-//W3C//DTD SVG 1.1//EN" "http://www.w3.org/Graphics/SVG/1.1/DTD/svg11.dtd">
<svg version="1.1" xmlns="http://www.w3.org/2000/svg" xmlns:xlink="http://www.w3.org/1999/xlink" x="0px" y="0px"
	 width="105.618px" height="79.533px" viewBox="0 0 105.618 79.533" enable-background="new 0 0 105.618 79.533"
	 xml:space="preserve">
<g id="object">
	<path fill="#B1B1B1" d="M102.807,35.55c-1.644-2.636-3.873-4.767-6.497-6.266c-0.269-1.312-0.668-2.605-1.228-3.858
		c-2.969-6.66-9.603-10.965-16.9-10.965c-2.604,0-5.138,0.541-7.53,1.608c-0.438,0.195-0.852,0.419-1.266,0.644
		c-0.26-2.572-1.057-5.086-2.373-7.367c-3.295-5.708-9.438-9.253-16.033-9.253c-3.232,0-6.427,0.858-9.238,2.481
		C32.908,7.674,29.87,19.011,34.97,27.845c1.656,2.869,4.046,5.208,6.879,6.815c-0.799,3.332-0.814,6.85,0.028,10.292
		c-2.846,1.608-5.246,3.951-6.907,6.829c-5.101,8.834-2.062,20.171,6.771,25.271c2.812,1.623,6.006,2.481,9.238,2.481
		c6.595,0,12.738-3.545,16.033-9.252c1.657-2.871,2.486-6.114,2.461-9.375c1.659-0.49,3.264-1.171,4.768-2.039
		c0.056-0.032,0.105-0.071,0.16-0.104c2.367,2.247,5.305,3.854,8.536,4.603c1.375,0.319,2.785,0.48,4.188,0.48
		c8.65,0,16.056-5.893,18.007-14.33C106.25,44.704,105.423,39.743,102.807,35.55z"/>
	<path fill="#B1B1B1" d="M19.5,20.307c-10.752,0-19.5,8.748-19.5,19.5s8.748,19.5,19.5,19.5S39,50.56,39,39.807
		S30.252,20.307,19.5,20.307z"/>
	<path fill="#FF0000" stroke="#000000" stroke-miterlimit="10" d="M83.689,45.294c-6.807,3.037-14.79-0.02-17.828-6.83
		c-3.037-6.809,0.021-14.792,6.828-17.829c6.81-3.037,14.793,0.02,17.828,6.829C93.557,34.275,90.501,42.256,83.689,45.294z"/>
	<path fill="#FFFF00" stroke="#000000" stroke-miterlimit="10" d="M54.743,25.09c-7.97,4.602-10.787,14.678-6.474,22.733
		l15.527,8.98c2.709-0.086,5.436-0.818,7.945-2.267c8.133-4.695,10.917-15.091,6.223-23.223
		C73.272,23.182,62.873,20.396,54.743,25.09z"/>
	<path fill="#FF0000" stroke="#000000" stroke-miterlimit="10" d="M48.269,47.823c-3.643,0.753-6.963,2.983-8.969,6.458
		c-3.729,6.458-1.516,14.713,4.941,18.441s14.713,1.517,18.441-4.941c2.002-3.468,2.276-7.452,1.113-10.978L48.269,47.823z"/>
	<path fill="#FF0000" stroke="#000000" stroke-miterlimit="10" d="M90.157,32.19c-3.901-0.903-7.792-0.002-10.826,2.14
		c-2.612,1.845-5.587,14.669-4.056,17.472c1.782,3.264,4.885,5.788,8.791,6.693c7.264,1.684,14.516-2.84,16.196-10.105
		C101.947,41.125,97.421,33.873,90.157,32.19z"/>
	<path fill="#FF0000" stroke="#000000" stroke-miterlimit="10" d="M44.242,6.904c-6.457,3.728-8.67,11.983-4.941,18.441
		c2.005,3.473,5.324,5.705,8.966,6.457c3.128,0.646,14.521-5.932,15.525-8.964c1.169-3.53,0.896-7.52-1.108-10.993
		C58.955,5.387,50.699,3.176,44.242,6.904z"/>
	<circle fill="#00A9FF" stroke="#000000" stroke-miterlimit="10" cx="19.5" cy="39.807" r="14.5"/>
</g>
<g id="circles">
	<circle id="Iron-Ion" fill="none" cx="19.5" cy="39.807" r="19.477"/>
	<circle id="Oxygen-Ion_3_" fill="none" cx="78.188" cy="32.964" r="18.503"/>
	<circle id="Oxygen-Ion_2_" fill="none" cx="87.108" cy="45.344" r="18.49"/>
	<circle id="Oxygen-Ion_1_" fill="none" cx="50.984" cy="61.178" r="18.355"/>
	<circle id="Oxygen-Ion" fill="none" cx="50.984" cy="18.469" r="18.469"/>
	<circle id="Sulfur-Ion" fill="none" cx="63.248" cy="39.777" r="22.032"/>
</g>
</svg>
