<?xml version="1.0" encoding="utf-8"?>
<!-- Generator: Adobe Illustrator 15.0.2, SVG Export Plug-In . SVG Version: 6.00 Build 0)  -->
<!DOCTYPE svg PUBLIC "-//W3C//DTD SVG 1.1//EN" "http://www.w3.org/Graphics/SVG/1.1/DTD/svg11.dtd">
<svg version="1.1" xmlns="http://www.w3.org/2000/svg" xmlns:xlink="http://www.w3.org/1999/xlink" x="0px" y="0px"
	 width="125.91px" height="64.348px" viewBox="0 0 125.91 64.348" enable-background="new 0 0 125.91 64.348" xml:space="preserve">
<g id="object">
	<g>
		<path fill="#00A955" stroke="#000000" stroke-miterlimit="10" d="M84.814,17.72c-0.272-1.123-0.634-2.24-1.091-3.341
			C78.957,2.903,65.791-2.54,54.313,2.226c-6.906,2.868-11.622,8.779-13.248,15.531l10.15,24.448
			c5.932,3.617,13.448,4.45,20.355,1.583c1.101-0.457,2.145-0.993,3.131-1.596L84.814,17.72z"/>
		<path fill="#5500A9" stroke="#000000" stroke-miterlimit="10" d="M41.065,17.757c-6.952-5.076-16.306-6.509-24.837-2.967
			C3.224,20.19-2.945,35.111,2.456,48.119c5.4,13.006,20.323,19.174,33.33,13.771c8.53-3.541,14.118-11.179,15.43-19.686
			L41.065,17.757z"/>
		<path fill="#5500A9" stroke="#000000" stroke-miterlimit="10" d="M109.641,14.712c-8.534-3.527-17.884-2.078-24.826,3.008
			L74.701,42.191c1.327,8.502,6.928,16.129,15.463,19.655c13.018,5.38,27.928-0.812,33.306-13.827
			C128.849,35.003,122.659,20.091,109.641,14.712z"/>
	</g>
</g>
<g id="outline">
	<circle id="Lead" fill="none" cx="62.941" cy="23.006" r="22.507"/>
	<circle id="Iodine_1_" fill="none" cx="26.007" cy="38.34" r="25.507"/>
	<circle id="Iodine" fill="none" cx="99.903" cy="38.28" r="25.507"/>
</g>
</svg>
