<?xml version="1.0" encoding="utf-8"?>
<!-- Generator: Adobe Illustrator 15.0.2, SVG Export Plug-In . SVG Version: 6.00 Build 0)  -->
<!DOCTYPE svg PUBLIC "-//W3C//DTD SVG 1.1//EN" "http://www.w3.org/Graphics/SVG/1.1/DTD/svg11.dtd">
<svg version="1.1" xmlns="http://www.w3.org/2000/svg" xmlns:xlink="http://www.w3.org/1999/xlink" x="0px" y="0px"
	 width="94.017px" height="39.005px" viewBox="0 0 94.017 39.005" enable-background="new 0 0 94.017 39.005" xml:space="preserve">
<g id="object">
	<path fill="#B1B1B1" d="M29.258,2.615C26.295,0.904,22.928,0,19.521,0c-6.952,0-13.428,3.737-16.9,9.752
		c-2.604,4.51-3.296,9.765-1.948,14.796c1.348,5.032,4.574,9.237,9.085,11.841c2.963,1.71,6.329,2.615,9.736,2.615
		c6.952,0,13.429-3.737,16.901-9.753c2.604-4.51,3.297-9.765,1.948-14.796S33.769,5.219,29.258,2.615z"/>
	<path fill="#B1B1B1" d="M77.517,3.002c-2.931,0-5.763,0.789-8.242,2.224c-3.269-2.698-7.401-4.225-11.758-4.225
		c-10.201,0-18.5,8.299-18.5,18.5s8.299,18.5,18.5,18.5c4.355,0,8.487-1.527,11.757-4.224c2.48,1.436,5.312,2.224,8.243,2.224
		c9.099,0,16.5-7.402,16.5-16.5S86.615,3.002,77.517,3.002z"/>
	<circle fill="#A900FF" stroke="#000000" stroke-miterlimit="10" cx="19.508" cy="19.502" r="14.5"/>
	<path fill="#FFFFFF" stroke="#000000" stroke-miterlimit="10" d="M77.517,8.002c-3.505,0-6.639,1.573-8.748,4.046v14.907
		c2.109,2.474,5.243,4.047,8.748,4.047c6.351,0,11.5-5.148,11.5-11.5C89.017,13.151,83.867,8.002,77.517,8.002z"/>
	<path fill="#FF0000" stroke="#000000" stroke-miterlimit="10" d="M68.769,12.049c-2.417-3.643-6.552-6.047-11.252-6.047
		c-7.456,0-13.5,6.043-13.5,13.5c0,7.456,6.044,13.5,13.5,13.5c4.699,0,8.834-2.404,11.252-6.047V12.049z"/>
</g>
<g id="circles">
	<circle id="Lithium-Ion" fill="none" cx="19.502" cy="19.502" r="19.502"/>
	<circle id="Oxygen-Ion" fill="none" cx="57.507" cy="19.484" r="18.481"/>
	<circle id="Hydrogen-Ion" fill="none" cx="77.506" cy="19.502" r="16.5"/>
</g>
</svg>
