<?xml version="1.0" encoding="utf-8"?>
<!-- Generator: Adobe Illustrator 15.0.2, SVG Export Plug-In . SVG Version: 6.00 Build 0)  -->
<!DOCTYPE svg PUBLIC "-//W3C//DTD SVG 1.1//EN" "http://www.w3.org/Graphics/SVG/1.1/DTD/svg11.dtd">
<svg version="1.1" xmlns="http://www.w3.org/2000/svg" xmlns:xlink="http://www.w3.org/1999/xlink" x="0px" y="0px"
	 width="120.826px" height="79.542px" viewBox="0 0 120.826 79.542" enable-background="new 0 0 120.826 79.542"
	 xml:space="preserve">
<g id="object">
	<path fill="#B1B1B1" d="M26.5,13.22C11.888,13.22,0,25.108,0,39.72s11.888,26.5,26.5,26.5c14.612,0,26.5-11.888,26.5-26.5
		S41.112,13.22,26.5,13.22z"/>
	<path fill="#B1B1B1" d="M117.991,35.458c-1.644-2.635-3.873-4.767-6.496-6.266c-0.27-1.312-0.669-2.605-1.228-3.858
		c-2.97-6.661-9.604-10.966-16.901-10.966c-2.604,0-5.138,0.541-7.53,1.608c-0.438,0.195-0.852,0.419-1.267,0.644
		c-0.259-2.572-1.056-5.086-2.372-7.367C78.902,3.545,72.759,0,66.164,0c-3.232,0-6.426,0.858-9.238,2.481
		c-8.834,5.101-11.872,16.438-6.771,25.271c1.655,2.869,4.045,5.207,6.879,6.815c-0.798,3.332-0.814,6.851,0.028,10.291
		c-2.846,1.608-5.247,3.951-6.908,6.829c-2.471,4.28-3.127,9.266-1.849,14.039c1.279,4.772,4.341,8.762,8.62,11.232
		c2.812,1.623,6.006,2.48,9.238,2.48c6.595,0,12.739-3.545,16.034-9.252c1.658-2.871,2.487-6.114,2.461-9.376
		c1.659-0.49,3.264-1.171,4.768-2.039c0.056-0.032,0.104-0.071,0.16-0.104c2.366,2.246,5.304,3.854,8.535,4.604
		c1.376,0.318,2.785,0.48,4.188,0.48c8.651,0,16.056-5.893,18.008-14.33C121.434,44.612,120.607,39.651,117.991,35.458z"/>
	<circle fill="#555500" stroke="#000000" stroke-miterlimit="10" cx="26.5" cy="39.72" r="21.5"/>
	<path fill="#FF0000" stroke="#000000" stroke-miterlimit="10" d="M63.453,47.731c-3.643,0.753-6.963,2.982-8.969,6.457
		c-3.729,6.458-1.516,14.714,4.941,18.441s14.713,1.517,18.441-4.941c2.002-3.468,2.276-7.452,1.113-10.978L63.453,47.731z"/>
	<path fill="#FF0000" stroke="#000000" stroke-miterlimit="10" d="M98.873,45.201c-6.807,3.037-14.79-0.02-17.828-6.829
		c-3.037-6.809,0.021-14.792,6.828-17.829c6.81-3.037,14.793,0.02,17.828,6.829C108.741,34.183,105.686,42.164,98.873,45.201z"/>
	<path fill="#FFFF00" stroke="#000000" stroke-miterlimit="10" d="M69.927,24.998c-7.97,4.602-10.787,14.678-6.474,22.733
		L78.98,56.71c2.709-0.086,5.436-0.818,7.945-2.268c8.133-4.695,10.917-15.091,6.223-23.223
		C88.456,23.089,78.057,20.304,69.927,24.998z"/>
	<path fill="#FF0000" stroke="#000000" stroke-miterlimit="10" d="M105.341,32.097c-3.901-0.903-7.792-0.002-10.826,2.14
		c-2.612,1.845-5.587,14.669-4.056,17.472c1.782,3.264,4.885,5.788,8.791,6.693c7.264,1.684,14.516-2.841,16.196-10.105
		C117.131,41.033,112.605,33.781,105.341,32.097z"/>
	<path fill="#FF0000" stroke="#000000" stroke-miterlimit="10" d="M59.426,6.811c-6.457,3.728-8.67,11.983-4.941,18.441
		c2.005,3.474,5.324,5.704,8.966,6.457c3.128,0.646,14.521-5.933,15.525-8.964c1.169-3.53,0.896-7.52-1.108-10.993
		C74.139,5.294,65.883,3.083,59.426,6.811z"/>
</g>
<g id="circles">
	<circle id="Magnesium-Ion" fill="none" cx="26.5" cy="39.714" r="26.494"/>
	<circle id="Oxygen-Ion_3_" fill="none" cx="66.171" cy="18.456" r="18.455"/>
	<circle id="Oxygen-Ion_2_" fill="none" cx="66.171" cy="61.085" r="18.455"/>
	<circle id="Sulfur-Ion" fill="none" cx="78.433" cy="39.72" r="21.979"/>
	<path id="Oxygen-Ion_1_" fill="none" d="M120.826,45.251c0,10.222-8.282,18.502-18.503,18.502c-10.22,0-18.502-8.28-18.502-18.502
		c0-10.22,8.282-18.502,18.502-18.502C112.544,26.749,120.826,35.032,120.826,45.251z"/>
	<path id="Oxygen-Ion" fill="none" d="M111.877,32.872c0,10.222-8.282,18.503-18.504,18.503c-10.221,0-18.503-8.281-18.503-18.503
		c0-10.22,8.282-18.503,18.503-18.503C103.595,14.368,111.877,22.651,111.877,32.872z"/>
</g>
</svg>
