<?xml version="1.0" encoding="utf-8"?>
<!-- Generator: Adobe Illustrator 15.0.2, SVG Export Plug-In . SVG Version: 6.00 Build 0)  -->
<!DOCTYPE svg PUBLIC "-//W3C//DTD SVG 1.1//EN" "http://www.w3.org/Graphics/SVG/1.1/DTD/svg11.dtd">
<svg version="1.1" xmlns="http://www.w3.org/2000/svg" xmlns:xlink="http://www.w3.org/1999/xlink" x="0px" y="0px" width="132px"
	 height="46px" viewBox="0 0 132 46" enable-background="new 0 0 132 46" xml:space="preserve">
<g id="object">
	<path fill="#B1B1B1" d="M110.5,1.5C98.645,1.5,89,11.145,89,23s9.645,21.5,21.5,21.5S132,34.855,132,23S122.355,1.5,110.5,1.5z"/>
	<path fill="#B1B1B1" d="M21.5,1.5C9.645,1.5,0,11.145,0,23s9.645,21.5,21.5,21.5S43,34.855,43,23S33.355,1.5,21.5,1.5z"/>
	<path fill="#B1B1B1" d="M66,0C53.317,0,43,10.318,43,23s10.317,23,23,23s23-10.317,23-23S78.683,0,66,0z"/>
	<circle fill="#00FF00" stroke="#000000" stroke-miterlimit="10" cx="110.5" cy="23" r="16.5"/>
	<circle fill="#00FF00" stroke="#000000" stroke-miterlimit="10" cx="21.5" cy="23" r="16.5"/>
	<circle fill="#A9A955" stroke="#000000" stroke-miterlimit="10" cx="66" cy="23" r="18"/>
</g>
<g id="circles">
	<circle id="Manganese-Ion" fill="none" cx="66.092" cy="23" r="23"/>
	<circle id="Chlorine-Ion_1_" fill="none" cx="21.5" cy="23.04" r="21.459"/>
	<circle id="Chlorine-Ion" fill="none" cx="110.5" cy="23.04" r="21.459"/>
</g>
</svg>
