<?xml version="1.0" encoding="utf-8"?>
<!-- Generator: Adobe Illustrator 15.0.2, SVG Export Plug-In . SVG Version: 6.00 Build 0)  -->
<!DOCTYPE svg PUBLIC "-//W3C//DTD SVG 1.1//EN" "http://www.w3.org/Graphics/SVG/1.1/DTD/svg11.dtd">
<svg version="1.1" xmlns="http://www.w3.org/2000/svg" xmlns:xlink="http://www.w3.org/1999/xlink" x="0px" y="0px"
	 width="70.753px" height="60.326px" viewBox="0 0 70.753 60.326" enable-background="new 0 0 70.753 60.326" xml:space="preserve">
<g id="object">
	<circle fill="#FFFFFF" stroke="#000000" stroke-miterlimit="10" cx="58.753" cy="30.19" r="11.5"/>
	<g>
		<path fill="#2F2F2F" stroke="#000000" stroke-miterlimit="10" d="M44.253,15.69c-5.105,0-9.585,2.645-12.169,6.632l0,15.736
			c2.583,3.987,7.063,6.632,12.168,6.632c8.01,0,14.5-6.492,14.5-14.5C58.753,22.182,52.263,15.69,44.253,15.69z"/>
		<path fill="#FFFFFF" stroke="#000000" stroke-miterlimit="10" d="M10.019,35.758l-0.003-0.002
			c-3.232,0.569-6.202,2.507-7.972,5.573c-3.176,5.5-1.291,12.534,4.209,15.709c5.501,3.177,12.534,1.292,15.71-4.209
			c1.77-3.065,1.964-6.606,0.84-9.691L10.019,35.758z"/>
		<path fill="#FFFFFF" stroke="#000000" stroke-miterlimit="10" d="M22.802,17.243c1.124-3.084,0.93-6.625-0.84-9.69
			c-3.176-5.5-10.209-7.385-15.709-4.209c-5.502,3.176-7.386,10.209-4.21,15.709c1.771,3.066,4.74,5.005,7.974,5.574L22.802,17.243z
			"/>
		<path fill="#0000FF" stroke="#000000" stroke-miterlimit="10" d="M32.084,22.322c-2.176-2.853-5.496-4.775-9.282-5.079
			c0,0,0,0,0,0l-12.785,7.383c0,0,0,0,0,0c-0.802,1.688-1.264,3.57-1.264,5.564c0,1.995,0.463,3.878,1.266,5.567l12.784,7.378
			c0,0.001,0,0.001,0,0.002c3.786-0.304,7.106-2.228,9.282-5.079L32.084,22.322z"/>
	</g>
	<path fill="#FFFFFF" stroke="#000000" stroke-miterlimit="10" d="M56.896,37.052c-2.638-0.52-12.244,5.031-13.106,7.584
		c-1.026,3.023-0.802,6.455,0.919,9.439c3.178,5.5,10.207,7.383,15.71,4.209c5.499-3.176,7.384-10.209,4.208-15.709
		C62.901,39.585,60.033,37.675,56.896,37.052z"/>
	<path fill="#FFFFFF" stroke="#000000" stroke-miterlimit="10" d="M43.878,15.71c0.866,2.545,10.477,8.087,13.118,7.559
		c3.133-0.625,5.992-2.533,7.715-5.518c3.176-5.5,1.291-12.533-4.209-15.709c-5.499-3.175-12.533-1.291-15.709,4.209
		C43.067,9.241,42.847,12.68,43.878,15.71z"/>
</g>
<g id="circles">
	<circle id="Hydrogen_4_" fill="none" cx="12.002" cy="13.302" r="11.501"/>
	<circle id="Hydrogen_3_" fill="none" cx="54.756" cy="11.998" r="11.498"/>
	<circle id="Hydrogen_2_" fill="none" cx="58.753" cy="30.189" r="11.498"/>
	<circle id="Carbon" fill="none" cx="44.278" cy="30.214" r="14.475"/>
	<circle id="Nitrogen" fill="none" cx="21.823" cy="30.214" r="13.07"/>
	<circle id="Hydrogen_1_" fill="none" cx="12.002" cy="47.169" r="11.501"/>
	<circle id="Hydrogen" fill="none" cx="54.756" cy="48.516" r="11.498"/>
</g>
</svg>
