<?xml version="1.0" encoding="UTF-8" standalone="no"?>
<!-- Created with Inkscape (http://www.inkscape.org/) -->

<svg
   xmlns:dc="http://purl.org/dc/elements/1.1/"
   xmlns:cc="http://creativecommons.org/ns#"
   xmlns:rdf="http://www.w3.org/1999/02/22-rdf-syntax-ns#"
   xmlns:svg="http://www.w3.org/2000/svg"
   xmlns="http://www.w3.org/2000/svg"
   xmlns:sodipodi="http://sodipodi.sourceforge.net/DTD/sodipodi-0.dtd"
   xmlns:inkscape="http://www.inkscape.org/namespaces/inkscape"
   id="svg2"
   version="1.1"
   inkscape:version="0.48.2 r9819"
   width="96.2445"
   height="63.009"
   xml:space="preserve"
   sodipodi:docname="L4A4-07.ai"><metadata
     id="metadata8"><rdf:RDF><cc:Work
         rdf:about=""><dc:format>image/svg+xml</dc:format><dc:type
           rdf:resource="http://purl.org/dc/dcmitype/StillImage" /><dc:title></dc:title></cc:Work></rdf:RDF></metadata><defs
     id="defs6"><radialGradient
       fx="0"
       fy="0"
       cx="0"
       cy="0"
       r="1"
       gradientUnits="userSpaceOnUse"
       gradientTransform="matrix(8.7709961,-8.7709961,-8.7709961,-8.7709961,53.353027,25.467285)"
       spreadMethod="pad"
       id="radialGradient24"><stop
         style="stop-opacity:1;stop-color:#00adef"
         offset="0"
         id="stop26" /><stop
         style="stop-opacity:1;stop-color:#17194a"
         offset="0.785278"
         id="stop28" /><stop
         style="stop-opacity:1;stop-color:#2e3192"
         offset="1"
         id="stop30" /></radialGradient><radialGradient
       fx="0"
       fy="0"
       cx="0"
       cy="0"
       r="1"
       gradientUnits="userSpaceOnUse"
       gradientTransform="matrix(8.7709961,-8.7709961,-8.7709961,-8.7709961,28.354492,25.461426)"
       spreadMethod="pad"
       id="radialGradient46"><stop
         style="stop-opacity:1;stop-color:#00adef"
         offset="0"
         id="stop48" /><stop
         style="stop-opacity:1;stop-color:#17194a"
         offset="0.785278"
         id="stop50" /><stop
         style="stop-opacity:1;stop-color:#2e3192"
         offset="1"
         id="stop52" /></radialGradient><radialGradient
       fx="0"
       fy="0"
       cx="0"
       cy="0"
       r="1"
       gradientUnits="userSpaceOnUse"
       gradientTransform="matrix(8.7709961,-8.7709961,-8.7709961,-8.7709961,3.3564453,25.461426)"
       spreadMethod="pad"
       id="radialGradient68"><stop
         style="stop-opacity:1;stop-color:#00adef"
         offset="0"
         id="stop70" /><stop
         style="stop-opacity:1;stop-color:#17194a"
         offset="0.785278"
         id="stop72" /><stop
         style="stop-opacity:1;stop-color:#2e3192"
         offset="1"
         id="stop74" /></radialGradient><radialGradient
       fx="0"
       fy="0"
       cx="0"
       cy="0"
       r="1"
       gradientUnits="userSpaceOnUse"
       gradientTransform="matrix(8.7707977,-8.7707977,-8.7707977,-8.7707977,15.859375,47.067871)"
       spreadMethod="pad"
       id="radialGradient90"><stop
         style="stop-opacity:1;stop-color:#00adef"
         offset="0"
         id="stop92" /><stop
         style="stop-opacity:1;stop-color:#17194a"
         offset="0.785278"
         id="stop94" /><stop
         style="stop-opacity:1;stop-color:#2e3192"
         offset="1"
         id="stop96" /></radialGradient><radialGradient
       fx="0"
       fy="0"
       cx="0"
       cy="0"
       r="1"
       gradientUnits="userSpaceOnUse"
       gradientTransform="matrix(8.7709961,-8.7709961,-8.7709961,-8.7709961,40.854492,47.059082)"
       spreadMethod="pad"
       id="radialGradient112"><stop
         style="stop-opacity:1;stop-color:#00adef"
         offset="0"
         id="stop114" /><stop
         style="stop-opacity:1;stop-color:#17194a"
         offset="0.785278"
         id="stop116" /><stop
         style="stop-opacity:1;stop-color:#2e3192"
         offset="1"
         id="stop118" /></radialGradient><radialGradient
       fx="0"
       fy="0"
       cx="0"
       cy="0"
       r="1"
       gradientUnits="userSpaceOnUse"
       gradientTransform="matrix(8.7707977,-8.7707977,-8.7707977,-8.7707977,40.854492,18.251465)"
       spreadMethod="pad"
       id="radialGradient134"><stop
         style="stop-opacity:1;stop-color:#00adef"
         offset="0"
         id="stop136" /><stop
         style="stop-opacity:1;stop-color:#17194a"
         offset="0.785278"
         id="stop138" /><stop
         style="stop-opacity:1;stop-color:#2e3192"
         offset="1"
         id="stop140" /></radialGradient><radialGradient
       fx="0"
       fy="0"
       cx="0"
       cy="0"
       r="1"
       gradientUnits="userSpaceOnUse"
       gradientTransform="matrix(8.7709961,-8.7709961,-8.7709961,-8.7709961,15.855469,18.26123)"
       spreadMethod="pad"
       id="radialGradient156"><stop
         style="stop-opacity:1;stop-color:#00adef"
         offset="0"
         id="stop158" /><stop
         style="stop-opacity:1;stop-color:#17194a"
         offset="0.785278"
         id="stop160" /><stop
         style="stop-opacity:1;stop-color:#2e3192"
         offset="1"
         id="stop162" /></radialGradient><radialGradient
       fx="0"
       fy="0"
       cx="0"
       cy="0"
       r="1"
       gradientUnits="userSpaceOnUse"
       gradientTransform="matrix(8.7762299,-8.7762299,-8.7762299,-8.7762299,3.3583984,39.859375)"
       spreadMethod="pad"
       id="radialGradient178"><stop
         style="stop-opacity:1;stop-color:#ed1c24"
         offset="0"
         id="stop180" /><stop
         style="stop-opacity:1;stop-color:#550709"
         offset="0.754608"
         id="stop182" /><stop
         style="stop-opacity:1;stop-color:#ed1c24"
         offset="1"
         id="stop184" /></radialGradient><radialGradient
       fx="0"
       fy="0"
       cx="0"
       cy="0"
       r="1"
       gradientUnits="userSpaceOnUse"
       gradientTransform="matrix(8.776413,-8.776413,-8.776413,-8.776413,15.855469,32.667969)"
       spreadMethod="pad"
       id="radialGradient200"><stop
         style="stop-opacity:1;stop-color:#ed1c24"
         offset="0"
         id="stop202" /><stop
         style="stop-opacity:1;stop-color:#550709"
         offset="0.754608"
         id="stop204" /><stop
         style="stop-opacity:1;stop-color:#ed1c24"
         offset="1"
         id="stop206" /></radialGradient><radialGradient
       fx="0"
       fy="0"
       cx="0"
       cy="0"
       r="1"
       gradientUnits="userSpaceOnUse"
       gradientTransform="matrix(8.7762299,-8.7762299,-8.7762299,-8.7762299,40.85498,32.658203)"
       spreadMethod="pad"
       id="radialGradient222"><stop
         style="stop-opacity:1;stop-color:#ed1c24"
         offset="0"
         id="stop224" /><stop
         style="stop-opacity:1;stop-color:#550709"
         offset="0.754608"
         id="stop226" /><stop
         style="stop-opacity:1;stop-color:#ed1c24"
         offset="1"
         id="stop228" /></radialGradient><radialGradient
       fx="0"
       fy="0"
       cx="0"
       cy="0"
       r="1"
       gradientUnits="userSpaceOnUse"
       gradientTransform="matrix(8.776413,-8.776413,-8.776413,-8.776413,53.353516,39.865234)"
       spreadMethod="pad"
       id="radialGradient244"><stop
         style="stop-opacity:1;stop-color:#ed1c24"
         offset="0"
         id="stop246" /><stop
         style="stop-opacity:1;stop-color:#550709"
         offset="0.754608"
         id="stop248" /><stop
         style="stop-opacity:1;stop-color:#ed1c24"
         offset="1"
         id="stop250" /></radialGradient><radialGradient
       fx="0"
       fy="0"
       cx="0"
       cy="0"
       r="1"
       gradientUnits="userSpaceOnUse"
       gradientTransform="matrix(8.776413,-8.776413,-8.776413,-8.776413,53.353516,11.067383)"
       spreadMethod="pad"
       id="radialGradient266"><stop
         style="stop-opacity:1;stop-color:#ed1c24"
         offset="0"
         id="stop268" /><stop
         style="stop-opacity:1;stop-color:#550709"
         offset="0.754608"
         id="stop270" /><stop
         style="stop-opacity:1;stop-color:#ed1c24"
         offset="1"
         id="stop272" /></radialGradient><radialGradient
       fx="0"
       fy="0"
       cx="0"
       cy="0"
       r="1"
       gradientUnits="userSpaceOnUse"
       gradientTransform="matrix(8.776413,-8.776413,-8.776413,-8.776413,65.952637,32.668945)"
       spreadMethod="pad"
       id="radialGradient288"><stop
         style="stop-opacity:1;stop-color:#ed1c24"
         offset="0"
         id="stop290" /><stop
         style="stop-opacity:1;stop-color:#550709"
         offset="0.754608"
         id="stop292" /><stop
         style="stop-opacity:1;stop-color:#ed1c24"
         offset="1"
         id="stop294" /></radialGradient><radialGradient
       fx="0"
       fy="0"
       cx="0"
       cy="0"
       r="1"
       gradientUnits="userSpaceOnUse"
       gradientTransform="matrix(8.7762299,-8.7762299,-8.7762299,-8.7762299,3.3583984,11.061523)"
       spreadMethod="pad"
       id="radialGradient310"><stop
         style="stop-opacity:1;stop-color:#ed1c24"
         offset="0"
         id="stop312" /><stop
         style="stop-opacity:1;stop-color:#550709"
         offset="0.754608"
         id="stop314" /><stop
         style="stop-opacity:1;stop-color:#ed1c24"
         offset="1"
         id="stop316" /></radialGradient><radialGradient
       fx="0"
       fy="0"
       cx="0"
       cy="0"
       r="1"
       gradientUnits="userSpaceOnUse"
       gradientTransform="matrix(8.7762299,-8.7762299,-8.7762299,-8.7762299,28.355469,11.061523)"
       spreadMethod="pad"
       id="radialGradient332"><stop
         style="stop-opacity:1;stop-color:#ed1c24"
         offset="0"
         id="stop334" /><stop
         style="stop-opacity:1;stop-color:#550709"
         offset="0.754608"
         id="stop336" /><stop
         style="stop-opacity:1;stop-color:#ed1c24"
         offset="1"
         id="stop338" /></radialGradient><radialGradient
       fx="0"
       fy="0"
       cx="0"
       cy="0"
       r="1"
       gradientUnits="userSpaceOnUse"
       gradientTransform="matrix(8.7762299,-8.7762299,-8.7762299,-8.7762299,28.355469,39.859375)"
       spreadMethod="pad"
       id="radialGradient354"><stop
         style="stop-opacity:1;stop-color:#ed1c24"
         offset="0"
         id="stop356" /><stop
         style="stop-opacity:1;stop-color:#550709"
         offset="0.754608"
         id="stop358" /><stop
         style="stop-opacity:1;stop-color:#ed1c24"
         offset="1"
         id="stop360" /></radialGradient></defs><sodipodi:namedview
     pagecolor="#ffffff"
     bordercolor="#666666"
     borderopacity="1"
     objecttolerance="10"
     gridtolerance="10"
     guidetolerance="10"
     inkscape:pageopacity="0"
     inkscape:pageshadow="2"
     inkscape:window-width="640"
     inkscape:window-height="480"
     id="namedview4"
     showgrid="false"
     inkscape:zoom="3.3768164"
     inkscape:cx="48.12225"
     inkscape:cy="31.504499"
     inkscape:window-x="0"
     inkscape:window-y="22"
     inkscape:window-maximized="0"
     inkscape:current-layer="g10" /><g
     id="g10"
     inkscape:groupmode="layer"
     inkscape:label="L4A4-07"
     transform="matrix(1.25,0,0,-1.25,0,63.009)"><g
       id="g12"><g
         id="g14"><g
           id="g20"><g
             id="g22"><path
               d="m 49.997,21.608 c 0,-3.973 3.22,-7.196 7.195,-7.196 l 0,0 c 3.976,0 7.198,3.223 7.198,7.196 l 0,0 c 0,3.975 -3.222,7.198 -7.198,7.198 l 0,0 c -3.975,0 -7.195,-3.223 -7.195,-7.198"
               style="fill:url(#radialGradient24);stroke:none"
               id="path32" /></g></g></g></g><g
       id="g34"><g
         id="g36"><g
           id="g42"><g
             id="g44"><path
               d="m 24.998,21.603 c 0,-3.975 3.221,-7.197 7.195,-7.197 l 0,0 c 3.976,0 7.197,3.222 7.197,7.197 l 0,0 c 0,3.974 -3.221,7.197 -7.197,7.197 l 0,0 c -3.974,0 -7.195,-3.223 -7.195,-7.197"
               style="fill:url(#radialGradient46);stroke:none"
               id="path54" /></g></g></g></g><g
       id="g56"><g
         id="g58"><g
           id="g64"><g
             id="g66"><path
               d="m 0,21.603 c 0,-3.975 3.22,-7.197 7.195,-7.197 l 0,0 c 3.976,0 7.198,3.222 7.198,7.197 l 0,0 c 0,3.974 -3.222,7.197 -7.198,7.197 l 0,0 C 3.22,28.8 0,25.577 0,21.603"
               style="fill:url(#radialGradient68);stroke:none"
               id="path76" /></g></g></g></g><g
       id="g78"><g
         id="g80"><g
           id="g86"><g
             id="g88"><path
               d="m 19.698,50.407 c -3.975,0 -7.195,-3.223 -7.195,-7.197 l 0,0 c 0,-3.974 3.22,-7.196 7.195,-7.196 l 0,0 c 3.976,0 7.198,3.222 7.198,7.196 l 0,0 c 0,3.974 -3.222,7.197 -7.198,7.197 z"
               style="fill:url(#radialGradient90);stroke:none"
               id="path98" /></g></g></g></g><g
       id="g100"><g
         id="g102"><g
           id="g108"><g
             id="g110"><path
               d="m 37.498,43.2 c 0,-3.973 3.221,-7.196 7.195,-7.196 l 0,0 c 3.976,0 7.197,3.223 7.197,7.196 l 0,0 c 0,3.974 -3.221,7.198 -7.197,7.198 l 0,0 c -3.974,0 -7.195,-3.224 -7.195,-7.198"
               style="fill:url(#radialGradient112);stroke:none"
               id="path120" /></g></g></g></g><g
       id="g122"><g
         id="g124"><g
           id="g130"><g
             id="g132"><path
               d="m 37.498,14.393 c 0,-3.974 3.221,-7.197 7.195,-7.197 l 0,0 c 3.976,0 7.197,3.223 7.197,7.197 l 0,0 c 0,3.975 -3.221,7.198 -7.197,7.198 l 0,0 c -3.974,0 -7.195,-3.223 -7.195,-7.198"
               style="fill:url(#radialGradient134);stroke:none"
               id="path142" /></g></g></g></g><g
       id="g144"><g
         id="g146"><g
           id="g152"><g
             id="g154"><path
               d="m 12.499,14.403 c 0,-3.975 3.22,-7.197 7.196,-7.197 l 0,0 c 3.975,0 7.197,3.222 7.197,7.197 l 0,0 c 0,3.974 -3.222,7.197 -7.197,7.197 l 0,0 c -3.976,0 -7.196,-3.223 -7.196,-7.197"
               style="fill:url(#radialGradient156);stroke:none"
               id="path164" /></g></g></g></g><g
       id="g166"><g
         id="g168"><g
           id="g174"><g
             id="g176"><path
               d="m 0,35.999 c 0,-3.977 3.223,-7.201 7.2,-7.201 l 0,0 c 3.978,0 7.202,3.224 7.202,7.201 l 0,0 c 0,3.976 -3.224,7.202 -7.202,7.202 l 0,0 C 3.223,43.201 0,39.975 0,35.999"
               style="fill:url(#radialGradient178);stroke:none"
               id="path186" /></g></g></g></g><g
       id="g188"><g
         id="g190"><g
           id="g196"><g
             id="g198"><path
               d="m 12.497,28.807 c 0,-3.977 3.222,-7.201 7.2,-7.201 l 0,0 c 3.977,0 7.201,3.224 7.201,7.201 l 0,0 c 0,3.976 -3.224,7.202 -7.201,7.202 l 0,0 c -3.978,0 -7.2,-3.226 -7.2,-7.202"
               style="fill:url(#radialGradient200);stroke:none"
               id="path208" /></g></g></g></g><g
       id="g210"><g
         id="g212"><g
           id="g218"><g
             id="g220"><path
               d="m 37.497,28.798 c 0,-3.977 3.223,-7.202 7.2,-7.202 l 0,0 c 3.978,0 7.201,3.225 7.201,7.202 l 0,0 c 0,3.976 -3.223,7.201 -7.201,7.201 l 0,0 c -3.977,0 -7.2,-3.225 -7.2,-7.201"
               style="fill:url(#radialGradient222);stroke:none"
               id="path230" /></g></g></g></g><g
       id="g232"><g
         id="g234"><g
           id="g240"><g
             id="g242"><path
               d="m 49.995,36.005 c 0,-3.978 3.223,-7.201 7.2,-7.201 l 0,0 c 3.978,0 7.202,3.223 7.202,7.201 l 0,0 c 0,3.976 -3.224,7.201 -7.202,7.201 l 0,0 c -3.977,0 -7.2,-3.225 -7.2,-7.201"
               style="fill:url(#radialGradient244);stroke:none"
               id="path252" /></g></g></g></g><g
       id="g254"><g
         id="g256"><g
           id="g262"><g
             id="g264"><path
               d="m 49.995,7.206 c 0,-3.977 3.223,-7.201 7.2,-7.201 l 0,0 c 3.978,0 7.202,3.224 7.202,7.201 l 0,0 c 0,3.977 -3.224,7.202 -7.202,7.202 l 0,0 c -3.977,0 -7.2,-3.225 -7.2,-7.202"
               style="fill:url(#radialGradient266);stroke:none"
               id="path274" /></g></g></g></g><g
       id="g276"><g
         id="g278"><g
           id="g284"><g
             id="g286"><path
               d="m 62.594,28.808 c 0,-3.977 3.223,-7.201 7.2,-7.201 l 0,0 c 3.978,0 7.202,3.224 7.202,7.201 l 0,0 c 0,3.976 -3.224,7.202 -7.202,7.202 l 0,0 c -3.977,0 -7.2,-3.226 -7.2,-7.202"
               style="fill:url(#radialGradient288);stroke:none"
               id="path296" /></g></g></g></g><g
       id="g298"><g
         id="g300"><g
           id="g306"><g
             id="g308"><path
               d="M 0,7.201 C 0,3.224 3.223,0 7.2,0 l 0,0 c 3.978,0 7.202,3.224 7.202,7.201 l 0,0 c 0,3.977 -3.224,7.202 -7.202,7.202 l 0,0 C 3.223,14.403 0,11.178 0,7.201"
               style="fill:url(#radialGradient310);stroke:none"
               id="path318" /></g></g></g></g><g
       id="g320"><g
         id="g322"><g
           id="g328"><g
             id="g330"><path
               d="M 24.997,7.201 C 24.997,3.224 28.219,0 32.197,0 l 0,0 c 3.978,0 7.201,3.224 7.201,7.201 l 0,0 c 0,3.977 -3.223,7.202 -7.201,7.202 l 0,0 c -3.978,0 -7.2,-3.225 -7.2,-7.202"
               style="fill:url(#radialGradient332);stroke:none"
               id="path340" /></g></g></g></g><g
       id="g342"><g
         id="g344"><g
           id="g350"><g
             id="g352"><path
               d="m 24.997,35.999 c 0,-3.977 3.222,-7.201 7.2,-7.201 l 0,0 c 3.978,0 7.201,3.224 7.201,7.201 l 0,0 c 0,3.976 -3.223,7.202 -7.201,7.202 l 0,0 c -3.978,0 -7.2,-3.226 -7.2,-7.202"
               style="fill:url(#radialGradient354);stroke:none"
               id="path362" /></g></g></g></g></g></svg>