<?xml version="1.0" encoding="utf-8"?>
<!-- Generator: Adobe Illustrator 15.0.2, SVG Export Plug-In . SVG Version: 6.00 Build 0)  -->
<!DOCTYPE svg PUBLIC "-//W3C//DTD SVG 1.1//EN" "http://www.w3.org/Graphics/SVG/1.1/DTD/svg11.dtd">
<svg version="1.1" xmlns="http://www.w3.org/2000/svg" xmlns:xlink="http://www.w3.org/1999/xlink" x="0px" y="0px"
	 width="74.254px" height="69.251px" viewBox="0 0 74.254 69.251" enable-background="new 0 0 74.254 69.251" xml:space="preserve">
<g id="object">
	<path fill="#B1B1B1" d="M73.621,45.958c-1.278-4.772-4.34-8.763-8.619-11.233c-3.488-2.015-7.58-2.842-11.577-2.325
		c-0.444-0.95-0.972-1.86-1.574-2.72c2.415-3.179,3.771-7.097,3.771-11.18c0-10.201-8.299-18.5-18.5-18.5s-18.5,8.299-18.5,18.5
		c0,4.083,1.357,8.001,3.772,11.18c-0.604,0.861-1.131,1.772-1.576,2.723c-3.996-0.513-8.082,0.313-11.565,2.326
		C0.419,39.829-2.619,51.166,2.481,60c3.294,5.706,9.437,9.251,16.031,9.251c3.233,0,6.428-0.857,9.24-2.481
		c3.53-2.037,6.241-5.164,7.789-8.838c1.05,0.09,2.121,0.091,3.171-0.001c1.548,3.672,4.259,6.798,7.789,8.837
		c2.812,1.623,6.005,2.48,9.237,2.481c0.001,0,0.001,0,0.001,0c6.594,0,12.737-3.546,16.033-9.253
		C74.243,55.717,74.9,50.732,73.621,45.958z"/>
	<g>
		<path fill="#0000FF" stroke="#000000" stroke-miterlimit="10" d="M50.032,38.525c-0.415-3.672-2.362-6.871-5.185-8.964H29.397
			c-2.822,2.092-4.77,5.291-5.186,8.963l7.732,13.396C33.531,52.613,35.28,53,37.122,53s3.591-0.387,5.178-1.078L50.032,38.525z"/>
		<path fill="#FF0000" stroke="#000000" stroke-miterlimit="10" d="M24.211,38.525c-3.856-1.797-8.495-1.755-12.458,0.534
			C5.294,42.787,3.083,51.042,6.811,57.5s11.983,8.67,18.442,4.941c3.962-2.289,6.317-6.283,6.69-10.52L24.211,38.525z"/>
		<path fill="#FF0000" stroke="#000000" stroke-miterlimit="10" d="M44.848,29.562c3.488-2.44,5.774-6.481,5.774-11.062
			c0-7.458-6.044-13.5-13.5-13.5s-13.5,6.043-13.5,13.5c0,4.58,2.287,8.621,5.775,11.062H44.848z"/>
		<path fill="#FF0000" stroke="#000000" stroke-miterlimit="10" d="M42.308,51.906c0.369,4.24,2.727,8.24,6.693,10.531
			c6.458,3.729,14.713,1.516,18.441-4.941s1.517-14.713-4.941-18.441c-3.967-2.29-8.61-2.33-12.468-0.529L42.308,51.906z"/>
	</g>
</g>
<g id="circles">
	<circle id="Nitrogen-Ion" fill="none" cx="37.122" cy="40.052" r="17.949"/>
	<circle id="Oxygen-Ion_2_" fill="none" cx="18.526" cy="50.732" r="18.519"/>
	<circle id="Oxygen-Ion_1_" fill="none" cx="55.781" cy="50.732" r="18.519"/>
	<circle id="Oxygen-Ion" fill="none" cx="37.045" cy="18.519" r="18.519"/>
</g>
</svg>
