<?xml version="1.0" encoding="utf-8"?>
<!-- Generator: Adobe Illustrator 15.0.2, SVG Export Plug-In . SVG Version: 6.00 Build 0)  -->
<!DOCTYPE svg PUBLIC "-//W3C//DTD SVG 1.1//EN" "http://www.w3.org/Graphics/SVG/1.1/DTD/svg11.dtd">
<svg version="1.1" xmlns="http://www.w3.org/2000/svg" xmlns:xlink="http://www.w3.org/1999/xlink" x="0px" y="0px" width="49px"
	 height="28px" viewBox="0 0 49 28" enable-background="new 0 0 49 28" xml:space="preserve">
<g id="object">
	<g>
		<path fill="#0000FF" stroke="#000000" stroke-miterlimit="10" d="M23.938,6.274C21.569,3.08,17.782,1,13.5,1
			c-7.18,0-13,5.82-13,13s5.82,13,13,13c4.282,0,8.069-2.08,10.438-5.274L23.938,6.274z"/>
		<path fill="#FF0000" stroke="#000000" stroke-miterlimit="10" d="M35,0.5c-4.581,0-8.621,2.286-11.062,5.774l0.001,15.451
			C26.379,25.213,30.42,27.5,35,27.5c7.456,0,13.5-6.045,13.5-13.5C48.5,6.543,42.456,0.5,35,0.5z"/>
	</g>
</g>
<g id="circles">
	<circle id="Nitrogen" fill="none" cx="13.5" cy="14" r="13"/>
	<circle id="Oxygen" fill="none" cx="35" cy="14" r="13.5"/>
</g>
</svg>
