<?xml version="1.0" encoding="UTF-8" standalone="no"?>
<!-- Created with Inkscape (http://www.inkscape.org/) -->

<svg
   xmlns:dc="http://purl.org/dc/elements/1.1/"
   xmlns:cc="http://creativecommons.org/ns#"
   xmlns:rdf="http://www.w3.org/1999/02/22-rdf-syntax-ns#"
   xmlns:svg="http://www.w3.org/2000/svg"
   xmlns="http://www.w3.org/2000/svg"
   version="1.1"
   width="96.653999"
   height="63.002377"
   id="svg2"
   xml:space="preserve"><metadata
     id="metadata8"><rdf:RDF><cc:Work
         rdf:about=""><dc:format>image/svg+xml</dc:format><dc:type
           rdf:resource="http://purl.org/dc/dcmitype/StillImage" /><dc:title></dc:title></cc:Work></rdf:RDF></metadata><defs
     id="defs6"><radialGradient
       cx="0"
       cy="0"
       r="1"
       fx="0"
       fy="0"
       id="radialGradient24"
       gradientUnits="userSpaceOnUse"
       gradientTransform="matrix(8.7709961,-8.7709961,-8.7709961,-8.7709961,53.75293,39.865723)"
       spreadMethod="pad"><stop
         id="stop26"
         style="stop-color:#00adef;stop-opacity:1"
         offset="0" /><stop
         id="stop28"
         style="stop-color:#17194a;stop-opacity:1"
         offset="0.78527802" /><stop
         id="stop30"
         style="stop-color:#2e3192;stop-opacity:1"
         offset="1" /></radialGradient><radialGradient
       cx="0"
       cy="0"
       r="1"
       fx="0"
       fy="0"
       id="radialGradient46"
       gradientUnits="userSpaceOnUse"
       gradientTransform="matrix(8.7709961,-8.7709961,-8.7709961,-8.7709961,41.224609,32.658691)"
       spreadMethod="pad"><stop
         id="stop48"
         style="stop-color:#00adef;stop-opacity:1"
         offset="0" /><stop
         id="stop50"
         style="stop-color:#17194a;stop-opacity:1"
         offset="0.78527802" /><stop
         id="stop52"
         style="stop-color:#2e3192;stop-opacity:1"
         offset="1" /></radialGradient><radialGradient
       cx="0"
       cy="0"
       r="1"
       fx="0"
       fy="0"
       id="radialGradient68"
       gradientUnits="userSpaceOnUse"
       gradientTransform="matrix(8.7709961,-8.7709961,-8.7709961,-8.7709961,3.3608398,11.055176)"
       spreadMethod="pad"><stop
         id="stop70"
         style="stop-color:#00adef;stop-opacity:1"
         offset="0" /><stop
         id="stop72"
         style="stop-color:#17194a;stop-opacity:1"
         offset="0.78527802" /><stop
         id="stop74"
         style="stop-color:#2e3192;stop-opacity:1"
         offset="1" /></radialGradient><radialGradient
       cx="0"
       cy="0"
       r="1"
       fx="0"
       fy="0"
       id="radialGradient90"
       gradientUnits="userSpaceOnUse"
       gradientTransform="matrix(8.7709961,-8.7709961,-8.7709961,-8.7709961,53.75293,11.066895)"
       spreadMethod="pad"><stop
         id="stop92"
         style="stop-color:#00adef;stop-opacity:1"
         offset="0" /><stop
         id="stop94"
         style="stop-color:#17194a;stop-opacity:1"
         offset="0.78527802" /><stop
         id="stop96"
         style="stop-color:#2e3192;stop-opacity:1"
         offset="1" /></radialGradient><radialGradient
       cx="0"
       cy="0"
       r="1"
       fx="0"
       fy="0"
       id="radialGradient112"
       gradientUnits="userSpaceOnUse"
       gradientTransform="matrix(8.7762299,-8.7762299,-8.7762299,-8.7762299,41.220215,47.060547)"
       spreadMethod="pad"><stop
         id="stop114"
         style="stop-color:#ed1c24;stop-opacity:1"
         offset="0" /><stop
         id="stop116"
         style="stop-color:#550709;stop-opacity:1"
         offset="0.75460798" /><stop
         id="stop118"
         style="stop-color:#ed1c24;stop-opacity:1"
         offset="1" /></radialGradient><radialGradient
       cx="0"
       cy="0"
       r="1"
       fx="0"
       fy="0"
       id="radialGradient134"
       gradientUnits="userSpaceOnUse"
       gradientTransform="matrix(8.776413,-8.776413,-8.776413,-8.776413,53.750488,25.466797)"
       spreadMethod="pad"><stop
         id="stop136"
         style="stop-color:#ed1c24;stop-opacity:1"
         offset="0" /><stop
         id="stop138"
         style="stop-color:#550709;stop-opacity:1"
         offset="0.75460798" /><stop
         id="stop140"
         style="stop-color:#ed1c24;stop-opacity:1"
         offset="1" /></radialGradient><radialGradient
       cx="0"
       cy="0"
       r="1"
       fx="0"
       fy="0"
       id="radialGradient156"
       gradientUnits="userSpaceOnUse"
       gradientTransform="matrix(8.7707977,-8.7707977,-8.7707977,-8.7707977,3.3608398,39.850098)"
       spreadMethod="pad"><stop
         id="stop158"
         style="stop-color:#00adef;stop-opacity:1"
         offset="0" /><stop
         id="stop160"
         style="stop-color:#17194a;stop-opacity:1"
         offset="0.78527802" /><stop
         id="stop162"
         style="stop-color:#2e3192;stop-opacity:1"
         offset="1" /></radialGradient><radialGradient
       cx="0"
       cy="0"
       r="1"
       fx="0"
       fy="0"
       id="radialGradient178"
       gradientUnits="userSpaceOnUse"
       gradientTransform="matrix(8.7762299,-8.7762299,-8.7762299,-8.7762299,3.3583984,25.462891)"
       spreadMethod="pad"><stop
         id="stop180"
         style="stop-color:#ed1c24;stop-opacity:1"
         offset="0" /><stop
         id="stop182"
         style="stop-color:#550709;stop-opacity:1"
         offset="0.75460798" /><stop
         id="stop184"
         style="stop-color:#ed1c24;stop-opacity:1"
         offset="1" /></radialGradient><radialGradient
       cx="0"
       cy="0"
       r="1"
       fx="0"
       fy="0"
       id="radialGradient200"
       gradientUnits="userSpaceOnUse"
       gradientTransform="matrix(8.7762299,-8.7762299,-8.7762299,-8.7762299,66.280273,32.662109)"
       spreadMethod="pad"><stop
         id="stop202"
         style="stop-color:#ed1c24;stop-opacity:1"
         offset="0" /><stop
         id="stop204"
         style="stop-color:#550709;stop-opacity:1"
         offset="0.75460798" /><stop
         id="stop206"
         style="stop-color:#ed1c24;stop-opacity:1"
         offset="1" /></radialGradient><radialGradient
       cx="0"
       cy="0"
       r="1"
       fx="0"
       fy="0"
       id="radialGradient222"
       gradientUnits="userSpaceOnUse"
       gradientTransform="matrix(8.7762299,-8.7762299,-8.7762299,-8.7762299,41.222168,18.263672)"
       spreadMethod="pad"><stop
         id="stop224"
         style="stop-color:#ed1c24;stop-opacity:1"
         offset="0" /><stop
         id="stop226"
         style="stop-color:#550709;stop-opacity:1"
         offset="0.75460798" /><stop
         id="stop228"
         style="stop-color:#ed1c24;stop-opacity:1"
         offset="1" /></radialGradient><radialGradient
       cx="0"
       cy="0"
       r="1"
       fx="0"
       fy="0"
       id="radialGradient244"
       gradientUnits="userSpaceOnUse"
       gradientTransform="matrix(8.7707977,-8.7707977,-8.7707977,-8.7707977,28.69043,39.859863)"
       spreadMethod="pad"><stop
         id="stop246"
         style="stop-color:#00adef;stop-opacity:1"
         offset="0" /><stop
         id="stop248"
         style="stop-color:#17194a;stop-opacity:1"
         offset="0.78527802" /><stop
         id="stop250"
         style="stop-color:#2e3192;stop-opacity:1"
         offset="1" /></radialGradient><radialGradient
       cx="0"
       cy="0"
       r="1"
       fx="0"
       fy="0"
       id="radialGradient266"
       gradientUnits="userSpaceOnUse"
       gradientTransform="matrix(8.7707977,-8.7707977,-8.7707977,-8.7707977,16.162109,32.652832)"
       spreadMethod="pad"><stop
         id="stop268"
         style="stop-color:#00adef;stop-opacity:1"
         offset="0" /><stop
         id="stop270"
         style="stop-color:#17194a;stop-opacity:1"
         offset="0.78527802" /><stop
         id="stop272"
         style="stop-color:#2e3192;stop-opacity:1"
         offset="1" /></radialGradient><radialGradient
       cx="0"
       cy="0"
       r="1"
       fx="0"
       fy="0"
       id="radialGradient288"
       gradientUnits="userSpaceOnUse"
       gradientTransform="matrix(8.7707977,-8.7707977,-8.7707977,-8.7707977,28.69043,11.061035)"
       spreadMethod="pad"><stop
         id="stop290"
         style="stop-color:#00adef;stop-opacity:1"
         offset="0" /><stop
         id="stop292"
         style="stop-color:#17194a;stop-opacity:1"
         offset="0.78527802" /><stop
         id="stop294"
         style="stop-color:#2e3192;stop-opacity:1"
         offset="1" /></radialGradient><radialGradient
       cx="0"
       cy="0"
       r="1"
       fx="0"
       fy="0"
       id="radialGradient310"
       gradientUnits="userSpaceOnUse"
       gradientTransform="matrix(8.776413,-8.776413,-8.776413,-8.776413,16.157715,47.055664)"
       spreadMethod="pad"><stop
         id="stop312"
         style="stop-color:#ed1c24;stop-opacity:1"
         offset="0" /><stop
         id="stop314"
         style="stop-color:#550709;stop-opacity:1"
         offset="0.75460798" /><stop
         id="stop316"
         style="stop-color:#ed1c24;stop-opacity:1"
         offset="1" /></radialGradient><radialGradient
       cx="0"
       cy="0"
       r="1"
       fx="0"
       fy="0"
       id="radialGradient332"
       gradientUnits="userSpaceOnUse"
       gradientTransform="matrix(8.7762299,-8.7762299,-8.7762299,-8.7762299,28.687988,25.460937)"
       spreadMethod="pad"><stop
         id="stop334"
         style="stop-color:#ed1c24;stop-opacity:1"
         offset="0" /><stop
         id="stop336"
         style="stop-color:#550709;stop-opacity:1"
         offset="0.75460798" /><stop
         id="stop338"
         style="stop-color:#ed1c24;stop-opacity:1"
         offset="1" /></radialGradient><radialGradient
       cx="0"
       cy="0"
       r="1"
       fx="0"
       fy="0"
       id="radialGradient354"
       gradientUnits="userSpaceOnUse"
       gradientTransform="matrix(8.776413,-8.776413,-8.776413,-8.776413,16.159668,18.258789)"
       spreadMethod="pad"><stop
         id="stop356"
         style="stop-color:#ed1c24;stop-opacity:1"
         offset="0" /><stop
         id="stop358"
         style="stop-color:#550709;stop-opacity:1"
         offset="0.75460798" /><stop
         id="stop360"
         style="stop-color:#ed1c24;stop-opacity:1"
         offset="1" /></radialGradient></defs><g
     transform="matrix(1.25,0,0,-1.25,0,63.002375)"
     id="g10"><g
       id="g12"><g
         id="g14"><g
           id="g20"><g
             id="g22"><path
               d="m 50.396,36.007 c 0,-3.974 3.221,-7.196 7.196,-7.196 l 0,0 c 3.975,0 7.197,3.222 7.197,7.196 l 0,0 c 0,3.975 -3.222,7.197 -7.197,7.197 l 0,0 c -3.975,0 -7.196,-3.222 -7.196,-7.197"
               id="path32"
               style="fill:url(#radialGradient24);stroke:none" /></g></g></g></g><g
       id="g34"><g
         id="g36"><g
           id="g42"><g
             id="g44"><path
               d="m 37.868,28.8 c 0,-3.974 3.221,-7.196 7.196,-7.196 l 0,0 c 3.975,0 7.196,3.222 7.196,7.196 l 0,0 c 0,3.974 -3.221,7.197 -7.196,7.197 l 0,0 c -3.975,0 -7.196,-3.223 -7.196,-7.197"
               id="path54"
               style="fill:url(#radialGradient46);stroke:none" /></g></g></g></g><g
       id="g56"><g
         id="g58"><g
           id="g64"><g
             id="g66"><path
               d="M 0.005,7.196 C 0.005,3.222 3.225,0 7.2,0 l 0,0 c 3.975,0 7.197,3.222 7.197,7.196 l 0,0 c 0,3.975 -3.222,7.198 -7.197,7.198 l 0,0 c -3.975,0 -7.195,-3.223 -7.195,-7.198"
               id="path76"
               style="fill:url(#radialGradient68);stroke:none" /></g></g></g></g><g
       id="g78"><g
         id="g80"><g
           id="g86"><g
             id="g88"><path
               d="m 50.396,7.208 c 0,-3.974 3.221,-7.196 7.196,-7.196 l 0,0 c 3.975,0 7.197,3.222 7.197,7.196 l 0,0 c 0,3.974 -3.222,7.197 -7.197,7.197 l 0,0 c -3.975,0 -7.196,-3.223 -7.196,-7.197"
               id="path98"
               style="fill:url(#radialGradient90);stroke:none" /></g></g></g></g><g
       id="g100"><g
         id="g102"><g
           id="g108"><g
             id="g110"><path
               d="m 45.061,50.402 c -3.977,0 -7.199,-3.225 -7.199,-7.202 l 0,0 c 0,-3.977 3.222,-7.201 7.199,-7.201 l 0,0 c 3.978,0 7.202,3.224 7.202,7.201 l 0,0 c 0,3.977 -3.224,7.202 -7.202,7.202 z"
               id="path120"
               style="fill:url(#radialGradient112);stroke:none" /></g></g></g></g><g
       id="g122"><g
         id="g124"><g
           id="g130"><g
             id="g132"><path
               d="m 50.392,21.606 c 0,-3.977 3.223,-7.202 7.2,-7.202 l 0,0 c 3.978,0 7.202,3.225 7.202,7.202 l 0,0 c 0,3.977 -3.224,7.201 -7.202,7.201 l 0,0 c -3.977,0 -7.2,-3.224 -7.2,-7.201"
               id="path142"
               style="fill:url(#radialGradient134);stroke:none" /></g></g></g></g><g
       id="g144"><g
         id="g146"><g
           id="g152"><g
             id="g154"><path
               d="m 0.005,35.992 c 0,-3.974 3.22,-7.196 7.195,-7.196 l 0,0 c 3.975,0 7.197,3.222 7.197,7.196 l 0,0 c 0,3.974 -3.222,7.197 -7.197,7.197 l 0,0 c -3.975,0 -7.195,-3.223 -7.195,-7.197"
               id="path164"
               style="fill:url(#radialGradient156);stroke:none" /></g></g></g></g><g
       id="g166"><g
         id="g168"><g
           id="g174"><g
             id="g176"><path
               d="m 0,21.603 c 0,-3.977 3.223,-7.201 7.2,-7.201 l 0,0 c 3.978,0 7.202,3.224 7.202,7.201 l 0,0 c 0,3.976 -3.224,7.202 -7.202,7.202 l 0,0 C 3.223,28.805 0,25.579 0,21.603"
               id="path186"
               style="fill:url(#radialGradient178);stroke:none" /></g></g></g></g><g
       id="g188"><g
         id="g190"><g
           id="g196"><g
             id="g198"><path
               d="m 62.922,28.802 c 0,-3.977 3.223,-7.201 7.2,-7.201 l 0,0 c 3.978,0 7.202,3.224 7.202,7.201 l 0,0 c 0,3.976 -3.224,7.202 -7.202,7.202 l 0,0 c -3.977,0 -7.2,-3.226 -7.2,-7.202"
               id="path208"
               style="fill:url(#radialGradient200);stroke:none" /></g></g></g></g><g
       id="g210"><g
         id="g212"><g
           id="g218"><g
             id="g220"><path
               d="m 37.864,14.404 c 0,-3.978 3.223,-7.202 7.2,-7.202 l 0,0 c 3.978,0 7.201,3.224 7.201,7.202 l 0,0 c 0,3.976 -3.223,7.201 -7.201,7.201 l 0,0 c -3.977,0 -7.2,-3.225 -7.2,-7.201"
               id="path230"
               style="fill:url(#radialGradient222);stroke:none" /></g></g></g></g><g
       id="g232"><g
         id="g234"><g
           id="g240"><g
             id="g242"><path
               d="m 25.334,36.002 c 0,-3.975 3.22,-7.197 7.196,-7.197 l 0,0 c 3.975,0 7.197,3.222 7.197,7.197 l 0,0 c 0,3.974 -3.222,7.197 -7.197,7.197 l 0,0 c -3.976,0 -7.196,-3.223 -7.196,-7.197"
               id="path252"
               style="fill:url(#radialGradient244);stroke:none" /></g></g></g></g><g
       id="g254"><g
         id="g256"><g
           id="g262"><g
             id="g264"><path
               d="m 12.806,28.795 c 0,-3.975 3.22,-7.197 7.195,-7.197 l 0,0 c 3.976,0 7.197,3.222 7.197,7.197 l 0,0 c 0,3.974 -3.221,7.197 -7.197,7.197 l 0,0 c -3.975,0 -7.195,-3.223 -7.195,-7.197"
               id="path274"
               style="fill:url(#radialGradient266);stroke:none" /></g></g></g></g><g
       id="g276"><g
         id="g278"><g
           id="g284"><g
             id="g286"><path
               d="m 25.334,7.203 c 0,-3.975 3.22,-7.197 7.196,-7.197 l 0,0 c 3.975,0 7.197,3.222 7.197,7.197 l 0,0 c 0,3.974 -3.222,7.197 -7.197,7.197 l 0,0 c -3.976,0 -7.196,-3.223 -7.196,-7.197"
               id="path296"
               style="fill:url(#radialGradient288);stroke:none" /></g></g></g></g><g
       id="g298"><g
         id="g300"><g
           id="g306"><g
             id="g308"><path
               d="m 12.799,43.195 c 0,-3.978 3.223,-7.201 7.2,-7.201 l 0,0 c 3.978,0 7.202,3.223 7.202,7.201 l 0,0 c 0,3.977 -3.224,7.201 -7.202,7.201 l 0,0 c -3.977,0 -7.2,-3.224 -7.2,-7.201"
               id="path318"
               style="fill:url(#radialGradient310);stroke:none" /></g></g></g></g><g
       id="g320"><g
         id="g322"><g
           id="g328"><g
             id="g330"><path
               d="m 25.33,21.601 c 0,-3.977 3.223,-7.202 7.2,-7.202 l 0,0 c 3.978,0 7.201,3.225 7.201,7.202 l 0,0 c 0,3.976 -3.223,7.201 -7.201,7.201 l 0,0 c -3.977,0 -7.2,-3.225 -7.2,-7.201"
               id="path340"
               style="fill:url(#radialGradient332);stroke:none" /></g></g></g></g><g
       id="g342"><g
         id="g344"><g
           id="g350"><g
             id="g352"><path
               d="m 12.802,14.398 c 0,-3.977 3.222,-7.202 7.199,-7.202 l 0,0 c 3.978,0 7.201,3.225 7.201,7.202 l 0,0 c 0,3.976 -3.223,7.202 -7.201,7.202 l 0,0 c -3.977,0 -7.199,-3.226 -7.199,-7.202"
               id="path362"
               style="fill:url(#radialGradient354);stroke:none" /></g></g></g></g></g></svg>