<?xml version="1.0" encoding="utf-8"?>
<!-- Generator: Adobe Illustrator 15.0.2, SVG Export Plug-In . SVG Version: 6.00 Build 0)  -->
<!DOCTYPE svg PUBLIC "-//W3C//DTD SVG 1.1//EN" "http://www.w3.org/Graphics/SVG/1.1/DTD/svg11.dtd">
<svg version="1.1" xmlns="http://www.w3.org/2000/svg" xmlns:xlink="http://www.w3.org/1999/xlink" x="0px" y="0px"
	 width="204.841px" height="77.75px" viewBox="0 0 204.841 77.75" enable-background="new 0 0 204.841 77.75" xml:space="preserve">
<g id="object">
	<path fill="#FFFFFF" stroke="#000000" stroke-miterlimit="10" d="M59.427,73.795c-5.5-3.176-7.385-10.21-4.209-15.71
		c1.738-3.011,4.635-4.93,7.802-5.537c2.617-0.501,12.144,5.004,13.017,7.528c1.051,3.043,0.836,6.503-0.9,9.509
		C71.961,75.085,64.928,76.971,59.427,73.795z"/>
	<path fill="#FFFFFF" stroke="#000000" stroke-miterlimit="10" d="M61.821,4.832c5.5,3.176,7.385,10.21,4.209,15.71
		c-1.738,3.011-4.635,4.93-7.802,5.537c-2.617,0.501-12.144-5.004-13.017-7.528c-1.051-3.043-0.836-6.503,0.9-9.509
		C49.287,3.542,56.32,1.656,61.821,4.832z"/>
	<circle fill="#FFFFFF" stroke="#000000" stroke-miterlimit="10" cx="16" cy="51.375" r="11.5"/>
	<path fill="#2F2F2F" stroke="#000000" stroke-miterlimit="10" d="M35.826,31.826c-4.178-2.021-9.251-2.006-13.573,0.49
		c-6.936,4.004-9.312,12.873-5.309,19.807c4.004,6.936,12.872,9.312,19.809,5.309c4.322-2.495,6.872-6.881,7.211-11.51
		L35.826,31.826z"/>
	<path fill="#2F2F2F" stroke="#000000" stroke-miterlimit="10" d="M64.737,31.852c-0.149-2.129-0.755-4.257-1.894-6.229
		c-4.003-6.934-12.872-9.311-19.807-5.307c-4.322,2.495-6.871,6.881-7.211,11.51l8.138,14.096c3.89,1.881,8.549,1.982,12.661-0.022
		L64.737,31.852z"/>
	<path fill="#2F2F2F" stroke="#000000" stroke-miterlimit="10" d="M77.397,31.828c-3.889-1.881-8.548-1.982-12.66,0.023
		l-8.112,14.048c0.148,2.127,0.754,4.255,1.892,6.226c4.005,6.936,12.873,9.312,19.809,5.309c4.322-2.495,6.872-6.881,7.211-11.51
		L77.397,31.828z"/>
	<path fill="#FFFFFF" stroke="#000000" stroke-miterlimit="10" d="M37.071,57.221c-2.039-1.841-13.27-1.876-15.297-0.084
		c-2.385,2.107-3.897,5.18-3.897,8.612c0,6.352,5.148,11.501,11.5,11.501s11.5-5.149,11.5-11.501
		C40.876,62.361,39.402,59.325,37.071,57.221z"/>
	<path fill="#FFFFFF" stroke="#000000" stroke-miterlimit="10" d="M34.528,4.809c-5.5,3.176-7.385,10.209-4.209,15.709
		c1.738,3.012,4.635,4.93,7.802,5.537c2.617,0.502,12.144-5.004,13.017-7.527c1.051-3.043,0.836-6.504-0.9-9.51
		C47.062,3.518,40.029,1.633,34.528,4.809z"/>
	<path fill="#FFFFFF" stroke="#000000" stroke-miterlimit="10" d="M103.394,4.834c5.5,3.176,7.385,10.21,4.209,15.71
		c-1.738,3.011-4.635,4.93-7.802,5.537c-2.617,0.501-12.144-5.004-13.017-7.528c-1.051-3.043-0.836-6.503,0.9-9.509
		C90.859,3.544,97.893,1.658,103.394,4.834z"/>
	<path fill="#2F2F2F" stroke="#000000" stroke-miterlimit="10" d="M106.31,31.854c-0.149-2.129-0.755-4.257-1.894-6.229
		c-4.003-6.934-12.872-9.311-19.807-5.307c-4.321,2.495-6.871,6.881-7.212,11.51l8.139,14.096c3.89,1.881,8.549,1.982,12.661-0.022
		L106.31,31.854z"/>
	<path fill="#FFFFFF" stroke="#000000" stroke-miterlimit="10" d="M76.101,4.811c-5.5,3.176-7.385,10.209-4.209,15.709
		c1.738,3.012,4.635,4.93,7.801,5.537c2.617,0.502,12.145-5.004,13.018-7.527c1.051-3.043,0.836-6.504-0.9-9.51
		C88.634,3.52,81.601,1.635,76.101,4.811z"/>
	<path fill="#FFFFFF" stroke="#000000" stroke-miterlimit="10" d="M86.72,73.818c5.5-3.176,7.385-10.209,4.209-15.709
		c-1.738-3.012-4.635-4.93-7.801-5.537C80.511,52.07,70.983,57.576,70.11,60.1c-1.051,3.043-0.836,6.504,0.9,9.51
		C74.187,75.109,81.22,76.994,86.72,73.818z"/>
	<path fill="#FFFFFF" stroke="#000000" stroke-miterlimit="10" d="M100.999,73.797c-5.5-3.176-7.385-10.21-4.209-15.71
		c1.738-3.011,4.635-4.93,7.802-5.537c2.617-0.501,12.144,5.004,13.017,7.528c1.051,3.043,0.836,6.503-0.9,9.509
		C113.533,75.087,106.5,76.973,100.999,73.797z"/>
	<path fill="#2F2F2F" stroke="#000000" stroke-miterlimit="10" d="M118.97,31.83c-3.889-1.881-8.548-1.982-12.66,0.023
		l-8.112,14.048c0.148,2.127,0.754,4.255,1.892,6.226c4.005,6.936,12.873,9.312,19.809,5.309c4.322-2.495,6.872-6.881,7.211-11.51
		L118.97,31.83z"/>
	<path fill="#FFFFFF" stroke="#000000" stroke-miterlimit="10" d="M144.966,4.836c5.5,3.176,7.385,10.21,4.209,15.71
		c-1.738,3.011-4.635,4.93-7.802,5.537c-2.617,0.501-12.144-5.004-13.017-7.528c-1.051-3.043-0.836-6.503,0.9-9.509
		C132.432,3.546,139.465,1.66,144.966,4.836z"/>
	<path fill="#2F2F2F" stroke="#000000" stroke-miterlimit="10" d="M147.882,31.855c-0.149-2.129-0.755-4.257-1.894-6.229
		c-4.003-6.934-12.872-9.311-19.807-5.307c-4.321,2.495-6.871,6.881-7.212,11.51l8.139,14.096c3.89,1.881,8.549,1.982,12.661-0.022
		L147.882,31.855z"/>
	<path fill="#FFFFFF" stroke="#000000" stroke-miterlimit="10" d="M117.673,4.812c-5.5,3.176-7.385,10.209-4.209,15.709
		c1.738,3.012,4.635,4.93,7.801,5.537c2.617,0.502,12.145-5.004,13.018-7.527c1.051-3.043,0.836-6.504-0.9-9.51
		C130.206,3.521,123.173,1.637,117.673,4.812z"/>
	<path fill="#FFFFFF" stroke="#000000" stroke-miterlimit="10" d="M128.292,73.82c5.5-3.176,7.385-10.209,4.209-15.709
		c-1.738-3.012-4.635-4.93-7.801-5.537c-2.617-0.502-12.145,5.004-13.018,7.527c-1.051,3.043-0.836,6.504,0.9,9.51
		C115.759,75.111,122.792,76.996,128.292,73.82z"/>
	<path fill="#FFFFFF" stroke="#000000" stroke-miterlimit="10" d="M142.571,73.797c-5.5-3.176-7.385-10.21-4.209-15.71
		c1.738-3.011,4.635-4.93,7.802-5.537c2.617-0.501,12.144,5.004,13.017,7.528c1.051,3.043,0.836,6.503-0.9,9.509
		C155.105,75.087,148.072,76.973,142.571,73.797z"/>
	<path fill="#2F2F2F" stroke="#000000" stroke-miterlimit="10" d="M160.542,31.83c-3.889-1.881-8.548-1.982-12.66,0.023
		l-8.112,14.048c0.148,2.127,0.754,4.255,1.892,6.226c4.005,6.936,12.873,9.312,19.809,5.309c4.322-2.495,6.872-6.881,7.211-11.51
		L160.542,31.83z"/>
	<path fill="#FFFFFF" stroke="#000000" stroke-miterlimit="10" d="M169.864,73.82c5.5-3.176,7.385-10.209,4.209-15.709
		c-1.738-3.012-4.635-4.93-7.801-5.537c-2.617-0.502-12.145,5.004-13.018,7.527c-1.051,3.043-0.836,6.504,0.9,9.51
		C157.331,75.111,164.364,76.996,169.864,73.82z"/>
	<path fill="#FFFFFF" stroke="#000000" stroke-miterlimit="10" d="M23.441,31.709C22.664,25.928,17.958,21.375,12,21.375
		c-6.352,0-11.5,5.149-11.5,11.5c0,6.352,5.148,11.501,11.5,11.501c1.052,0,2.065-0.154,3.034-0.418
		C17.258,43.353,23.841,34.686,23.441,31.709z"/>
	<circle fill="#FFFFFF" stroke="#000000" stroke-miterlimit="10" cx="188.506" cy="26.377" r="11.5"/>
	<path fill="#2F2F2F" stroke="#000000" stroke-miterlimit="10" d="M168.681,45.926c4.178,2.021,9.25,2.006,13.572-0.49
		c6.936-4.004,9.312-12.873,5.309-19.807c-4.004-6.936-12.872-9.312-19.809-5.309c-4.322,2.495-6.871,6.881-7.211,11.51
		L168.681,45.926z"/>
	<path fill="#FFFFFF" stroke="#000000" stroke-miterlimit="10" d="M167.435,20.531c2.039,1.841,13.271,1.876,15.298,0.084
		c2.386-2.107,3.897-5.18,3.897-8.612c0-6.352-5.148-11.501-11.5-11.501s-11.5,5.149-11.5,11.501
		C163.63,15.391,165.104,18.427,167.435,20.531z"/>
	<path fill="#FFFFFF" stroke="#000000" stroke-miterlimit="10" d="M181.065,46.043c0.777,5.781,5.482,10.334,11.44,10.334
		c6.352,0,11.5-5.149,11.5-11.5c0-6.352-5.148-11.501-11.5-11.501c-1.052,0-2.065,0.154-3.034,0.418
		C187.247,34.399,180.665,43.066,181.065,46.043z"/>
</g>
<g id="circles">
	<circle id="Hydrogen_17_" fill="none" cx="12" cy="32.875" r="11.5"/>
	<circle id="Hydrogen_16_" fill="none" cx="40.275" cy="14.875" r="11.5"/>
	<circle id="Hydrogen_15_" fill="none" cx="56.074" cy="14.704" r="11.5"/>
	<circle id="Hydrogen_14_" fill="none" cx="81.848" cy="14.676" r="11.5"/>
	<circle id="Hydrogen_13_" fill="none" cx="97.646" cy="14.875" r="11.5"/>
	<circle id="Hydrogen_12_" fill="none" cx="123.42" cy="14.875" r="11.5"/>
	<circle id="Hydrogen_11_" fill="none" cx="139.218" cy="14.676" r="11.5"/>
	<circle id="Hydrogen_10_" fill="none" cx="175.024" cy="12.002" r="11.5"/>
	<circle id="Hydrogen_9_" fill="none" cx="188.505" cy="26.376" r="11.5"/>
	<circle id="Hydrogen_8_" fill="none" cx="192.444" cy="44.68" r="11.5"/>
	<circle id="Hydrogen_7_" fill="none" cx="164.117" cy="63.952" r="11.5"/>
	<circle id="Hydrogen_6_" fill="none" cx="148.319" cy="63.952" r="11.5"/>
	<circle id="Hydrogen_5_" fill="none" cx="122.544" cy="63.952" r="11.5"/>
	<circle id="Hydrogen_4_" fill="none" cx="106.747" cy="63.926" r="11.5"/>
	<circle id="Hydrogen_3_" fill="none" cx="80.972" cy="63.926" r="11.5"/>
	<circle id="Hydrogen_2_" fill="none" cx="65.174" cy="63.952" r="11.5"/>
	<circle id="Hydrogen_1_" fill="none" cx="29.482" cy="65.749" r="11.5"/>
	<circle id="Hydrogen" fill="none" cx="16" cy="51.375" r="11.5"/>
	<circle id="Carbon_6_" fill="none" cx="29.482" cy="44.881" r="14.496"/>
	<circle id="Carbon_7_" fill="none" cx="50.281" cy="32.871" r="14.496"/>
	<circle id="Carbon_5_" fill="none" cx="71.081" cy="44.881" r="14.496"/>
	<circle id="Carbon_4_" fill="none" cx="91.854" cy="32.869" r="14.496"/>
	<circle id="Carbon_3_" fill="none" cx="112.693" cy="44.881" r="14.496"/>
	<circle id="Carbon_2_" fill="none" cx="133.426" cy="33.179" r="14.496"/>
	<circle id="Carbon_1_" fill="none" cx="154.225" cy="44.873" r="14.496"/>
	<circle id="Carbon" fill="none" cx="175.024" cy="32.869" r="14.496"/>
</g>
</svg>
