<?xml version="1.0" encoding="utf-8"?>
<!-- Generator: Adobe Illustrator 15.0.2, SVG Export Plug-In . SVG Version: 6.00 Build 0)  -->
<!DOCTYPE svg PUBLIC "-//W3C//DTD SVG 1.1//EN" "http://www.w3.org/Graphics/SVG/1.1/DTD/svg11.dtd">
<svg version="1.1" xmlns="http://www.w3.org/2000/svg" xmlns:xlink="http://www.w3.org/1999/xlink" x="0px" y="0px"
	 width="142.135px" height="75.011px" viewBox="0 0 142.135 75.011" enable-background="new 0 0 142.135 75.011"
	 xml:space="preserve">
<g id="object">
	<path fill="#FFFFFF" stroke="#000000" stroke-miterlimit="10" d="M59.427,71.029c-5.5-3.176-7.385-10.21-4.209-15.71
		c1.738-3.011,4.635-4.93,7.802-5.537c2.617-0.501,12.144,5.004,13.017,7.528c1.051,3.043,0.836,6.503-0.9,9.509
		C71.961,72.319,64.928,74.205,59.427,71.029z"/>
	<path fill="#FFFFFF" stroke="#000000" stroke-miterlimit="10" d="M61.821,2.066c5.5,3.176,7.385,10.209,4.209,15.709
		c-1.738,3.011-4.635,4.93-7.802,5.537c-2.617,0.501-12.144-5.004-13.017-7.528c-1.051-3.042-0.836-6.503,0.9-9.509
		C49.287,0.776,56.32-1.109,61.821,2.066z"/>
	<circle fill="#FFFFFF" stroke="#000000" stroke-miterlimit="10" cx="16" cy="48.609" r="11.5"/>
	<path fill="#2F2F2F" stroke="#000000" stroke-miterlimit="10" d="M35.826,29.06c-4.178-2.02-9.251-2.005-13.573,0.491
		c-6.936,4.004-9.312,12.873-5.309,19.807c4.004,6.936,12.872,9.312,19.809,5.309c4.322-2.495,6.872-6.881,7.211-11.51L35.826,29.06
		z"/>
	<path fill="#2F2F2F" stroke="#000000" stroke-miterlimit="10" d="M64.737,29.085c-0.149-2.128-0.755-4.257-1.894-6.229
		c-4.003-6.933-12.872-9.31-19.807-5.306c-4.322,2.495-6.871,6.881-7.211,11.509l8.138,14.096c3.89,1.881,8.549,1.982,12.661-0.022
		L64.737,29.085z"/>
	<path fill="#2F2F2F" stroke="#000000" stroke-miterlimit="10" d="M77.397,29.062c-3.889-1.88-8.548-1.981-12.66,0.024
		l-8.112,14.048c0.148,2.127,0.754,4.255,1.892,6.226c4.005,6.936,12.873,9.312,19.809,5.309c4.322-2.495,6.872-6.881,7.211-11.51
		L77.397,29.062z"/>
	<path fill="#FFFFFF" stroke="#000000" stroke-miterlimit="10" d="M37.071,54.455c-2.039-1.841-13.27-1.876-15.297-0.084
		c-2.385,2.107-3.897,5.18-3.897,8.612c0,6.352,5.148,11.501,11.5,11.501s11.5-5.149,11.5-11.501
		C40.876,59.595,39.402,56.559,37.071,54.455z"/>
	<path fill="#FFFFFF" stroke="#000000" stroke-miterlimit="10" d="M34.528,2.042c-5.5,3.176-7.385,10.209-4.209,15.709
		c1.738,3.011,4.635,4.93,7.802,5.537c2.617,0.501,12.144-5.004,13.017-7.528c1.051-3.042,0.836-6.503-0.9-9.509
		C47.062,0.752,40.029-1.133,34.528,2.042z"/>
	<path fill="#FFFFFF" stroke="#000000" stroke-miterlimit="10" d="M103.394,2.068c5.5,3.176,7.385,10.209,4.209,15.709
		c-1.738,3.011-4.635,4.93-7.802,5.537c-2.617,0.501-12.144-5.004-13.017-7.528c-1.051-3.042-0.836-6.503,0.9-9.509
		C90.859,0.778,97.893-1.107,103.394,2.068z"/>
	<path fill="#2F2F2F" stroke="#000000" stroke-miterlimit="10" d="M106.31,29.087c-0.149-2.128-0.755-4.257-1.894-6.229
		c-4.003-6.933-12.872-9.31-19.807-5.306c-4.321,2.495-6.871,6.881-7.212,11.509l8.139,14.096c3.89,1.881,8.549,1.982,12.661-0.022
		L106.31,29.087z"/>
	<path fill="#FFFFFF" stroke="#000000" stroke-miterlimit="10" d="M76.101,2.044c-5.5,3.176-7.385,10.209-4.209,15.709
		c1.738,3.011,4.635,4.93,7.801,5.537c2.617,0.501,12.145-5.004,13.018-7.528c1.051-3.042,0.836-6.503-0.9-9.509
		C88.634,0.754,81.601-1.131,76.101,2.044z"/>
	<path fill="#FFFFFF" stroke="#000000" stroke-miterlimit="10" d="M86.72,71.052c5.5-3.176,7.385-10.209,4.209-15.709
		c-1.738-3.012-4.635-4.93-7.801-5.537c-2.617-0.502-12.145,5.004-13.018,7.527c-1.051,3.043-0.836,6.504,0.9,9.51
		C74.187,72.343,81.22,74.228,86.72,71.052z"/>
	<path fill="#FFFFFF" stroke="#000000" stroke-miterlimit="10" d="M23.441,28.942C22.664,23.162,17.958,18.609,12,18.609
		c-6.352,0-11.5,5.149-11.5,11.5C0.5,36.46,5.648,41.61,12,41.61c1.052,0,2.065-0.154,3.034-0.418
		C17.258,40.586,23.841,31.919,23.441,28.942z"/>
	<circle fill="#FFFFFF" stroke="#000000" stroke-miterlimit="10" cx="126.135" cy="48.636" r="11.5"/>
	<path fill="#2F2F2F" stroke="#000000" stroke-miterlimit="10" d="M106.31,29.087c4.179-2.02,9.251-2.005,13.573,0.491
		c6.936,4.003,9.311,12.873,5.309,19.806c-4.004,6.936-12.873,9.312-19.809,5.309c-4.322-2.494-6.872-6.881-7.211-11.51
		L106.31,29.087z"/>
	<path fill="#FFFFFF" stroke="#000000" stroke-miterlimit="10" d="M105.064,54.482c2.039-1.84,13.27-1.875,15.297-0.084
		c2.386,2.107,3.898,5.18,3.898,8.613c0,6.352-5.148,11.5-11.5,11.5s-11.5-5.148-11.5-11.5
		C101.26,59.623,102.733,56.587,105.064,54.482z"/>
	<path fill="#FFFFFF" stroke="#000000" stroke-miterlimit="10" d="M118.694,28.97c0.777-5.78,5.483-10.333,11.44-10.333
		c6.352,0,11.5,5.149,11.5,11.499c0,6.352-5.148,11.502-11.5,11.502c-1.051,0-2.064-0.154-3.033-0.418
		C124.877,40.615,118.294,31.947,118.694,28.97z"/>
</g>
<g id="circles">
	<circle id="Hydrogen_11_" fill="none" cx="40.198" cy="11.924" r="11.423"/>
	<circle id="Hydrogen_10_" fill="none" cx="56.073" cy="11.924" r="11.423"/>
	<circle id="Hydrogen_9_" fill="none" cx="81.848" cy="11.924" r="11.423"/>
	<circle id="Hydrogen_8_" fill="none" cx="97.646" cy="11.924" r="11.423"/>
	<circle id="Hydrogen_7_" fill="none" cx="130.156" cy="30.104" r="11.423"/>
	<circle id="Hydrogen_6_" fill="none" cx="126.135" cy="48.609" r="11.423"/>
	<circle id="Hydrogen_5_" fill="none" cx="112.76" cy="63.06" r="11.423"/>
	<circle id="Hydrogen_4_" fill="none" cx="80.973" cy="61.16" r="11.423"/>
	<circle id="Hydrogen_3_" fill="none" cx="65.174" cy="61.183" r="11.423"/>
	<circle id="Hydrogen_2_" fill="none" cx="29.482" cy="63.058" r="11.423"/>
	<circle id="Hydrogen_1_" fill="none" cx="16" cy="48.636" r="11.423"/>
	<circle id="Hydrogen" fill="none" cx="11.979" cy="30.103" r="11.423"/>
	<circle id="Carbon_4_" fill="none" cx="71.081" cy="42.123" r="14.488"/>
	<circle id="Carbon_3_" fill="none" cx="91.853" cy="30.138" r="14.488"/>
	<circle id="Carbon_2_" fill="none" cx="112.76" cy="42.136" r="14.488"/>
	<circle id="Carbon_1_" fill="none" cx="29.376" cy="42.137" r="14.488"/>
	<circle id="Carbon" fill="none" cx="50.314" cy="30.139" r="14.488"/>
</g>
</svg>
