<?xml version="1.0" encoding="utf-8"?>
<!-- Generator: Adobe Illustrator 15.0.2, SVG Export Plug-In . SVG Version: 6.00 Build 0)  -->
<!DOCTYPE svg PUBLIC "-//W3C//DTD SVG 1.1//EN" "http://www.w3.org/Graphics/SVG/1.1/DTD/svg11.dtd">
<svg version="1.1" xmlns="http://www.w3.org/2000/svg" xmlns:xlink="http://www.w3.org/1999/xlink" x="0px" y="0px"
	 width="237.529px" height="188.957px" viewBox="0 0 237.529 188.957" enable-background="new 0 0 237.529 188.957"
	 xml:space="preserve">
<g id="object">
	<path fill="#B1B1B1" d="M63.641,51.702l-1.382-0.67c-3.581-1.736-7.714-2.342-11.65-1.691c-1.583-3.438-4.2-6.362-7.537-8.289
		c-3.696-2.134-8.083-2.926-12.282-2.223c-1.43-2.484-3.499-4.578-6.039-6.045c-2.507-1.447-5.356-2.211-8.239-2.211
		c-5.882,0-11.362,3.162-14.3,8.251c-2.204,3.817-2.79,8.263-1.649,12.521c1.141,4.258,3.871,7.816,7.688,10.02
		c2.501,1.444,5.346,2.208,8.225,2.208c0.009,0,0.017,0,0.026,0c1.483,3.965,4.302,7.347,8.069,9.522
		c1.554,0.897,3.225,1.56,4.956,1.973c-1.288,1.213-2.406,2.615-3.306,4.174c-5.101,8.836-2.063,20.173,6.771,25.273
		c2.811,1.623,6.005,2.48,9.237,2.48h0.001c6.595,0,12.738-3.545,16.034-9.252c1.923-3.331,2.729-7.166,2.384-10.932
		c0.977-0.369,1.926-0.819,2.845-1.35c5.605-3.236,9.231-9.028,9.7-15.493l0.111-1.531L63.641,51.702z"/>
	<path fill="#FFFFFF" stroke="#000000" stroke-miterlimit="10" d="M27.805,44.993c-0.59-3.196-2.517-6.125-5.553-7.878
		c-5.501-3.175-12.534-1.291-15.709,4.209c-3.176,5.5-1.292,12.534,4.209,15.71c3.036,1.753,6.536,1.957,9.6,0.869L27.805,44.993z"
		/>
	<path fill="#2F2F2F" stroke="#000000" stroke-miterlimit="10" d="M60.078,55.531c-3.947-1.913-8.688-1.99-12.846,0.106
		l-7.955,13.77c0.109,1.928,0.611,3.855,1.528,5.676l13.771,7.955c2.19-0.124,4.386-0.734,6.416-1.906
		c4.326-2.498,6.877-6.89,7.213-11.524L60.078,55.531z"/>
	<path fill="#FF0000" stroke="#000000" stroke-miterlimit="10" d="M47.232,55.638c-0.447-4.138-2.78-8.015-6.66-10.256
		c-4.07-2.35-8.853-2.334-12.768-0.389l-7.453,12.91c0.272,4.363,2.651,8.512,6.721,10.862c3.877,2.24,8.399,2.322,12.205,0.643
		L47.232,55.638z"/>
	<path fill="#FF0000" stroke="#000000" stroke-miterlimit="10" d="M40.805,75.083c-4.138,0.447-8.015,2.78-10.254,6.658
		c-3.729,6.459-1.518,14.715,4.94,18.443c6.457,3.728,14.713,1.516,18.441-4.941c2.239-3.877,2.322-8.398,0.643-12.205
		L40.805,75.083z"/>
	<path fill="#FFFFFF" stroke="#000000" stroke-miterlimit="10" d="M50.942,165.651c-3.196,0.59-6.125,2.518-7.878,5.554
		c-3.176,5.501-1.292,12.533,4.21,15.709c5.5,3.176,12.533,1.292,15.709-4.209c1.753-3.036,1.957-6.536,0.87-9.6L50.942,165.651z"/>
	<path fill="#2F2F2F" stroke="#000000" stroke-miterlimit="10" d="M122.517,69.231c-1.191-1.762-2.776-3.296-4.742-4.431
		c-1.965-1.135-4.086-1.74-6.207-1.891l-14.076,8.126c-1.997,4.109-1.893,8.761-0.016,12.645l14.097,8.139
		c4.302-0.315,8.382-2.552,10.942-6.336L122.517,69.231z"/>
	<path fill="#2F2F2F" stroke="#000000" stroke-miterlimit="10" d="M86.533,48.445c-2.424-3.575-6.406-5.996-10.968-6.321
		L61.492,50.25c-0.786,1.617-1.28,3.397-1.414,5.282l8.126,14.076c1.912,0.929,4.05,1.464,6.319,1.465
		c4.998,0,9.403-2.528,12.011-6.375L86.533,48.445z"/>
	<path fill="#2F2F2F" stroke="#000000" stroke-miterlimit="10" d="M111.567,62.91c1.884-3.886,1.989-8.544-0.009-12.657
		l-14.077-8.129c-2.121,0.151-4.241,0.756-6.207,1.891c-1.966,1.135-3.551,2.669-4.742,4.43l0.001,16.252
		c2.562,3.789,6.649,6.027,10.958,6.338L111.567,62.91z"/>
	<path fill="#2F2F2F" stroke="#000000" stroke-miterlimit="10" d="M97.502,29.451c-2.008,4.117-1.905,8.781-0.02,12.673
		l14.077,8.129c4.635-0.335,9.027-2.886,11.525-7.213c4.002-6.938,1.626-15.804-5.308-19.808c-1.973-1.139-4.101-1.744-6.229-1.893
		L97.502,29.451z"/>
	<path fill="#2F2F2F" stroke="#000000" stroke-miterlimit="10" d="M86.524,23.116c1.192,1.767,2.78,3.305,4.75,4.442
		c1.972,1.138,4.1,1.744,6.229,1.893l14.046-8.112c3.307-6.785,0.86-15.064-5.774-18.896c-6.636-3.831-15.028-1.81-19.249,4.445
		L86.524,23.116z"/>
	<path fill="#2F2F2F" stroke="#000000" stroke-miterlimit="10" d="M75.565,42.125c1.884-3.887,1.99-8.545-0.009-12.658
		l-14.075-8.128c-2.122,0.151-4.243,0.756-6.208,1.891c-6.936,4.004-9.312,12.871-5.307,19.808c2.499,4.327,6.89,6.878,11.525,7.213
		L75.565,42.125z"/>
	<path fill="#2F2F2F" stroke="#000000" stroke-miterlimit="10" d="M75.557,29.466c4.313-0.312,8.404-2.555,10.967-6.351l0-16.229
		c-1.192-1.766-2.78-3.305-4.749-4.442c-6.937-4.003-15.804-1.627-19.809,5.307c-2.498,4.327-2.511,9.405-0.485,13.586
		L75.557,29.466z"/>
	<path fill="#FF0000" stroke="#000000" stroke-miterlimit="10" d="M61.582,146.225c-4.135,0.448-8.011,2.779-10.25,6.658
		c-2.35,4.069-2.335,8.853-0.39,12.768l12.91,7.454c4.363-0.272,8.512-2.651,10.862-6.722c2.24-3.881,2.322-8.405,0.64-12.212
		L61.582,146.225z"/>
	<path fill="#2F2F2F" stroke="#000000" stroke-miterlimit="10" d="M97.482,112.591c-1.884,3.887-1.99,8.546,0.01,12.659
		l14.073,8.126c2.122-0.151,4.242-0.757,6.208-1.892c6.937-4.004,9.312-12.869,5.309-19.807c-2.498-4.327-6.891-6.879-11.525-7.214
		L97.482,112.591z"/>
	<path fill="#2F2F2F" stroke="#000000" stroke-miterlimit="10" d="M97.476,83.681c-4.302,0.315-8.382,2.552-10.941,6.334
		l-0.001,16.255c1.191,1.761,2.776,3.295,4.741,4.43c1.966,1.135,4.086,1.74,6.208,1.892l14.074-8.127
		c1.998-4.108,1.895-8.761,0.017-12.645L97.476,83.681z"/>
	<path fill="#2F2F2F" stroke="#000000" stroke-miterlimit="10" d="M75.547,112.589c4.569-0.319,8.558-2.74,10.986-6.319
		l0.001-16.255c-2.608-3.846-7.013-6.374-12.009-6.374c-8.01,0.002-14.5,6.493-14.501,14.5c0,2.277,0.54,4.424,1.475,6.341
		L75.547,112.589z"/>
	<path fill="#2F2F2F" stroke="#000000" stroke-miterlimit="10" d="M75.551,125.264c0.933-1.916,1.472-4.06,1.472-6.334
		c0-2.277-0.54-4.423-1.475-6.341L61.5,104.482c-7.529,0.528-13.476,6.786-13.478,14.448c0.001,7.663,5.948,13.921,13.475,14.448
		L75.551,125.264z"/>
	<path fill="#2F2F2F" stroke="#000000" stroke-miterlimit="10" d="M97.492,125.25c-4.308,0.312-8.396,2.549-10.958,6.336
		l-0.001,16.255c1.191,1.761,2.776,3.295,4.741,4.43c6.936,4.005,15.803,1.629,19.808-5.308c2.498-4.327,2.512-9.406,0.484-13.587
		L97.492,125.25z"/>
	<path fill="#2F2F2F" stroke="#000000" stroke-miterlimit="10" d="M86.534,131.586c-2.427-3.578-6.415-6.001-10.983-6.322
		l-14.054,8.114c-0.934,1.916-1.473,4.06-1.473,6.334c0,2.345,0.57,4.553,1.558,6.513l13.772,7.946
		c4.65-0.264,8.717-2.701,11.179-6.33L86.534,131.586z"/>
	<path fill="#FFFFFF" stroke="#000000" stroke-miterlimit="10" d="M225.529,65.858c-3.506,0-6.639,1.573-8.748,4.046v14.907
		c2.109,2.474,5.242,4.047,8.748,4.047c6.352,0,11.5-5.148,11.5-11.5S231.881,65.858,225.529,65.858z"/>
	<path fill="#FF0000" stroke="#000000" stroke-miterlimit="10" d="M216.781,69.904c-2.418-3.643-6.553-6.046-11.252-6.046
		c-4.481,0-8.44,2.192-10.896,5.553l0.005,15.899c2.456,3.357,6.413,5.548,10.892,5.548c4.699,0,8.834-2.404,11.252-6.047V69.904z"
		/>
	<path fill="#2F2F2F" stroke="#000000" stroke-miterlimit="10" d="M147.56,71.036c4.309-0.312,8.396-2.549,10.958-6.337
		l0.001-16.252c-1.192-1.761-2.776-3.295-4.742-4.43c-6.936-4.005-15.802-1.629-19.808,5.308c-2.498,4.327-2.512,9.406-0.484,13.587
		L147.56,71.036z"/>
	<path fill="#2F2F2F" stroke="#000000" stroke-miterlimit="10" d="M147.56,83.68c0.93-1.913,1.466-4.053,1.466-6.322
		c0-2.27-0.536-4.409-1.466-6.322l-14.075-8.125c-4.562,0.325-8.544,2.745-10.968,6.32l-0.001,16.252
		c2.424,3.575,6.405,5.996,10.967,6.321L147.56,83.68z"/>
	<path fill="#2F2F2F" stroke="#000000" stroke-miterlimit="10" d="M158.526,90.033c-2.562-3.797-6.653-6.04-10.967-6.353
		l-14.077,8.125c-2.027,4.182-2.014,9.261,0.484,13.588c4.006,6.936,12.873,9.311,19.808,5.308c1.972-1.139,3.561-2.679,4.754-4.447
		L158.526,90.033z"/>
	<path fill="#2F2F2F" stroke="#000000" stroke-miterlimit="10" d="M169.501,83.693c-2.126,0.15-4.252,0.756-6.222,1.893
		c-1.972,1.139-3.561,2.679-4.753,4.447l0.002,16.221c4.222,6.257,12.615,8.277,19.251,4.447c6.636-3.832,9.082-12.109,5.775-18.894
		L169.501,83.693z"/>
	<path fill="#2F2F2F" stroke="#000000" stroke-miterlimit="10" d="M158.518,64.699c2.424,3.575,6.405,5.996,10.967,6.321
		l14.077-8.125c0.93-1.913,1.466-4.052,1.466-6.321c0-8.009-6.49-14.5-14.5-14.5c-4.996,0-9.401,2.527-12.009,6.373L158.518,64.699z
		"/>
	<path fill="#2F2F2F" stroke="#000000" stroke-miterlimit="10" d="M194.633,69.411c-2.553-3.895-6.697-6.199-11.071-6.516
		l-14.077,8.125c-1.887,3.891-1.99,8.557,0.017,12.673l14.054,8.114c2.126-0.149,4.252-0.755,6.222-1.892
		c2.03-1.173,3.658-2.77,4.861-4.605L194.633,69.411z"/>
</g>
<g id="circles">
	<circle id="Carbon_19_" fill="none" cx="74.553" cy="14.976" r="14.475"/>
	<circle id="Carbon_18_" fill="none" cx="98.551" cy="14.976" r="14.475"/>
	<circle id="Carbon_17_" fill="none" cx="110.529" cy="35.572" r="14.475"/>
	<circle id="Carbon_16_" fill="none" cx="62.519" cy="35.572" r="14.475"/>
	<circle id="Carbon_15_" fill="none" cx="74.553" cy="56.598" r="14.475"/>
	<circle id="Carbon_14_" fill="none" cx="98.551" cy="56.546" r="14.475"/>
	<circle id="Carbon_13_" fill="none" cx="146.499" cy="56.546" r="14.475"/>
	<circle id="Carbon_12_" fill="none" cx="170.545" cy="56.546" r="14.475"/>
	<circle id="Carbon_11_" fill="none" cx="182.507" cy="77.351" r="14.475"/>
	<circle id="Carbon_10_" fill="none" cx="170.546" cy="98.116" r="14.475"/>
	<circle id="Carbon_9_" fill="none" cx="146.499" cy="98.168" r="14.475"/>
	<circle id="Carbon_8_" fill="none" cx="134.551" cy="77.351" r="14.475"/>
	<circle id="Carbon_7_" fill="none" cx="110.528" cy="77.351" r="14.475"/>
	<circle id="Carbon_6_" fill="none" cx="98.551" cy="98.168" r="14.474"/>
	<circle id="Carbon_5_" fill="none" cx="110.53" cy="118.92" r="14.474"/>
	<circle id="Carbon_4_" fill="none" cx="74.554" cy="98.168" r="14.474"/>
	<circle id="Carbon_3_" fill="none" cx="62.522" cy="118.92" r="14.474"/>
	<circle id="Carbon_2_" fill="none" cx="74.554" cy="139.734" r="14.474"/>
	<circle id="Carbon_1_" fill="none" cx="98.552" cy="139.734" r="14.474"/>
	<circle id="Carbon" fill="none" cx="53.74" cy="68.56" r="19.465"/>
	<circle id="Hydrogen_2_" fill="none" cx="225.413" cy="77.365" r="11.49"/>
	<circle id="Hydrogen_1_" fill="none" cx="53.021" cy="177.054" r="11.49"/>
	<circle id="Hydrogen" fill="none" cx="16.518" cy="47.09" r="16.518"/>
	<circle id="Oxygen_3_" fill="none" cx="63.018" cy="159.666" r="13.495"/>
	<circle id="Oxygen_2_" fill="none" cx="205.707" cy="77.366" r="13.495"/>
	<circle id="Oxygen_1_" fill="none" cx="33.792" cy="57.071" r="18.489"/>
	<circle id="Oxygen" fill="none" cx="42.238" cy="88.54" r="18.489"/>
</g>
</svg>
