<?xml version="1.0" encoding="utf-8"?>
<!-- Generator: Adobe Illustrator 15.0.2, SVG Export Plug-In . SVG Version: 6.00 Build 0)  -->
<!DOCTYPE svg PUBLIC "-//W3C//DTD SVG 1.1//EN" "http://www.w3.org/Graphics/SVG/1.1/DTD/svg11.dtd">
<svg version="1.1" xmlns="http://www.w3.org/2000/svg" xmlns:xlink="http://www.w3.org/1999/xlink" x="0px" y="0px"
	 width="79.768px" height="87.986px" viewBox="0 0 79.768 87.986" enable-background="new 0 0 79.768 87.986" xml:space="preserve">
<g id="object">
	<path fill="#00FF00" stroke="#231F20" stroke-miterlimit="10" d="M60.493,70.986c0,9.113-7.388,16.5-16.5,16.5
		c-9.113,0-16.5-7.387-16.5-16.5s7.387-16.5,16.5-16.5C53.105,54.486,60.493,61.873,60.493,70.986"/>
	<path fill="#00FF00" stroke="#231F20" stroke-miterlimit="10" d="M72.748,26.319c6.443,6.443,6.443,16.891,0,23.334
		c-6.444,6.444-16.891,6.444-23.335,0c-6.444-6.443-6.444-16.891,0-23.334C55.856,19.876,66.304,19.875,72.748,26.319"/>
	<g>
		<g>
			<path fill="#00FF00" stroke="#231F20" stroke-miterlimit="10" d="M29.873,33.686C26.849,29.914,22.21,27.493,17,27.493
				c-9.113,0-16.5,7.387-16.5,16.5s7.387,16.5,16.5,16.5c5.21,0,9.849-2.421,12.873-6.193V33.686z"/>
			<path fill="#005500" stroke="#231F20" stroke-miterlimit="10" d="M61.476,43.656c-0.181-9.508-7.932-17.163-17.483-17.163
				c-5.806,0-10.937,2.839-14.121,7.193c0,0,0.001,0.001,0.001,0.001v20.611c0,0.001-0.001,0.001-0.001,0.001
				c3.183,4.354,8.314,7.193,14.12,7.193c0.902,0,1.78-0.09,2.646-0.221c8.406-1.278,14.854-8.516,14.854-17.279
				C61.493,43.879,61.479,43.77,61.476,43.656z"/>
		</g>
	</g>
	<path fill="#00FF00" stroke="#231F20" stroke-miterlimit="10" d="M43.993,0.5c-9.113,0-16.5,7.387-16.5,16.5
		c0,5.211,2.421,9.851,6.194,12.874c2.825,2.264,17.788,2.264,20.612,0c3.772-3.024,6.194-7.663,6.194-12.874
		C60.493,7.887,53.105,0.5,43.993,0.5z"/>
	<path fill="#00FF00" stroke="#231F20" stroke-miterlimit="10" d="M74.435,74.553c6.443-6.443,6.443-16.89-0.001-23.334
		c-3.685-3.685-8.677-5.253-13.482-4.723c-3.599,0.396-14.179,10.977-14.575,14.574c-0.529,4.806,1.039,9.799,4.723,13.482
		C57.544,80.998,67.992,80.996,74.435,74.553z"/>
</g>
<g id="circles">
	<circle id="Chlorine_4_" fill="none" cx="43.99" cy="16.997" r="16.497"/>
	<circle id="Chlorine_3_" fill="none" cx="17" cy="43.993" r="16.5"/>
	<circle id="Chlorine_2_" fill="none" cx="43.993" cy="70.986" r="16.5"/>
	<circle id="Chlorine_1_" fill="none" cx="62.772" cy="62.89" r="16.5"/>
	<circle id="Chlorine" fill="none" cx="61.08" cy="37.987" r="16.5"/>
	<path id="Phosphorus" fill="none" d="M61.493,43.993c0,9.665-7.835,17.5-17.5,17.5s-17.5-7.835-17.5-17.5s7.835-17.5,17.5-17.5
		S61.493,34.328,61.493,43.993"/>
</g>
</svg>
