<?xml version="1.0" encoding="utf-8"?>
<!-- Generator: Adobe Illustrator 15.0.2, SVG Export Plug-In . SVG Version: 6.00 Build 0)  -->
<!DOCTYPE svg PUBLIC "-//W3C//DTD SVG 1.1//EN" "http://www.w3.org/Graphics/SVG/1.1/DTD/svg11.dtd">
<svg version="1.1" xmlns="http://www.w3.org/2000/svg" xmlns:xlink="http://www.w3.org/1999/xlink" x="0px" y="0px"
	 width="114.011px" height="74.618px" viewBox="0 0 114.011 74.618" enable-background="new 0 0 114.011 74.618"
	 xml:space="preserve">
<g id="object">
	<path fill="#B1B1B1" d="M95.511,18.805c-4.086,0-8.005,1.362-11.187,3.781c-0.86-0.604-1.772-1.131-2.724-1.576
		c0.504-3.964-0.275-8.038-2.318-11.575c-3.295-5.707-9.438-9.252-16.033-9.252c-3.232,0-6.427,0.858-9.238,2.481
		c-8.834,5.101-11.872,16.438-6.771,25.272c2.041,3.533,5.175,6.242,8.852,7.788c-0.046,0.524-0.08,1.05-0.08,1.581
		c0,0.534,0.034,1.063,0.081,1.59c-3.676,1.547-6.808,4.256-8.849,7.788c-5.101,8.835-2.062,20.172,6.771,25.272
		c2.811,1.623,6.006,2.481,9.238,2.481c6.595,0,12.738-3.546,16.033-9.253c2.044-3.542,2.823-7.619,2.317-11.585
		c0.95-0.445,1.861-0.972,2.722-1.575c3.181,2.419,7.1,3.781,11.186,3.781c10.201,0,18.5-8.299,18.5-18.5
		S105.712,18.805,95.511,18.805z"/>
	<path fill="#B1B1B1" d="M24.5,12.805c-13.509,0-24.5,10.99-24.5,24.5c0,13.51,10.991,24.5,24.5,24.5S49,50.814,49,37.305
		C49,23.795,38.009,12.805,24.5,12.805z"/>
	<g>
		<path fill="#0000FF" stroke="#000000" stroke-miterlimit="10" d="M75.485,50.215c3.672-0.415,6.871-2.362,8.963-5.185V29.579
			c-2.092-2.822-5.291-4.77-8.963-5.185l-13.396,7.732c-0.691,1.588-1.078,3.337-1.078,5.179s0.387,3.591,1.078,5.178L75.485,50.215
			z"/>
		<path fill="#FF0000" stroke="#000000" stroke-miterlimit="10" d="M75.485,24.394c1.797-3.856,1.756-8.495-0.533-12.458
			c-3.729-6.458-11.984-8.67-18.441-4.942s-8.67,11.983-4.941,18.442c2.289,3.962,6.283,6.317,10.52,6.69L75.485,24.394z"/>
		<path fill="#FF0000" stroke="#000000" stroke-miterlimit="10" d="M84.448,45.03c2.441,3.488,6.482,5.774,11.062,5.774
			c7.457,0,13.5-6.044,13.5-13.5s-6.043-13.5-13.5-13.5c-4.58,0-8.621,2.287-11.062,5.774V45.03z"/>
		<path fill="#FF0000" stroke="#000000" stroke-miterlimit="10" d="M62.104,42.49c-4.24,0.369-8.24,2.727-10.531,6.693
			c-3.729,6.458-1.516,14.713,4.941,18.441s14.713,1.517,18.441-4.941c2.289-3.967,2.33-8.61,0.529-12.468L62.104,42.49z"/>
	</g>
	<circle fill="#FFA9FF" stroke="#000000" stroke-miterlimit="10" cx="24.5" cy="37.305" r="19.5"/>
</g>
<g id="circles">
	<circle id="Oxygen-Ion_2_" fill="none" cx="95.463" cy="37.31" r="18.654"/>
	<circle id="Oxygen-Ion_1_" fill="none" cx="63.312" cy="18.655" r="18.654"/>
	<circle id="Oxygen-Ion" fill="none" cx="63.312" cy="55.964" r="18.654"/>
	<circle id="Nitrogen-Ion" fill="none" cx="74.21" cy="37.305" r="17.89"/>
	<circle id="Potassium-Ion" fill="none" cx="24.5" cy="37.305" r="24.418"/>
</g>
</svg>
