<?xml version="1.0" encoding="utf-8"?>
<!-- Generator: Adobe Illustrator 15.0.2, SVG Export Plug-In . SVG Version: 6.00 Build 0)  -->
<!DOCTYPE svg PUBLIC "-//W3C//DTD SVG 1.1//EN" "http://www.w3.org/Graphics/SVG/1.1/DTD/svg11.dtd">
<svg version="1.1" xmlns="http://www.w3.org/2000/svg" xmlns:xlink="http://www.w3.org/1999/xlink" x="0px" y="0px" width="105px"
	 height="56px" viewBox="0 0 105 56" enable-background="new 0 0 105 56" xml:space="preserve">
<g id="object">
	<path fill="#B1B1B1" d="M28,0C12.561,0,0,12.561,0,28s12.561,28,28,28s28-12.561,28-28S43.439,0,28,0z"/>
	<path fill="#B1B1B1" d="M80.5,3.5C66.99,3.5,56,14.491,56,28c0,13.51,10.99,24.5,24.5,24.5S105,41.51,105,28
		C105,14.491,94.01,3.5,80.5,3.5z"/>
	<circle fill="#00FF00" stroke="#000000" stroke-miterlimit="10" cx="28" cy="28" r="23"/>
	<circle fill="#FFA9FF" stroke="#000000" stroke-miterlimit="10" cx="80.5" cy="28" r="19.5"/>
</g>
<g id="circles">
	<circle id="Chlorine-Ion" fill="none" cx="28" cy="28" r="28"/>
	<circle id="Potassium-Ion" fill="none" cx="80.5" cy="28" r="24.5"/>
</g>
</svg>
