<?xml version="1.0" encoding="utf-8"?>
<!-- Generator: Adobe Illustrator 15.0.2, SVG Export Plug-In . SVG Version: 6.00 Build 0)  -->
<!DOCTYPE svg PUBLIC "-//W3C//DTD SVG 1.1//EN" "http://www.w3.org/Graphics/SVG/1.1/DTD/svg11.dtd">
<svg version="1.1" xmlns="http://www.w3.org/2000/svg" xmlns:xlink="http://www.w3.org/1999/xlink" x="0px" y="0px" width="101px"
	 height="56px" viewBox="0 0 101 56" enable-background="new 0 0 101 56" xml:space="preserve">
<g id="object">
	<path fill="#B1B1B1" d="M22.5,5.5C10.093,5.5,0,15.593,0,28c0,12.406,10.093,22.5,22.5,22.5C34.906,50.5,45,40.406,45,28
		C45,15.593,34.906,5.5,22.5,5.5z"/>
	<path fill="#B1B1B1" d="M73,0C57.561,0,45,12.561,45,28s12.561,28,28,28s28-12.561,28-28S88.439,0,73,0z"/>
	<circle fill="#A9A9FF" stroke="#000000" stroke-miterlimit="10" cx="22.5" cy="28" r="17.5"/>
	<circle fill="#00FF00" stroke="#000000" stroke-miterlimit="10" cx="73" cy="28" r="23"/>
</g>
<g id="circles">
	<circle id="Silver-Ion" fill="none" cx="22.5" cy="28" r="22.482"/>
	<circle id="Chlorine-Ion" fill="none" cx="73" cy="28" r="27.993"/>
</g>
</svg>
