<?xml version="1.0" encoding="utf-8"?>
<!-- Generator: Adobe Illustrator 15.0.2, SVG Export Plug-In . SVG Version: 6.00 Build 0)  -->
<!DOCTYPE svg PUBLIC "-//W3C//DTD SVG 1.1//EN" "http://www.w3.org/Graphics/SVG/1.1/DTD/svg11.dtd">
<svg version="1.1" xmlns="http://www.w3.org/2000/svg" xmlns:xlink="http://www.w3.org/1999/xlink" x="0px" y="0px"
	 width="126.935px" height="76.25px" viewBox="0 0 126.935 76.25" enable-background="new 0 0 126.935 76.25" xml:space="preserve">
<g id="object">
	<path fill="#B1B1B1" d="M83.373,0.001c-3.232,0-6.426,0.858-9.237,2.48c-3.333,1.924-5.94,4.847-7.525,8.281
		c-1.032-0.169-2.081-0.26-3.144-0.26c-1.062,0-2.111,0.09-3.143,0.259C58.74,7.329,56.132,4.405,52.8,2.481
		C49.989,0.858,46.794,0,43.562,0c-6.595,0-12.739,3.545-16.034,9.252c-2.471,4.279-3.127,9.265-1.849,14.038
		c1.279,4.773,4.341,8.763,8.62,11.233c2.802,1.618,5.988,2.474,9.212,2.474c0.587,0,1.169-0.036,1.749-0.091
		c0.747,1.966,1.806,3.802,3.133,5.431c-2.189,3.094-3.42,6.821-3.419,10.677c0.005,10.199,8.306,18.495,18.503,18.495
		c4.946-0.001,9.59-1.928,13.084-5.424c3.493-3.496,5.416-8.143,5.414-13.083c-0.001-3.856-1.234-7.583-3.425-10.675
		c1.324-1.628,2.379-3.459,3.125-5.42c0.579,0.054,1.161,0.09,1.748,0.09c3.225,0,6.411-0.855,9.213-2.473
		c8.834-5.101,11.872-16.438,6.771-25.271C96.113,3.546,89.969,0.001,83.373,0.001z"/>
	<path fill="#B1B1B1" d="M104.436,31.25c-12.406,0-22.5,10.093-22.5,22.5c0,12.406,10.094,22.5,22.5,22.5s22.5-10.094,22.5-22.5
		C126.936,41.343,116.842,31.25,104.436,31.25z"/>
	<g>
		<path fill="#2F2F2F" stroke="#000000" stroke-miterlimit="10" d="M71.428,42.117c3.719-2.449,6.23-6.563,6.499-11.282
			l-7.949-13.776c-1.959-0.987-4.166-1.556-6.51-1.556s-4.55,0.569-6.509,1.556L49.01,30.834c0.269,4.719,2.779,8.833,6.499,11.282
			H71.428z"/>
		<path fill="#FF0000" stroke="#000000" stroke-miterlimit="10" d="M77.926,30.835c3.806,1.682,8.33,1.6,12.21-0.641
			c6.456-3.728,8.67-11.983,4.941-18.441C91.35,5.296,83.092,3.084,76.636,6.812c-3.878,2.239-6.21,6.113-6.659,10.248
			C69.978,17.059,77.942,30.558,77.926,30.835z"/>
		<path fill="#FF0000" stroke="#000000" stroke-miterlimit="10" d="M55.522,42.117c-3.358,2.457-5.549,6.416-5.548,10.896
			c0.004,7.456,6.049,13.498,13.507,13.496c7.454-0.002,13.497-6.051,13.494-13.505c-0.001-4.478-2.19-8.435-5.548-10.889
			C71.428,42.116,55.755,42.269,55.522,42.117z"/>
		<path fill="#FF0000" stroke="#000000" stroke-miterlimit="10" d="M56.959,17.059C56.51,12.924,54.178,9.05,50.3,6.811
			c-6.456-3.728-14.713-1.517-18.441,4.941c-3.729,6.457-1.516,14.714,4.941,18.441c3.88,2.24,8.403,2.322,12.21,0.641
			L56.959,17.059z"/>
	</g>
	<circle fill="#A9A9FF" stroke="#000000" stroke-miterlimit="10" cx="104.435" cy="53.75" r="17.5"/>
	<path fill="#B1B1B1" d="M22.501,31.25C10.095,31.25,0,41.343,0,53.75c0,12.406,10.094,22.5,22.5,22.5s22.5-10.094,22.5-22.5
		C45.001,41.343,34.907,31.25,22.501,31.25z"/>
	<circle fill="#A9A9FF" stroke="#000000" stroke-miterlimit="10" cx="22.501" cy="53.75" r="17.5"/>
</g>
<g id="circles">
	<circle id="Silver-Ion_1_" fill="none" cx="22.5" cy="53.75" r="22.491"/>
	<circle id="Silver-Ion" fill="none" cx="104.434" cy="53.75" r="22.491"/>
	<circle id="Oxygen-Ion_2_" fill="none" cx="43.503" cy="18.467" r="18.467"/>
	<circle id="Oxygen-Ion_1_" fill="none" cx="83.433" cy="18.467" r="18.467"/>
	<circle id="Oxygen-Ion" fill="none" cx="63.468" cy="53.042" r="18.467"/>
	<circle id="Carbon-Ion" fill="none" cx="63.468" cy="26.434" r="15.93"/>
</g>
</svg>
