<?xml version="1.0" encoding="utf-8"?>
<!-- Generator: Adobe Illustrator 15.0.2, SVG Export Plug-In . SVG Version: 6.00 Build 0)  -->
<!DOCTYPE svg PUBLIC "-//W3C//DTD SVG 1.1//EN" "http://www.w3.org/Graphics/SVG/1.1/DTD/svg11.dtd">
<svg version="1.1" xmlns="http://www.w3.org/2000/svg" xmlns:xlink="http://www.w3.org/1999/xlink" x="0px" y="0px"
	 width="123.007px" height="74.646px" viewBox="0 0 123.007 74.646" enable-background="new 0 0 123.007 74.646"
	 xml:space="preserve">
<g id="object">
	<path fill="#B2B1B2" d="M61.425,71.506c6.592,0,12.733-3.547,16.03-9.26c1.614-2.799,2.476-5.995,2.473-9.238
		c-0.002-3.849-1.231-7.57-3.413-10.661c0.664-0.808,1.269-1.669,1.799-2.588c0.531-0.921,0.978-1.875,1.349-2.855
		c3.762,0.344,7.6-0.45,10.936-2.373c2.81-1.628,5.147-3.963,6.766-6.762c3.297-5.715,3.294-12.803,0.002-18.514
		c-2.472-4.278-6.458-7.34-11.231-8.618c-4.772-1.278-9.761-0.622-14.044,1.852c-2.8,1.615-5.132,3.948-6.745,6.738
		c-0.292,0.508-0.555,1.032-0.795,1.562c-2.075-0.338-4.192-0.339-6.27-0.003c-1.586-3.444-4.198-6.372-7.537-8.299
		c-8.836-5.096-20.171-2.057-25.27,6.776c-2.472,4.282-3.125,9.268-1.844,14.043c1.282,4.771,4.344,8.763,8.624,11.23
		c3.345,1.927,7.184,2.72,10.956,2.369c0.75,1.961,1.808,3.792,3.131,5.419c-0.334,0.476-0.657,0.959-0.949,1.467
		c-1.617,2.794-2.468,5.979-2.466,9.215C42.927,63.209,51.229,71.508,61.425,71.506z"/>
	<path fill="#B2B1B2" d="M120.028,63.891c5.924-10.265,2.395-23.444-7.871-29.372c-10.27-5.927-23.444-2.395-29.37,7.872
		c-5.929,10.266-2.4,23.438,7.869,29.369C100.92,77.684,114.096,74.157,120.028,63.891z"/>
	<path fill="#B2B1B2" d="M40.122,63.891c5.927-10.264,2.394-23.441-7.87-29.367c-10.267-5.93-23.444-2.4-29.369,7.872
		c-5.928,10.261-2.397,23.438,7.87,29.366C21.016,77.688,34.193,74.159,40.122,63.891z"/>
	<g>
		<path fill="#2F2F2F" stroke="#000000" stroke-miterlimit="10" d="M46.957,30.844c0.26,4.442,2.566,8.677,6.519,11.268
			l15.903,0.003c1.836-1.202,3.433-2.828,4.607-4.859c1.168-2.03,1.779-4.223,1.904-6.417l-7.956-13.767
			c-4.22-2.131-9.04-2.01-13.016-0.015L46.957,30.844z"/>
		<path fill="#ED1F24" stroke="#000000" stroke-miterlimit="10" d="M53.475,42.112c-3.357,2.457-5.549,6.416-5.552,10.895
			c0.002,7.456,6.047,13.501,13.503,13.5c7.457,0.002,13.499-6.045,13.5-13.498c-0.001-4.479-2.188-8.437-5.548-10.893
			C69.378,42.115,53.712,42.266,53.475,42.112z"/>
		<path fill="#ED1F24" stroke="#000000" stroke-miterlimit="10" d="M54.908,17.067c-0.449-4.134-2.78-8.011-6.663-10.255
			c-6.458-3.723-14.714-1.505-18.443,4.956c-3.721,6.456-1.505,14.709,4.95,18.438c3.879,2.234,8.4,2.318,12.206,0.639
			C46.958,30.845,54.658,17.193,54.908,17.067z"/>
		<path fill="#ED1F24" stroke="#000000" stroke-miterlimit="10" d="M75.89,30.839c3.809,1.68,8.322,1.599,12.205-0.642
			c6.453-3.728,8.67-11.98,4.939-18.44C89.309,5.3,81.053,3.089,74.595,6.814c-3.879,2.242-6.212,6.119-6.661,10.258L75.89,30.839z"
			/>
	</g>
	<path fill="#5F6060" stroke="#000000" stroke-miterlimit="10" d="M93.158,67.428c-7.896-4.558-10.602-14.646-6.042-22.54
		c4.552-7.89,14.648-10.594,22.537-6.042c7.895,4.562,10.598,14.653,6.043,22.544C111.137,69.282,101.049,71.985,93.158,67.428z"/>
	<path fill="#5F6060" stroke="#000000" stroke-miterlimit="10" d="M13.251,67.43c-7.89-4.555-10.595-14.643-6.039-22.536
		c4.554-7.893,14.649-10.596,22.539-6.041c7.895,4.56,10.6,14.647,6.039,22.539C31.234,69.286,21.146,71.987,13.251,67.43z"/>
</g>
<g id="circles">
	<circle id="Sodium-Ion_1_" fill="none" cx="21.503" cy="53.143" r="21.494"/>
	<circle id="Sodium-Ion" fill="none" cx="101.405" cy="53.139" r="21.497"/>
	<circle id="Oxygen-Ion_2_" fill="none" cx="81.39" cy="18.503" r="18.445"/>
	<circle id="Oxygen-Ion_1_" fill="none" cx="41.452" cy="18.503" r="18.445"/>
	<circle id="Oxygen-Ion" fill="none" cx="61.504" cy="53.143" r="18.445"/>
	<circle id="Carbon-Ion" fill="none" cx="61.504" cy="29.974" r="19.603"/>
</g>
</svg>
