<?xml version="1.0" encoding="utf-8"?>
<!-- Generator: Adobe Illustrator 15.0.2, SVG Export Plug-In . SVG Version: 6.00 Build 0)  -->
<!DOCTYPE svg PUBLIC "-//W3C//DTD SVG 1.1//EN" "http://www.w3.org/Graphics/SVG/1.1/DTD/svg11.dtd">
<svg version="1.1" xmlns="http://www.w3.org/2000/svg" xmlns:xlink="http://www.w3.org/1999/xlink" x="0px" y="0px"
	 width="112.709px" height="76.893px" viewBox="0 0 112.709 76.893" enable-background="new 0 0 112.709 76.893"
	 xml:space="preserve">
<g id="object">
	<path fill="#B1B1B1" d="M64.248,41.559c0.17-1.033,0.255-2.085,0.255-3.149c0-1.056-0.084-2.099-0.251-3.125
		c3.434-1.585,6.354-4.2,8.277-7.532c5.101-8.833,2.063-20.169-6.77-25.271C62.947,0.858,59.753,0,56.521,0
		c-6.594,0-12.738,3.545-16.034,9.252c-1.925,3.334-2.73,7.174-2.384,10.943c-3.797,1.442-7.116,4.052-9.39,7.506l-0.824,1.251
		v1.499V46.37v1.499l0.824,1.251c2.273,3.451,5.589,6.061,9.383,7.503c-0.352,3.776,0.451,7.624,2.38,10.966
		c3.296,5.707,9.439,9.251,16.033,9.251c3.233,0,6.429-0.858,9.241-2.482c4.279-2.472,7.34-6.461,8.618-11.234
		s0.62-9.759-1.852-14.038C70.595,45.756,67.679,43.144,64.248,41.559z"/>
	<path fill="#FF0000" stroke="#000000" stroke-miterlimit="10" d="M57.959,31.911c4.132-0.451,8.003-2.783,10.24-6.658
		c3.729-6.457,1.515-14.713-4.94-18.441C56.8,3.083,48.546,5.295,44.817,11.752c-2.238,3.876-2.322,8.395-0.646,12.199
		L57.959,31.911z"/>
	<path fill="#FF0000" stroke="#000000" stroke-miterlimit="10" d="M44.161,52.893c-1.675,3.805-1.59,8.322,0.646,12.197
		c3.729,6.457,11.986,8.666,18.443,4.938s8.666-11.984,4.937-18.441c-2.237-3.875-6.11-6.207-10.242-6.656L44.161,52.893z"/>
	<path fill="#2F2F2F" stroke="#000000" stroke-miterlimit="10" d="M32.89,46.37c2.449,3.719,6.562,6.229,11.281,6.498l13.775-7.949
		c0.988-1.959,1.557-4.166,1.557-6.51s-0.568-4.549-1.557-6.508l-13.775-7.949c-4.719,0.269-8.832,2.779-11.281,6.499V46.37z"/>
	<g>
		<path fill="#B1B1B1" d="M91.209,16.843c-11.855,0-21.5,9.645-21.5,21.5c0,11.855,9.645,21.5,21.5,21.5s21.5-9.645,21.5-21.5
			C112.709,26.488,103.064,16.843,91.209,16.843z"/>
		<circle fill="#5F5F5F" stroke="#000000" stroke-miterlimit="10" cx="91.209" cy="38.343" r="16.5"/>
	</g>
	<path fill="#FF0000" stroke="#000000" stroke-miterlimit="10" d="M22.828,51.868c4.133-0.25,7.758-2.354,10.062-5.498V30.451
		c-2.457-3.354-6.411-5.541-10.887-5.541c-7.456,0-13.501,6.045-13.501,13.5c0,2.165,0.522,4.203,1.428,6.017L22.828,51.868z"/>
	<path fill="#FFFFFF" stroke="#000000" stroke-miterlimit="10" d="M6.252,65.688c5.501,3.176,12.535,1.291,15.71-4.209
		c1.755-3.039,1.958-6.545,0.866-9.611L9.93,44.426c-3.199,0.589-6.133,2.517-7.887,5.554C-1.133,55.479,0.752,62.513,6.252,65.688z
		"/>
</g>
<g id="circles">
	<circle id="Sodium-Ion" fill="none" cx="91.209" cy="38.429" r="21.492"/>
	<circle id="Oxygen-Ion_1_" fill="none" cx="56.513" cy="18.508" r="18.508"/>
	<circle id="Oxygen-Ion" fill="none" cx="56.513" cy="58.384" r="18.508"/>
	<circle id="Carbon-Ion" fill="none" cx="44.839" cy="38.429" r="19.357"/>
	<circle id="Oxygen" fill="none" cx="21.981" cy="38.389" r="13.479"/>
	<circle id="Hydrogen" fill="none" cx="12" cy="55.73" r="11.5"/>
</g>
</svg>
