<?xml version="1.0" encoding="utf-8"?>
<!-- Generator: Adobe Illustrator 15.0.2, SVG Export Plug-In . SVG Version: 6.00 Build 0)  -->
<!DOCTYPE svg PUBLIC "-//W3C//DTD SVG 1.1//EN" "http://www.w3.org/Graphics/SVG/1.1/DTD/svg11.dtd">
<svg version="1.1" xmlns="http://www.w3.org/2000/svg" xmlns:xlink="http://www.w3.org/1999/xlink" x="0px" y="0px"
	 width="98.006px" height="43.006px" viewBox="0 0 98.006 43.006" enable-background="new 0 0 98.006 43.006" xml:space="preserve">
<g id="object">
	<path fill="#B1B1B1" d="M32.259,2.884C28.992,0.997,25.28,0,21.525,0h-0.001C13.858,0.001,6.718,4.121,2.89,10.753
		C0.018,15.726-0.745,21.52,0.742,27.067s5.044,10.185,10.017,13.056c3.267,1.886,6.978,2.883,10.733,2.883
		c7.666,0,14.807-4.12,18.637-10.753C46.056,21.987,42.525,8.812,32.259,2.884z"/>
	<path fill="#B1B1B1" d="M81.506,5.003c-2.932,0-5.762,0.789-8.242,2.224c-3.27-2.698-7.402-4.225-11.758-4.225
		c-10.202,0-18.5,8.299-18.5,18.5c0,10.202,8.299,18.5,18.5,18.5c4.355,0,8.486-1.527,11.756-4.225
		c2.48,1.436,5.312,2.225,8.244,2.225c9.098,0,16.5-7.402,16.5-16.5C98.006,12.405,90.604,5.003,81.506,5.003z"/>
	<circle fill="#5F5F5F" stroke="#000000" stroke-miterlimit="10" cx="21.509" cy="21.503" r="16.5"/>
	<g>
		<path fill="#FFFFFF" stroke="#000000" stroke-miterlimit="10" d="M81.506,10.003c-3.506,0-6.639,1.573-8.748,4.046v14.907
			c2.109,2.474,5.242,4.047,8.748,4.047c6.35,0,11.5-5.148,11.5-11.5C93.006,15.152,87.856,10.003,81.506,10.003z"/>
		<path fill="#FF0000" stroke="#000000" stroke-miterlimit="10" d="M72.758,14.049c-2.418-3.643-6.553-6.047-11.252-6.047
			c-7.457,0-13.5,6.043-13.5,13.5c0,7.456,6.043,13.5,13.5,13.5c4.699,0,8.834-2.404,11.252-6.047V14.049z"/>
	</g>
</g>
<g id="circles">
	<circle id="Sodium-Ion" fill="none" cx="21.503" cy="21.503" r="21.503"/>
	<circle id="Oxygen-Ion" fill="none" cx="61.568" cy="21.503" r="18.493"/>
	<circle id="Hydrogen-Ion" fill="none" cx="81.512" cy="21.503" r="16.5"/>
</g>
</svg>
