<?xml version="1.0" encoding="utf-8"?>
<!-- Generator: Adobe Illustrator 15.1.0, SVG Export Plug-In . SVG Version: 6.00 Build 0)  -->
<!DOCTYPE svg PUBLIC "-//W3C//DTD SVG 1.1//EN" "http://www.w3.org/Graphics/SVG/1.1/DTD/svg11.dtd">
<svg version="1.1" xmlns="http://www.w3.org/2000/svg" xmlns:xlink="http://www.w3.org/1999/xlink" x="0px" y="0px"
	 width="79.281px" height="43.25px" viewBox="0 0 79.281 43.25" enable-background="new 0 0 79.281 43.25" xml:space="preserve">
<g id="object">
	<circle fill="#5F5F5F" stroke="#000000" stroke-miterlimit="10" cx="17" cy="21.625" r="16.5"/>
	<circle id="Dot_1_" fill="#231F20" cx="37.531" cy="24.625" r="1.5"/>
	<circle id="Dot" fill="#231F20" cx="37.531" cy="18.625" r="1.5"/>
	<circle fill="#00FF00" stroke="#000000" stroke-miterlimit="10" cx="57.656" cy="21.625" r="16.5"/>
	<circle fill="#221F1F" cx="54.656" cy="1.5" r="1.5"/>
	<circle fill="#221F1F" cx="60.656" cy="1.5" r="1.5"/>
	<circle fill="#221F1F" cx="54.656" cy="41.75" r="1.5"/>
	<circle fill="#221F1F" cx="60.656" cy="41.75" r="1.5"/>
	<circle fill="#221F1F" cx="77.781" cy="24.625" r="1.5"/>
	<circle fill="#221F1F" cx="77.781" cy="18.625" r="1.5"/>
</g>
<g id="circles">
	<circle id="Dot_3_" fill="none" cx="37.531" cy="24.625" r="1.5"/>
	<circle id="Dot_2_" fill="none" cx="37.531" cy="18.625" r="1.5"/>
	<circle id="Dot_9_" fill="none" cx="54.656" cy="1.5" r="1.5"/>
	<circle id="Dot_8_" fill="none" cx="60.656" cy="1.5" r="1.5"/>
	<circle id="Dot_7_" fill="none" cx="54.656" cy="41.75" r="1.5"/>
	<circle id="Dot_6_" fill="none" cx="60.656" cy="41.75" r="1.5"/>
	<circle id="Dot_5_" fill="none" cx="77.781" cy="24.625" r="1.5"/>
	<circle id="Dot_4_" fill="none" cx="77.781" cy="18.625" r="1.5"/>
	<circle id="Chlorine" fill="none" cx="57.656" cy="21.625" r="16.5"/>
	<circle id="Sodium" fill="none" cx="17" cy="21.625" r="16.5"/>
</g>
</svg>
