<?xml version="1.0" encoding="utf-8"?>
<!-- Generator: Adobe Illustrator 15.0.2, SVG Export Plug-In . SVG Version: 6.00 Build 0)  -->
<!DOCTYPE svg PUBLIC "-//W3C//DTD SVG 1.1//EN" "http://www.w3.org/Graphics/SVG/1.1/DTD/svg11.dtd">
<svg version="1.1" xmlns="http://www.w3.org/2000/svg" xmlns:xlink="http://www.w3.org/1999/xlink" x="0px" y="0px"
	 width="107.663px" height="74.264px" viewBox="0 0 107.663 74.264" enable-background="new 0 0 107.663 74.264"
	 xml:space="preserve">
<g id="object">
	<path fill="#B1B1B1" d="M21.5,15.628C9.645,15.628,0,25.273,0,37.127c0,11.855,9.645,21.5,21.5,21.5S43,48.983,43,37.127
		C43,25.273,33.355,15.628,21.5,15.628z"/>
	<g>
		<path fill="#B1B1B1" d="M89.157,18.628c-4.087,0-8.005,1.362-11.186,3.781c-0.861-0.604-1.773-1.13-2.725-1.576
			c0.504-3.964-0.275-8.038-2.318-11.575c-3.295-5.707-9.438-9.252-16.033-9.252c-3.232,0-6.427,0.858-9.238,2.481
			c-8.834,5.101-11.872,16.438-6.771,25.272c2.041,3.533,5.174,6.242,8.852,7.789c-0.046,0.523-0.08,1.049-0.08,1.58
			c0,0.534,0.034,1.063,0.081,1.59c-3.676,1.547-6.808,4.256-8.849,7.788c-5.1,8.835-2.062,20.172,6.771,25.272
			c2.812,1.623,6.006,2.481,9.238,2.481c6.595,0,12.738-3.546,16.033-9.253c2.045-3.541,2.823-7.618,2.317-11.585
			c0.95-0.444,1.861-0.971,2.722-1.574c3.181,2.418,7.1,3.78,11.186,3.78c10.201,0,18.5-8.299,18.5-18.5
			C107.657,26.927,99.358,18.628,89.157,18.628z"/>
		<path fill="#0000FF" stroke="#000000" stroke-miterlimit="10" d="M69.131,50.038c3.672-0.414,6.871-2.361,8.964-5.184V29.403
			c-2.093-2.822-5.291-4.77-8.964-5.186l-13.396,7.731c-0.691,1.588-1.078,3.337-1.078,5.179s0.387,3.592,1.078,5.178L69.131,50.038
			z"/>
		<path fill="#FF0000" stroke="#000000" stroke-miterlimit="10" d="M69.131,24.217c1.797-3.856,1.756-8.495-0.533-12.458
			C64.87,5.3,56.614,3.089,50.157,6.817s-8.67,11.983-4.941,18.442c2.289,3.962,6.283,6.317,10.52,6.69L69.131,24.217z"/>
		<path fill="#FF0000" stroke="#000000" stroke-miterlimit="10" d="M78.095,44.854c2.44,3.488,6.481,5.773,11.062,5.773
			c7.457,0,13.5-6.043,13.5-13.5c0-7.456-6.043-13.5-13.5-13.5c-4.58,0-8.621,2.287-11.062,5.775V44.854z"/>
		<path fill="#FF0000" stroke="#000000" stroke-miterlimit="10" d="M55.75,42.313c-4.24,0.369-8.24,2.727-10.531,6.693
			c-3.729,6.459-1.516,14.713,4.941,18.441s14.713,1.518,18.441-4.941c2.29-3.967,2.33-8.609,0.529-12.467L55.75,42.313z"/>
	</g>
	<circle fill="#5F5F5F" stroke="#000000" stroke-miterlimit="10" cx="21.5" cy="37.128" r="16.5"/>
</g>
<g id="circles">
	<circle id="Sodium-Ion" fill="none" cx="21.5" cy="37.127" r="21.405"/>
	<circle id="Oxygen-Ion_2_" fill="none" cx="89.163" cy="37.127" r="18.5"/>
	<circle id="Oxygen-Ion_1_" fill="none" cx="56.886" cy="18.477" r="18.478"/>
	<circle id="Oxygen-Ion" fill="none" cx="56.91" cy="55.759" r="18.505"/>
	<circle id="Nitrogen-Ion" fill="none" cx="67.595" cy="37.127" r="17.938"/>
</g>
</svg>
