<?xml version="1.0" encoding="utf-8"?>
<!-- Generator: Adobe Illustrator 15.0.2, SVG Export Plug-In . SVG Version: 6.00 Build 0)  -->
<!DOCTYPE svg PUBLIC "-//W3C//DTD SVG 1.1//EN" "http://www.w3.org/Graphics/SVG/1.1/DTD/svg11.dtd">
<svg version="1.1" xmlns="http://www.w3.org/2000/svg" xmlns:xlink="http://www.w3.org/1999/xlink" x="0px" y="0px"
	 width="105.989px" height="76.84px" viewBox="0 0 105.989 76.84" enable-background="new 0 0 105.989 76.84" xml:space="preserve">
<g id="object">
	<circle fill="none" cx="64.989" cy="38.421" r="16.5"/>
	<path fill="#B1B1B1" d="M84.489,16.921c-1.382,0-2.729,0.143-4.038,0.393c-0.394-5.96-3.651-11.627-9.201-14.833
		C68.438,0.858,65.244,0,62.011,0c-6.594,0-12.738,3.545-16.033,9.252c-1.923,3.331-2.729,7.165-2.385,10.93
		c-3.712,1.398-6.928,3.916-9.226,7.312l-0.858,1.27V48.08l0.857,1.269c1.673,2.476,3.822,4.481,6.383,5.959
		c0.899,0.52,1.83,0.963,2.788,1.328c-0.321,3.768,0.501,7.611,2.433,10.955c3.295,5.704,9.438,9.248,16.032,9.249c0,0,0,0,0.001,0
		c3.233,0,6.428-0.858,9.24-2.482c4.28-2.472,7.341-6.461,8.618-11.234c0.318-1.189,0.516-2.393,0.596-3.595
		c1.309,0.25,2.653,0.393,4.033,0.393c11.855,0,21.5-9.645,21.5-21.5C105.989,26.566,96.344,16.921,84.489,16.921z"/>
	<circle fill="#5F5F5F" stroke="#000000" stroke-miterlimit="10" cx="84.489" cy="38.421" r="16.5"/>
	<circle fill="#FFFFFF" stroke="#000000" stroke-miterlimit="10" cx="12" cy="38.422" r="11.5"/>
	<path fill="#2F2F2F" stroke="#000000" stroke-miterlimit="10" d="M38.508,30.295c-2.606-3.846-7.013-6.374-12.01-6.375
		C18.492,23.922,12,30.413,12,38.421c0,8.008,6.492,14.5,14.498,14.5c4.998,0,9.402-2.527,12.011-6.373V30.295z"/>
	<path fill="#2F2F2F" stroke="#000000" stroke-miterlimit="10" d="M63.436,44.93c2.127-4.221,2.009-9.039,0.014-13.019
		l-13.788-7.959c-4.378,0.258-8.552,2.498-11.153,6.344v16.253c1.19,1.762,2.774,3.295,4.741,4.43
		c2.029,1.172,4.224,1.783,6.414,1.908L63.436,44.93z"/>
	<path fill="#FF0000" stroke="#000000" stroke-miterlimit="10" d="M63.45,31.911c4.132-0.451,8.003-2.783,10.24-6.658
		c3.729-6.457,1.515-14.713-4.94-18.441c-6.459-3.729-14.713-1.516-18.441,4.941c-2.238,3.876-2.322,8.395-0.646,12.199
		L63.45,31.911z"/>
	<path fill="#FF0000" stroke="#000000" stroke-miterlimit="10" d="M49.652,52.893c-1.675,3.805-1.59,8.322,0.646,12.197
		c3.729,6.457,11.986,8.666,18.443,4.938s8.666-11.984,4.937-18.441c-2.237-3.875-6.11-6.207-10.242-6.656L49.652,52.893z"/>
	<path fill="#FFFFFF" stroke="#000000" stroke-miterlimit="10" d="M13.855,31.56c2.637,0.521,12.244-5.03,13.106-7.583
		c1.026-3.024,0.802-6.455-0.919-9.439c-3.178-5.5-10.207-7.384-15.711-4.209c-5.498,3.174-7.383,10.208-4.207,15.708
		C7.849,29.027,10.718,30.938,13.855,31.56z"/>
	<path fill="#FFFFFF" stroke="#000000" stroke-miterlimit="10" d="M26.874,52.902c-0.866-2.545-10.476-8.088-13.118-7.559
		c-3.133,0.625-5.993,2.533-7.716,5.516c-3.176,5.502-1.291,12.535,4.21,15.711c5.498,3.174,12.533,1.291,15.709-4.211
		C27.684,59.371,27.905,55.932,26.874,52.902z"/>
</g>
<g id="circles">
	<circle id="Hydrogen_2_" fill="none" cx="15.996" cy="20.285" r="11.499"/>
	<circle id="Hydrogen_1_" fill="none" cx="12" cy="38.422" r="11.499"/>
	<circle id="Hydrogen" fill="none" cx="16.08" cy="56.711" r="11.499"/>
	<circle id="Carbon_1_" fill="none" cx="26.51" cy="38.42" r="14.51"/>
	<circle id="Carbon-Ion" fill="none" cx="50.479" cy="38.42" r="14.51"/>
	<circle id="Sodium-Ion" fill="none" cx="84.489" cy="38.406" r="21.486"/>
	<circle id="Oxygen-Ion_1_" fill="none" cx="61.909" cy="58.384" r="18.434"/>
	<circle id="Oxygen-Ion" fill="none" cx="61.909" cy="18.455" r="18.434"/>
</g>
</svg>
