<?xml version="1.0" encoding="utf-8"?>
<!-- Generator: Adobe Illustrator 15.0.2, SVG Export Plug-In . SVG Version: 6.00 Build 0)  -->
<!DOCTYPE svg PUBLIC "-//W3C//DTD SVG 1.1//EN" "http://www.w3.org/Graphics/SVG/1.1/DTD/svg11.dtd">
<svg version="1.1" xmlns="http://www.w3.org/2000/svg" xmlns:xlink="http://www.w3.org/1999/xlink" x="0px" y="0px"
	 width="76.122px" height="78.226px" viewBox="0 0 76.122 78.226" enable-background="new 0 0 76.122 78.226" xml:space="preserve">
<g id="object">
	<path fill="#B1B1B1" d="M73.616,50.415c0.419-1.261,0.724-2.577,0.867-3.951c0.515-4.915-0.917-9.735-4.03-13.574
		c-3.112-3.838-7.533-6.234-12.449-6.748c-0.471-0.049-0.945-0.061-1.419-0.074c1.062-2.358,1.63-4.935,1.63-7.569
		c0-10.201-8.299-18.5-18.5-18.5s-18.5,8.299-18.5,18.5c0,3.312,0.9,6.533,2.55,9.342c-2.36,2.488-4.134,5.531-5.125,8.937
		c-3.271-0.024-6.54,0.802-9.394,2.45C0.413,44.329-2.625,55.666,2.475,64.5c3.294,5.707,9.438,9.252,16.033,9.252c0,0,0,0,0,0
		c3.232,0,6.427-0.858,9.237-2.48c2.872-1.657,5.211-4.052,6.82-6.89c1.683,0.405,3.412,0.619,5.148,0.619
		c0.064,0,0.128-0.004,0.192-0.005c0.927,3.127,2.666,5.986,5.088,8.248c3.438,3.211,7.921,4.98,12.623,4.981h0.001
		c5.108,0,10.038-2.142,13.522-5.875c3.374-3.611,5.139-8.32,4.97-13.259C76.004,55.987,75.14,53.025,73.616,50.415z"/>
	<circle fill="#FF0000" stroke="#000000" stroke-miterlimit="10" cx="56.083" cy="44.543" r="13.5"/>
	<g>
		<path fill="#FFFF00" stroke="#000000" stroke-miterlimit="10" d="M39.715,26c-9.203,0-16.681,7.318-16.973,16.451L31.7,57.992
			c2.389,1.28,5.116,2.01,8.015,2.01c9.391,0,17-7.611,17-17.001C56.716,33.613,49.103,26,39.715,26z"/>
		<path fill="#FF0000" stroke="#000000" stroke-miterlimit="10" d="M22.742,42.451c-3.531-1.169-7.521-0.898-10.996,1.108
			C5.289,47.288,3.078,55.544,6.805,62c3.728,6.457,11.983,8.67,18.441,4.941c3.468-2.002,5.697-5.315,6.453-8.95L22.742,42.451z"/>
	</g>
	<g>
		<path fill="#FF0000" stroke="#000000" stroke-miterlimit="10" d="M66.835,49.856c-2.927-2.733-6.747-3.898-10.446-3.561
			c-3.185,0.292-12.173,9.91-12.248,13.103c-0.088,3.718,1.336,7.455,4.267,10.192c5.449,5.091,13.991,4.798,19.08-0.653
			C72.578,63.489,72.285,54.946,66.835,49.856z"/>
		<path fill="#FF0000" stroke="#000000" stroke-miterlimit="10" d="M39.714,5c-7.456,0-13.5,6.043-13.5,13.5
			c0,4.011,1.759,7.603,4.537,10.075c2.385,2.124,15.542,2.124,17.927,0c2.777-2.473,4.536-6.064,4.536-10.075
			C53.214,11.043,47.17,5,39.714,5z"/>
	</g>
</g>
<g id="circles">
	<circle id="Oxygen-Ion_3_" fill="none" cx="39.715" cy="18.5" r="18.492"/>
	<circle id="Oxygen-Ion_2_" fill="none" cx="57.629" cy="59.733" r="18.493"/>
	<circle id="Oxygen-Ion_1_" fill="none" cx="56.083" cy="44.542" r="18.501"/>
	<circle id="Oxygen-Ion" fill="none" cx="18.492" cy="55.255" r="18.264"/>
	<circle id="Sulfur-Ion" fill="none" cx="39.728" cy="43" r="21.923"/>
</g>
</svg>
