<?xml version="1.0" encoding="utf-8"?>
<!-- Generator: Adobe Illustrator 15.0.2, SVG Export Plug-In . SVG Version: 6.00 Build 0)  -->
<!DOCTYPE svg PUBLIC "-//W3C//DTD SVG 1.1//EN" "http://www.w3.org/Graphics/SVG/1.1/DTD/svg11.dtd">
<svg version="1.1" xmlns="http://www.w3.org/2000/svg" xmlns:xlink="http://www.w3.org/1999/xlink" x="0px" y="0px"
	 width="94.353px" height="42.118px" viewBox="0 0 94.353 42.118" enable-background="new 0 0 94.353 42.118" xml:space="preserve">
<g id="object">
	<g>
		<path fill="#2F2F2F" stroke="#000000" stroke-miterlimit="10" d="M70.522,9.631C67.938,5.644,63.459,3,58.353,3
			c-4.85,0-9.132,2.39-11.765,6.046v16.907C49.221,29.61,53.503,32,58.353,32c5.106,0,9.585-2.645,12.169-6.632V9.631z"/>
		<path fill="#0000FF" stroke="#000000" stroke-miterlimit="10" d="M80.853,4.5c-4.218,0-7.956,2.018-10.331,5.131v15.737
			c2.375,3.114,6.113,5.132,10.331,5.132c7.18,0,13-5.82,13-13S88.033,4.5,80.853,4.5z"/>
		<path fill="#FFFF00" stroke="#000000" stroke-miterlimit="10" d="M46.588,9.046C43.654,3.944,38.161,0.5,31.853,0.5
			c-9.389,0-17,7.611-17,17c0,0.505,0.032,1.003,0.076,1.497l8.379,13.183c2.513,1.466,5.426,2.32,8.545,2.32
			c6.308,0,11.802-3.444,14.735-8.547V9.046z"/>
		<path fill="#FFFFFF" stroke="#000000" stroke-miterlimit="10" d="M14.929,18.997c-2.83-0.745-5.943-0.419-8.677,1.159
			c-5.5,3.176-7.385,10.21-4.209,15.71c3.176,5.501,10.209,7.385,15.709,4.21c3.041-1.756,4.97-4.693,5.557-7.896L14.929,18.997z"/>
	</g>
</g>
<g id="circles">
	<circle id="Hydrogen" fill="none" cx="12.001" cy="30.117" r="11.501"/>
	<circle id="Sulfur" fill="none" cx="31.853" cy="17.5" r="17"/>
	<circle id="Carbon" fill="none" cx="58.353" cy="17.5" r="14.5"/>
	<circle id="Nitrogen" fill="none" cx="80.853" cy="17.5" r="13"/>
</g>
</svg>
