<?xml version="1.0" encoding="utf-8"?>
<!-- Generator: Adobe Illustrator 15.1.0, SVG Export Plug-In . SVG Version: 6.00 Build 0)  -->
<!DOCTYPE svg PUBLIC "-//W3C//DTD SVG 1.1//EN" "http://www.w3.org/Graphics/SVG/1.1/DTD/svg11.dtd">
<svg version="1.1" xmlns="http://www.w3.org/2000/svg" xmlns:xlink="http://www.w3.org/1999/xlink" x="0px" y="0px"
	 width="115.205px" height="101.723px" viewBox="0 0 115.205 101.723" enable-background="new 0 0 115.205 101.723"
	 xml:space="preserve">

<g id="circles">
	<g>
		<g>
			<g>
				<circle fill="none" cx="50.4" cy="62.373" r="7.2"/>
			</g>
			<g>
				<circle fill="none" cx="57.601" cy="74.842" r="7.2"/>
			</g>
			<g>
				<circle fill="none" cx="57.601" cy="49.892" r="7.2"/>
			</g>
			<g>
				<circle fill="none" cx="64.8" cy="37.426" r="7.2"/>
			</g>
			<g>
				<circle fill="none" cx="79.2" cy="62.373" r="7.2"/>
			</g>
			<g>
				<circle fill="none" cx="93.601" cy="62.373" r="7.2"/>
			</g>
			<g>
				<circle fill="none" cx="64.8" cy="62.373" r="7.2"/>
			</g>
			<g>
				<circle fill="none" cx="72" cy="74.842" r="7.199"/>
			</g>
			<g>
				<circle fill="none" cx="43.201" cy="74.842" r="7.2"/>
			</g>
			<g>
				<circle fill="none" cx="72" cy="49.893" r="7.199"/>
			</g>
			<g>
				<circle fill="none" cx="86.399" cy="74.842" r="7.2"/>
			</g>
			<g>
				<circle fill="none" cx="86.399" cy="49.892" r="7.2"/>
			</g>
			<g>
				<circle fill="none" cx="79.2" cy="37.426" r="7.2"/>
			</g>
			<g>
				<circle fill="none" cx="72.001" cy="24.955" r="7.2"/>
			</g>
			<g>
				<circle fill="none" cx="36" cy="62.373" r="7.2"/>
			</g>
			<g>
				<circle fill="none" cx="43.199" cy="49.892" r="7.2"/>
			</g>
			<g>
				<circle fill="none" cx="50.399" cy="37.426" r="7.201"/>
			</g>
			<g>
				<circle fill="none" cx="57.6" cy="24.955" r="7.201"/>
			</g>
			<g>
				<circle fill="none" cx="21.599" cy="62.373" r="7.2"/>
			</g>
			<g>
				<circle fill="none" cx="28.799" cy="49.892" r="7.2"/>
			</g>
			<g>
				<circle fill="none" cx="35.999" cy="37.426" r="7.201"/>
			</g>
			<g>
				<circle fill="none" cx="43.2" cy="24.955" r="7.201"/>
			</g>
			<g>
				<circle fill="none" cx="64.8" cy="87.317" r="7.2"/>
			</g>
			<g>
				<circle fill="none" cx="79.2" cy="87.317" r="7.2"/>
			</g>
			<g>
				<circle fill="none" cx="50.399" cy="87.317" r="7.201"/>
			</g>
			<g>
				<circle fill="none" cx="35.999" cy="87.317" r="7.201"/>
			</g>
			<g>
				<circle fill="none" cx="28.799" cy="74.842" r="7.2"/>
			</g>
		</g>
		<g>
			<circle fill="none" cx="50.4" cy="72.912" r="7.2"/>
		</g>
		<g>
			<circle fill="none" cx="57.601" cy="60.431" r="7.2"/>
		</g>
		<g>
			<circle fill="none" cx="64.8" cy="47.965" r="7.2"/>
		</g>
		<g>
			<circle fill="none" cx="79.2" cy="72.912" r="7.2"/>
		</g>
		<g>
			<circle fill="none" cx="64.8" cy="72.912" r="7.2"/>
		</g>
		<g>
			<circle fill="none" cx="72" cy="60.432" r="7.199"/>
		</g>

		<g>
			<circle fill="none" cx="36" cy="72.912" r="7.2"/>
		</g>
		<g>
			<circle fill="none" cx="43.199" cy="60.431" r="7.2"/>
		</g>

		<g>
			<circle fill="none" cx="50.399" cy="47.965" r="7.201"/>
		</g>

		<g>
			<circle fill="none" cx="57.6" cy="35.494" r="7.201"/>
		</g>

	</g>

	<g>
		<g>
			<circle fill="none" cx="50.4" cy="62.373" r="7.2"/>
		</g>
		<g>
			<circle fill="none" cx="57.601" cy="74.842" r="7.2"/>
		</g>
		<g>
			<circle fill="none" cx="57.601" cy="49.892" r="7.2"/>
		</g>
		<g>
			<circle fill="none" cx="64.8" cy="37.426" r="7.2"/>
		</g>
		<g>
			<circle fill="none" cx="79.2" cy="62.373" r="7.2"/>
		</g>
		<g>
			<circle fill="none" cx="93.601" cy="62.373" r="7.2"/>
		</g>
		<g>
			<circle fill="none" cx="64.8" cy="62.373" r="7.2"/>
		</g>
		<g>
			<circle fill="none" cx="72" cy="74.842" r="7.199"/>
		</g>
		<g>
			<circle fill="none" cx="43.201" cy="74.842" r="7.2"/>
		</g>
		<g>
			<circle fill="none" cx="72" cy="49.893" r="7.199"/>
		</g>
		<g>
			<circle fill="none" cx="86.399" cy="74.842" r="7.2"/>
		</g>
		<g>
			<circle fill="none" cx="86.399" cy="49.892" r="7.2"/>
		</g>
		<g>
			<circle fill="none" cx="79.2" cy="37.426" r="7.2"/>
		</g>
		<g>
			<circle fill="none" cx="72.001" cy="24.955" r="7.2"/>
		</g>

		<g>
			<circle fill="none" cx="36" cy="62.373" r="7.2"/>
		</g>
		<g>
			<circle fill="none" cx="43.199" cy="49.892" r="7.2"/>
		</g>
		<g>
			<circle fill="none" cx="50.399" cy="37.426" r="7.201"/>
		</g>
		<g>
			<circle fill="none" cx="57.6" cy="24.955" r="7.201"/>
		</g>
		<g>
			<circle fill="none" cx="21.599" cy="62.373" r="7.2"/>
		</g>
		<g>
			<circle fill="none" cx="28.799" cy="49.892" r="7.2"/>
		</g>
		<g>
		</g>
		<g>
			<circle fill="none" cx="35.999" cy="37.426" r="7.201"/>
		</g>

		<g>
			<circle fill="none" cx="43.2" cy="24.955" r="7.201"/>
		</g>
	
		<g>
			<circle fill="none" cx="64.8" cy="87.317" r="7.2"/>
		</g>
		<g>
			<circle fill="none" cx="79.2" cy="87.317" r="7.2"/>
		</g>
		<g>
			<circle fill="none" cx="50.399" cy="87.317" r="7.201"/>
		</g>
		<g>
			<circle fill="none" cx="35.999" cy="87.317" r="7.201"/>
		</g>
		<g>
			<circle fill="none" cx="28.799" cy="74.842" r="7.2"/>
		</g>
	</g>

	<g>
		<circle fill="none" cx="50.4" cy="72.912" r="7.2"/>
	</g>
	<g>
		<circle fill="none" cx="57.601" cy="60.431" r="7.2"/>
	</g>
	<g>
		<circle fill="none" cx="64.8" cy="47.965" r="7.2"/>
	</g>
	<g>
		<circle fill="none" cx="79.2" cy="72.912" r="7.2"/>
	</g>
	<g>
		<circle fill="none" cx="64.8" cy="72.912" r="7.2"/>
	</g>
	<g>
		<circle fill="none" cx="72" cy="60.432" r="7.199"/>
	</g>

	<g>
		<circle fill="none" cx="36" cy="72.912" r="7.2"/>
	</g>
	<g>
		<circle fill="none" cx="43.199" cy="60.431" r="7.2"/>
	</g>

	<g>
		<circle fill="none" cx="50.399" cy="47.965" r="7.201"/>
	</g>

	<g>
		<circle fill="none" cx="57.6" cy="35.494" r="7.201"/>
	</g>

</g>
</svg>
