<?xml version="1.0" encoding="utf-8"?>
<!-- Generator: Adobe Illustrator 15.1.0, SVG Export Plug-In . SVG Version: 6.00 Build 0)  -->
<!DOCTYPE svg PUBLIC "-//W3C//DTD SVG 1.1//EN" "http://www.w3.org/Graphics/SVG/1.1/DTD/svg11.dtd">
<svg version="1.1" xmlns="http://www.w3.org/2000/svg" xmlns:xlink="http://www.w3.org/1999/xlink" x="0px" y="0px"
	 width="73.498px" height="53.453px" viewBox="0 0 73.498 53.453" enable-background="new 0 0 73.498 53.453" xml:space="preserve">
<g id="object">
	<circle fill="#FFFFFF" stroke="#1D1D1B" stroke-miterlimit="10" cx="12.001" cy="41.452" r="11.5"/>
	<circle fill="#231F20" cx="25.79" cy="31.906" r="1.5"/>
	<circle fill="#231F20" cx="21.547" cy="27.664" r="1.5"/>
	<circle fill="#FFFFFF" stroke="#1D1D1B" stroke-miterlimit="10" cx="61.498" cy="41.452" r="11.5"/>
	<circle fill="#231F20" cx="51.952" cy="27.664" r="1.5"/>
	<circle fill="#231F20" cx="47.709" cy="31.906" r="1.5"/>
	<circle fill="#231F20" cx="47.709" cy="1.5" r="1.5"/>
	<circle fill="#231F20" cx="51.952" cy="5.743" r="1.5"/>
	<circle fill="#231F20" cx="21.545" cy="5.744" r="1.5"/>
	<circle fill="#231F20" cx="25.789" cy="1.501" r="1.5"/>
	<circle fill="#FF0000" stroke="#000000" stroke-miterlimit="10" cx="36.749" cy="16.705" r="13.5"/>
</g>
<g id="circles">
	<circle id="Hydrogen" fill="#FFFFFF" cx="12.001" cy="41.452" r="11.5"/>
	<circle id="Dot_7_" fill="#231F20" cx="25.79" cy="31.906" r="1.5"/>
	<circle id="Dot_6_" fill="#231F20" cx="21.547" cy="27.664" r="1.5"/>
	<circle id="Hydrogen" fill="#FFFFFF" cx="61.498" cy="41.452" r="11.5"/>
	<circle id="Dot_5_" fill="#231F20" cx="51.952" cy="27.664" r="1.5"/>
	<circle id="Dot_4_" fill="#231F20" cx="47.709" cy="31.906" r="1.5"/>
	<circle id="Dot_3_" fill="#231F20" cx="47.709" cy="1.5" r="1.5"/>
	<circle id="Dot_2_" fill="#231F20" cx="51.952" cy="5.743" r="1.5"/>
	<circle id="Dot_1_" fill="#231F20" cx="21.545" cy="5.744" r="1.5"/>
	<circle id="Dot" fill="#231F20" cx="25.789" cy="1.501" r="1.5"/>
	<circle id="Oxygen" fill="#FF0000" cx="36.749" cy="16.705" r="13.5"/>
</g>
</svg>
