<?xml version="1.0" encoding="utf-8"?>
<!-- Generator: Adobe Illustrator 15.0.2, SVG Export Plug-In . SVG Version: 6.00 Build 0)  -->
<!DOCTYPE svg PUBLIC "-//W3C//DTD SVG 1.1//EN" "http://www.w3.org/Graphics/SVG/1.1/DTD/svg11.dtd">
<svg version="1.1" id="Layer_1" xmlns="http://www.w3.org/2000/svg" xmlns:xlink="http://www.w3.org/1999/xlink" x="0px" y="0px"
	 width="501px" height="119.493px" viewBox="0 0 501 119.493" enable-background="new 0 0 501 119.493" xml:space="preserve">
<polygon fill="#58595B" points="0,119.493 20.5,95.269 479.5,95.269 501,119.493 "/>
<g>
	<path fill="#808285" d="M249.595,1.238c-10.495,0-19.003,8.507-19.003,19.002c0,10.493,8.508,19.003,19.003,19.003
		c10.496,0,19.004-8.51,19.004-19.003C268.599,9.746,260.091,1.238,249.595,1.238z M249.595,35.442c-8.396,0-15.2-6.807-15.2-15.202
		c0-8.395,6.805-15.203,15.2-15.203c8.397,0,15.201,6.808,15.201,15.203C264.796,28.636,257.992,35.442,249.595,35.442z"/>
</g>
<g>
	<path fill="#58595B" d="M253.396,0c-10.494,0-19.001,8.509-19.001,19.003c0,10.494,8.507,19.002,19.001,19.002
		c10.495,0,19.002-8.508,19.002-19.002C272.397,8.509,263.891,0,253.396,0z M253.396,34.206c-8.396,0-15.202-6.809-15.202-15.203
		c0-8.396,6.806-15.202,15.202-15.202c8.395,0,15.203,6.806,15.203,15.202C268.599,27.397,261.79,34.206,253.396,34.206z"/>
</g>
<polygon fill="#808285" points="166.889,89.297 208.694,41.52 250.499,35.548 298.277,89.297 "/>
<polygon fill="#58595B" points="334.11,89.297 292.305,41.52 250.499,35.548 244.527,89.297 "/>
<rect x="166.889" y="89.297" fill="#58595B" width="77.638" height="5.973"/>
<rect x="244.527" y="89.297" fill="#808285" width="89.583" height="5.973"/>
</svg>
